<svg xmlns="http://www.w3.org/2000/svg" fill="none" viewBox="0 0 94 24">
  <g clip-path="url(#etherlink-dark_svg__a)">
    <path fill="#fff" d="m86.95 15.178-.006-2.409h.33l3.138-3.401h2.405l-3.86 4.167h-.427l-1.58 1.643Zm-1.877 2.657V6.545h2.059v11.29h-2.059Zm5.481 0-2.843-3.853 1.388-1.406 3.917 5.259h-2.462ZM77.775 12.874v4.96h-2.058V9.368h1.967v1.438h.103c.2-.474.52-.85.96-1.13.444-.279.992-.418 1.644-.418.602 0 1.127.125 1.575.374.45.25.8.612 1.046 1.086.25.474.373 1.05.37 1.726v5.39h-2.059v-5.082c0-.566-.152-1.008-.455-1.328-.3-.32-.714-.48-1.245-.48-.36 0-.68.077-.96.232-.278.15-.495.37-.655.656-.155.286-.233.634-.233 1.042ZM71.943 17.835V9.368H74v8.467h-2.058Zm1.035-9.669c-.326 0-.607-.104-.842-.314a1 1 0 0 1-.352-.766c0-.301.117-.557.352-.766a1.21 1.21 0 0 1 .842-.32c.33 0 .61.107.841.32.235.21.352.465.352.766a1 1 0 0 1-.352.766c-.231.21-.512.314-.841.314ZM70.227 6.546v11.289h-2.059V6.545h2.058ZM62.22 17.835V9.368h1.996v1.411h.091c.16-.489.432-.865.819-1.13.39-.268.836-.402 1.336-.402.114 0 .24.005.381.016.144.008.263.02.358.039v1.835a2.228 2.228 0 0 0-.415-.077 3.94 3.94 0 0 0-.54-.038c-.375 0-.712.079-1.012.237-.296.154-.529.369-.7.645-.17.275-.255.593-.255.953v4.978H62.22ZM56.997 18c-.876 0-1.632-.177-2.269-.53a3.632 3.632 0 0 1-1.461-1.51c-.341-.654-.512-1.424-.512-2.31 0-.87.17-1.635.512-2.292a3.797 3.797 0 0 1 1.444-1.544c.618-.37 1.344-.556 2.178-.556.538 0 1.046.084 1.523.253.482.165.906.423 1.274.772.371.349.663.794.876 1.334.212.536.318 1.176.318 1.918v.612h-7.158v-1.345h5.185a2.093 2.093 0 0 0-.256-1.02 1.83 1.83 0 0 0-.7-.71 2.014 2.014 0 0 0-1.034-.26 2.077 2.077 0 0 0-1.854 1.07 2.165 2.165 0 0 0-.267 1.041v1.174c0 .493.093.915.279 1.268.186.35.445.617.779.805.333.184.724.275 1.171.275.3 0 .57-.04.813-.12.243-.085.453-.208.631-.37s.313-.362.404-.601l1.922.21a2.875 2.875 0 0 1-.694 1.29c-.337.363-.77.646-1.296.848-.527.199-1.13.298-1.808.298ZM45.77 12.874v4.96H43.71V6.547h2.013v4.26h.103c.204-.477.52-.854.95-1.13.431-.279.98-.418 1.648-.418.606 0 1.135.123 1.586.37.451.245.8.605 1.046 1.08.25.473.376 1.052.376 1.736v5.39h-2.059v-5.082c0-.57-.151-1.012-.454-1.328-.3-.32-.72-.48-1.263-.48-.363 0-.69.078-.978.232-.284.15-.508.37-.67.656-.16.287-.24.634-.24 1.042ZM42.203 9.368v1.543h-5.02V9.368h5.02Zm-3.781-2.029h2.058v7.949c0 .268.042.474.125.617.087.14.201.236.341.287.14.051.296.077.467.077.128 0 .246-.01.352-.027.11-.019.193-.035.25-.05l.347 1.56c-.11.037-.267.077-.472.121-.2.044-.447.07-.74.077a3.45 3.45 0 0 1-1.392-.226 2.154 2.154 0 0 1-.984-.782c-.239-.353-.356-.794-.352-1.323v-8.28ZM28.608 17.835V6.545h7.573V8.26h-5.464v3.065h5.072v1.714h-5.072v3.081h5.51v1.715h-7.619Z"/>
    <g clip-path="url(#etherlink-dark_svg__b)">
      <path fill="#B6FEDA" d="M20.587 20.294c4.568-4.73 4.436-12.267-.293-16.834-4.73-4.567-12.267-4.435-16.834.294-4.567 4.73-4.436 12.266.294 16.833 4.73 4.568 12.266 4.436 16.833-.293Z"/>
      <path fill="#171717" d="M19.012 18.772c3.727-3.86 3.62-10.01-.24-13.736-3.86-3.727-10.01-3.62-13.736.24-3.727 3.859-3.62 10.009.24 13.736 3.859 3.726 10.009 3.62 13.736-.24Z"/>
      <path fill="#B6FEDA" fill-rule="evenodd" d="M17.834 9.16a6.479 6.479 0 0 1-8.47 8.77l1.753-1.814a4.188 4.188 0 0 0 3.921-1.181 4.188 4.188 0 0 0 1.044-3.96l1.752-1.815Zm-3.151-3.043L12.93 7.932a4.188 4.188 0 0 0-3.92 1.18 4.188 4.188 0 0 0-1.044 3.96l-1.753 1.816a6.479 6.479 0 0 1 8.47-8.771ZM6.034 16.17a1.429 1.429 0 0 0 2.055 1.984l2.713-2.809a1.429 1.429 0 0 0-2.055-1.984L6.034 16.17Zm7.145-7.4a1.429 1.429 0 1 0 2.056 1.985l2.712-2.808a1.429 1.429 0 1 0-2.055-1.985L13.179 8.77Z" clip-rule="evenodd"/>
    </g>
  </g>
  <defs>
    <clipPath id="etherlink-dark_svg__a">
      <path fill="#fff" d="M0 0h94v24H0z"/>
    </clipPath>
    <clipPath id="etherlink-dark_svg__b">
      <path fill="#fff" d="M0 0h24v24H0z"/>
    </clipPath>
  </defs>
</svg>
