<?xml version="1.0" encoding="UTF-8" ?>
<svg
	xmlns="http://www.w3.org/2000/svg"
	xmlns:xlink="http://www.w3.org/1999/xlink"
	width="118px"
	height="24px"
	viewBox="0 0 118 24"
	version="1.1"
>
<g id="surface1">
<rect
			x="0"
			y="0"
			width="118"
			height="24"
			style="fill:rgba(0, 0, 255, 0);fill-opacity:1;stroke:none;"
		/>
<path
			style=" stroke:none;fill-rule:nonzero;fill:rgb(77.254902%,77.254902%,77.647059%);fill-opacity:1;"
			d="M 14.101562 0.730469 C 15.113281 0.699219 16.109375 0.898438 17.0625 1.238281 C 16.175781 1.238281 15.425781 0.949219 14.542969 1.136719 C 13.75 1.121094 12.972656 1.152344 12.183594 1.214844 C 11.613281 1.03125 11.101562 1.171875 10.527344 1.234375 C 9.949219 1.304688 9.375 1.40625 8.800781 1.515625 C 8.546875 1.566406 8.296875 1.539062 8.039062 1.519531 C 10.046875 1.09375 12.035156 0.726562 14.101562 0.730469 Z M 14.101562 0.730469 "
		/>
<path
			style=" stroke:none;fill-rule:nonzero;fill:rgb(83.921569%,84.313725%,85.098039%);fill-opacity:1;"
			d="M 12.183594 1.214844 C 9.660156 1.449219 7.183594 2.210938 4.671875 2.484375 C 3.242188 2.617188 1.84375 2.609375 0.46875 2.132812 L 0.488281 2.238281 C 0.527344 2.75 0.695312 3.207031 0.890625 3.675781 C 0.3125 3.214844 0.175781 2.496094 0.0898438 1.800781 C 0.757812 1.964844 1.40625 2.148438 2.097656 2.1875 C 3.613281 2.320312 5.019531 2.066406 6.5 1.800781 C 7.019531 1.707031 7.511719 1.570312 8.039062 1.519531 C 8.296875 1.539062 8.546875 1.566406 8.800781 1.515625 C 9.375 1.40625 9.949219 1.304688 10.527344 1.234375 C 11.101562 1.171875 11.613281 1.03125 12.183594 1.214844 Z M 12.183594 1.214844 "
		/>
<path
			style=" stroke:none;fill-rule:nonzero;fill:rgb(20%,13.72549%,39.215686%);fill-opacity:1;"
			d="M 14.542969 1.136719 C 16.480469 1.273438 18.335938 1.976562 19.832031 3.21875 C 19.644531 3.414062 19.460938 3.609375 19.277344 3.808594 C 17.800781 2.527344 15.945312 1.71875 14 1.523438 C 11.820312 1.296875 9.65625 1.714844 7.519531 2.101562 C 6.5625 2.238281 5.640625 2.460938 4.671875 2.484375 C 7.183594 2.210938 9.660156 1.449219 12.183594 1.214844 C 12.972656 1.152344 13.75 1.121094 14.542969 1.136719 Z M 14.542969 1.136719 "
		/>
<path
			style=" stroke:none;fill-rule:nonzero;fill:rgb(75.686275%,67.45098%,91.372549%);fill-opacity:1;"
			d="M 14.542969 1.136719 C 15.425781 0.949219 16.175781 1.238281 17.0625 1.238281 C 18.273438 1.597656 19.480469 1.996094 20.539062 2.703125 C 20.667969 3.101562 20.984375 3.257812 21.261719 3.539062 C 21.699219 3.949219 21.929688 4.460938 22.230469 4.972656 C 22.628906 5.648438 22.824219 6.425781 22.898438 7.199219 C 22.941406 7.640625 23.027344 8.046875 22.894531 8.480469 C 22.816406 8.128906 22.71875 7.777344 22.617188 7.429688 C 22.367188 6.667969 22.039062 5.921875 21.605469 5.242188 C 21.128906 4.480469 20.527344 3.789062 19.832031 3.21875 C 18.335938 1.976562 16.480469 1.273438 14.542969 1.136719 Z M 14.542969 1.136719 "
		/>
<path
			style=" stroke:none;fill-rule:nonzero;fill:rgb(48.235294%,31.372549%,94.901961%);fill-opacity:1;"
			d="M 14 1.523438 C 15.945312 1.71875 17.800781 2.527344 19.277344 3.808594 L 19.394531 3.910156 C 17.628906 3.890625 15.867188 3.890625 14.101562 3.902344 C 13.664062 3.921875 13.304688 3.699219 12.964844 4.046875 C 12.484375 3.863281 12.003906 3.875 11.5 3.898438 C 9.132812 3.914062 6.765625 3.890625 4.398438 3.902344 C 3.839844 3.882812 3.289062 3.878906 2.738281 3.992188 C 2.804688 4.121094 2.871094 4.246094 2.9375 4.375 C 2.292969 4.128906 1.699219 3.777344 1.226562 3.273438 C 0.9375 2.972656 0.699219 2.601562 0.488281 2.238281 L 0.46875 2.132812 C 1.84375 2.609375 3.242188 2.617188 4.671875 2.484375 C 5.640625 2.460938 6.5625 2.238281 7.519531 2.101562 C 9.65625 1.714844 11.820312 1.296875 14 1.523438 Z M 14 1.523438 "
		/>
<path
			style=" stroke:none;fill-rule:nonzero;fill:rgb(25.882353%,17.254902%,45.882353%);fill-opacity:1;"
			d="M 0.488281 2.238281 C 0.699219 2.601562 0.9375 2.972656 1.226562 3.273438 C 1.699219 3.777344 2.292969 4.128906 2.9375 4.375 C 4.140625 4.832031 5.523438 4.9375 6.800781 4.976562 C 8.648438 5.089844 10.609375 4.984375 12.453125 5.421875 C 12.980469 5.539062 13.476562 5.722656 13.949219 5.984375 C 13.496094 5.90625 13.0625 5.761719 12.613281 5.664062 C 11.484375 5.453125 10.347656 5.40625 9.199219 5.433594 C 8.101562 5.40625 7.003906 5.453125 5.90625 5.421875 C 5.78125 5.40625 5.660156 5.394531 5.535156 5.382812 C 4.351562 5.300781 3.179688 5.242188 2.097656 4.699219 C 1.605469 4.457031 1.253906 4.078125 0.890625 3.675781 C 0.695312 3.207031 0.527344 2.75 0.488281 2.238281 Z M 0.488281 2.238281 "
		/>
<path
			style=" stroke:none;fill-rule:nonzero;fill:rgb(70.588235%,61.568627%,87.843137%);fill-opacity:1;"
			d="M 20.539062 2.703125 C 21.667969 3.414062 22.699219 4.316406 23.5 5.386719 C 23.4375 5.71875 23.476562 6.015625 23.558594 6.335938 C 23.785156 7.242188 23.785156 8.179688 23.585938 9.085938 C 23.410156 9.757812 23.289062 10.414062 23.261719 11.109375 C 23.21875 10.796875 23.164062 10.484375 23.121094 10.167969 C 23.0625 9.601562 22.996094 9.042969 22.894531 8.480469 C 23.027344 8.046875 22.941406 7.640625 22.898438 7.199219 C 22.824219 6.425781 22.628906 5.648438 22.230469 4.972656 C 21.929688 4.460938 21.699219 3.949219 21.261719 3.539062 C 20.984375 3.257812 20.667969 3.101562 20.539062 2.703125 Z M 20.539062 2.703125 "
		/>
<path
			style=" stroke:none;fill-rule:nonzero;fill:rgb(18.039216%,12.156863%,34.509804%);fill-opacity:1;"
			d="M 19.832031 3.21875 C 20.527344 3.789062 21.128906 4.480469 21.605469 5.242188 C 21.390625 5.449219 21.199219 5.675781 21.023438 5.910156 C 20.574219 5.164062 20.050781 4.484375 19.394531 3.910156 L 19.277344 3.808594 C 19.460938 3.609375 19.644531 3.414062 19.832031 3.21875 Z M 19.832031 3.21875 "
		/>
<path
			style=" stroke:none;fill-rule:nonzero;fill:rgb(46.27451%,28.627451%,89.803922%);fill-opacity:1;"
			d="M 14.101562 3.902344 C 15.867188 3.890625 17.628906 3.890625 19.394531 3.910156 C 20.050781 4.484375 20.574219 5.164062 21.023438 5.910156 C 21.074219 5.996094 21.128906 6.085938 21.179688 6.175781 C 20.554688 6.425781 19.980469 6.253906 19.300781 6.28125 C 18.097656 6.304688 16.902344 6.292969 15.699219 6.277344 C 15.328125 6.265625 14.976562 6.320312 14.621094 6.414062 C 14.410156 6.253906 14.183594 6.109375 13.949219 5.984375 C 13.476562 5.722656 12.980469 5.539062 12.453125 5.421875 C 10.609375 4.984375 8.648438 5.089844 6.800781 4.976562 C 5.523438 4.9375 4.140625 4.832031 2.9375 4.375 C 2.871094 4.246094 2.804688 4.121094 2.738281 3.992188 C 3.289062 3.878906 3.839844 3.882812 4.398438 3.902344 C 6.765625 3.890625 9.132812 3.914062 11.5 3.898438 C 12.003906 3.875 12.484375 3.863281 12.964844 4.046875 C 13.304688 3.699219 13.664062 3.921875 14.101562 3.902344 Z M 14.101562 3.902344 "
		/>
<path
			style=" stroke:none;fill-rule:nonzero;fill:rgb(0%,0%,0%);fill-opacity:1;"
			d="M 32.347656 4.867188 C 34.113281 4.644531 35.925781 4.933594 37.355469 6.042969 C 38.71875 7.089844 39.417969 8.738281 39.652344 10.402344 C 39.882812 12.175781 39.757812 14.148438 38.984375 15.785156 C 38.449219 16.945312 37.53125 17.914062 36.378906 18.476562 C 35.171875 19.070312 33.722656 19.195312 32.402344 19.039062 C 30.898438 18.859375 29.480469 18.164062 28.539062 16.960938 C 27.433594 15.554688 27.054688 13.753906 27.050781 12 C 27.042969 10.183594 27.433594 8.335938 28.585938 6.886719 C 29.511719 5.714844 30.886719 5.070312 32.347656 4.867188 Z M 32.347656 4.867188 "
		/>
<path
			style=" stroke:none;fill-rule:nonzero;fill:rgb(0%,0%,0%);fill-opacity:1;"
			d="M 42.730469 5.101562 C 44.054688 5.101562 45.378906 5.101562 46.699219 5.101562 C 47.453125 5.105469 48.246094 5.148438 48.976562 5.34375 C 49.871094 5.578125 50.695312 6.113281 51.203125 6.898438 C 51.535156 7.410156 51.664062 7.996094 51.691406 8.601562 C 51.730469 9.554688 51.554688 10.503906 50.988281 11.292969 C 50.472656 12.027344 49.734375 12.523438 48.914062 12.859375 C 50.628906 14.839844 52.339844 16.824219 54.054688 18.804688 C 53.261719 18.808594 52.472656 18.804688 51.679688 18.808594 C 50.152344 17.007812 48.632812 15.207031 47.105469 13.40625 C 46.253906 13.40625 45.40625 13.40625 44.558594 13.40625 C 44.554688 15.207031 44.558594 17.007812 44.554688 18.804688 C 43.949219 18.804688 43.339844 18.804688 42.730469 18.804688 C 42.730469 14.238281 42.730469 9.667969 42.730469 5.101562 Z M 42.730469 5.101562 "
		/>
<path
			style=" stroke:none;fill-rule:nonzero;fill:rgb(0%,0%,0%);fill-opacity:1;"
			d="M 55.832031 5.101562 C 58.835938 5.101562 61.839844 5.101562 64.84375 5.101562 C 64.84375 5.636719 64.84375 6.171875 64.84375 6.707031 C 62.449219 6.707031 60.050781 6.707031 57.65625 6.707031 C 57.65625 7.972656 57.65625 9.234375 57.65625 10.5 C 60.050781 10.5 62.449219 10.5 64.84375 10.5 C 64.84375 11.035156 64.84375 11.570312 64.84375 12.105469 C 62.449219 12.105469 60.050781 12.105469 57.65625 12.105469 C 57.65625 13.804688 57.65625 15.503906 57.65625 17.199219 C 60.050781 17.199219 62.449219 17.199219 64.84375 17.199219 C 64.84375 17.734375 64.84375 18.269531 64.84375 18.804688 C 61.839844 18.804688 58.835938 18.808594 55.832031 18.804688 C 55.832031 14.238281 55.832031 9.667969 55.832031 5.101562 Z M 55.832031 5.101562 "
		/>
<path
			style=" stroke:none;fill-rule:nonzero;fill:rgb(0%,0%,0%);fill-opacity:1;"
			d="M 67.730469 5.101562 C 68.675781 5.101562 69.617188 5.097656 70.5625 5.101562 C 72.527344 8.824219 74.492188 12.550781 76.460938 16.273438 C 76.464844 12.546875 76.460938 8.824219 76.460938 5.101562 C 77.03125 5.101562 77.601562 5.101562 78.167969 5.101562 C 78.167969 9.667969 78.167969 14.238281 78.167969 18.804688 C 77.417969 18.808594 76.664062 18.804688 75.914062 18.804688 C 73.753906 14.726562 71.597656 10.644531 69.4375 6.5625 C 69.4375 10.644531 69.4375 14.726562 69.4375 18.804688 C 68.867188 18.804688 68.300781 18.804688 67.730469 18.804688 C 67.730469 14.238281 67.730469 9.667969 67.730469 5.101562 Z M 67.730469 5.101562 "
		/>
<path
			style=" stroke:none;fill-rule:nonzero;fill:rgb(0%,0%,0%);fill-opacity:1;"
			d="M 81.257812 5.101562 C 83.054688 5.101562 84.855469 5.101562 86.65625 5.101562 C 86.65625 5.570312 86.65625 6.035156 86.65625 6.507812 C 86.0625 6.507812 85.464844 6.507812 84.867188 6.507812 C 84.867188 10.136719 84.867188 13.769531 84.867188 17.398438 C 85.464844 17.398438 86.0625 17.398438 86.65625 17.398438 C 86.65625 17.867188 86.65625 18.335938 86.65625 18.804688 C 84.855469 18.808594 83.054688 18.804688 81.257812 18.804688 C 81.257812 18.335938 81.257812 17.867188 81.257812 17.398438 C 81.851562 17.398438 82.449219 17.398438 83.042969 17.398438 C 83.042969 13.769531 83.042969 10.136719 83.042969 6.507812 C 82.449219 6.507812 81.851562 6.507812 81.257812 6.507812 C 81.257812 6.035156 81.257812 5.570312 81.257812 5.101562 Z M 81.257812 5.101562 "
		/>
<path
			style=" stroke:none;fill-rule:nonzero;fill:rgb(0%,0%,0%);fill-opacity:1;"
			d="M 89.53125 5.101562 C 90.140625 5.101562 90.746094 5.101562 91.355469 5.101562 C 91.355469 7.867188 91.355469 10.632812 91.355469 13.398438 C 91.363281 14.101562 91.386719 14.886719 91.636719 15.550781 C 91.871094 16.175781 92.253906 16.726562 92.84375 17.058594 C 93.617188 17.5 94.628906 17.554688 95.496094 17.449219 C 96.300781 17.347656 97.050781 17.003906 97.523438 16.320312 C 98.128906 15.453125 98.191406 14.425781 98.203125 13.398438 C 98.210938 10.632812 98.203125 7.867188 98.207031 5.101562 C 98.8125 5.101562 99.421875 5.101562 100.03125 5.101562 C 100.03125 7.800781 100.03125 10.5 100.03125 13.199219 C 100.03125 14.265625 99.933594 15.425781 99.523438 16.421875 C 99.148438 17.34375 98.429688 18.097656 97.542969 18.546875 C 96.707031 18.964844 95.726562 19.101562 94.800781 19.101562 C 93.804688 19.105469 92.800781 18.960938 91.910156 18.488281 C 91.050781 18.039062 90.386719 17.277344 90.019531 16.386719 C 89.648438 15.492188 89.546875 14.460938 89.53125 13.503906 C 89.53125 10.703125 89.53125 7.902344 89.53125 5.101562 Z M 89.53125 5.101562 "
		/>
<path
			style=" stroke:none;fill-rule:nonzero;fill:rgb(0%,0%,0%);fill-opacity:1;"
			d="M 103.53125 5.101562 C 104.359375 5.101562 105.1875 5.101562 106.019531 5.101562 C 107.230469 7.632812 108.445312 10.164062 109.65625 12.695312 C 110.832031 10.164062 112.003906 7.632812 113.179688 5.101562 C 114.023438 5.101562 114.867188 5.101562 115.710938 5.101562 C 115.714844 9.667969 115.714844 14.238281 115.710938 18.804688 C 115.105469 18.804688 114.496094 18.804688 113.886719 18.804688 C 113.886719 14.871094 113.886719 10.9375 113.886719 7.007812 C 112.621094 9.671875 111.355469 12.339844 110.089844 15.007812 C 109.730469 15.007812 109.367188 15.007812 109.007812 15.007812 C 107.75 12.34375 106.496094 9.675781 105.238281 7.011719 C 105.238281 10.941406 105.238281 14.875 105.238281 18.804688 C 104.667969 18.804688 104.101562 18.804688 103.53125 18.804688 C 103.53125 14.238281 103.53125 9.667969 103.53125 5.101562 Z M 103.53125 5.101562 "
		/>
<path
			style=" stroke:none;fill-rule:nonzero;fill:rgb(15.686275%,10.980392%,30.588235%);fill-opacity:1;"
			d="M 21.605469 5.242188 C 22.039062 5.921875 22.367188 6.667969 22.617188 7.429688 C 22.269531 7.539062 22.035156 7.566406 21.953125 7.964844 L 21.9375 8.023438 C 21.753906 7.386719 21.503906 6.753906 21.179688 6.175781 C 21.128906 6.085938 21.074219 5.996094 21.023438 5.910156 C 21.199219 5.675781 21.390625 5.449219 21.605469 5.242188 Z M 21.605469 5.242188 "
		/>
<path
			style=" stroke:none;fill-rule:nonzero;fill:rgb(80%,80.392157%,80.784314%);fill-opacity:1;"
			d="M 5.535156 5.382812 C 5.660156 5.394531 5.78125 5.40625 5.90625 5.421875 L 5.722656 5.667969 C 5.273438 6.335938 4.867188 7.027344 4.546875 7.765625 C 4.476562 7.921875 4.398438 8.078125 4.328125 8.234375 C 3.871094 9.140625 3.578125 10.132812 3.359375 11.117188 C 3.230469 11.699219 3.164062 12.300781 3.101562 12.894531 C 3.066406 13.324219 3.054688 13.761719 3.101562 14.191406 C 3.042969 14.128906 2.988281 14.070312 2.929688 14.011719 C 2.902344 14.3125 2.871094 14.617188 2.859375 14.921875 C 2.8125 14.414062 2.761719 13.914062 2.777344 13.398438 C 2.851562 11.382812 3.371094 9.390625 4.292969 7.597656 C 4.640625 6.816406 5.054688 6.085938 5.535156 5.382812 Z M 5.535156 5.382812 "
		/>
<path
			style=" stroke:none;fill-rule:nonzero;fill:rgb(21.176471%,14.509804%,41.176471%);fill-opacity:1;"
			d="M 9.199219 5.433594 C 10.347656 5.40625 11.484375 5.453125 12.613281 5.664062 C 13.0625 5.761719 13.496094 5.90625 13.949219 5.984375 C 14.183594 6.109375 14.410156 6.253906 14.621094 6.414062 C 15.28125 6.980469 15.738281 7.613281 16.0625 8.425781 C 16.257812 8.917969 16.394531 9.4375 16.464844 9.964844 C 16.484375 10.117188 16.5 10.273438 16.511719 10.429688 L 16.503906 10.425781 C 15.992188 9.210938 15.175781 8.148438 14.070312 7.425781 C 13.699219 7.1875 13.304688 6.992188 12.902344 6.820312 C 12.585938 6.699219 12.261719 6.601562 11.933594 6.511719 C 11.785156 6.472656 11.640625 6.4375 11.492188 6.40625 C 10.945312 6.285156 10.386719 6.21875 9.835938 6.152344 C 9.46875 6.117188 9.105469 6.078125 8.742188 6.054688 C 8.386719 6.027344 8.03125 6.003906 7.675781 5.96875 C 7.199219 5.929688 6.726562 5.875 6.25 5.832031 C 6.074219 5.78125 5.898438 5.722656 5.722656 5.667969 L 5.90625 5.421875 C 7.003906 5.453125 8.101562 5.40625 9.199219 5.433594 Z M 9.199219 5.433594 "
		/>
<path
			style=" stroke:none;fill-rule:nonzero;fill:rgb(63.529412%,54.117647%,83.529412%);fill-opacity:1;"
			d="M 23.5 5.386719 C 24.039062 6.128906 24.574219 6.933594 24.902344 7.796875 C 24.574219 8.378906 24.660156 9.027344 24.507812 9.699219 C 24.253906 10.914062 23.476562 11.746094 23.117188 12.933594 C 23.132812 12.671875 23.125 12.410156 23.117188 12.148438 C 23.121094 11.613281 23.144531 11.078125 23.125 10.550781 C 23.125 10.421875 23.121094 10.296875 23.121094 10.167969 C 23.164062 10.484375 23.21875 10.796875 23.261719 11.109375 C 23.289062 10.414062 23.410156 9.757812 23.585938 9.085938 C 23.785156 8.179688 23.785156 7.242188 23.558594 6.335938 C 23.476562 6.015625 23.4375 5.71875 23.5 5.386719 Z M 23.5 5.386719 "
		/>
<path
			style=" stroke:none;fill-rule:nonzero;fill:rgb(42.745098%,30.980392%,67.058824%);fill-opacity:1;"
			d="M 5.722656 5.667969 C 5.898438 5.722656 6.074219 5.78125 6.25 5.832031 C 6.101562 6.292969 6.128906 6.820312 6.09375 7.300781 C 6.105469 8.304688 6.121094 9.386719 6.417969 10.351562 C 6.582031 10.925781 6.691406 11.492188 7 12.015625 C 7.226562 12.390625 7.199219 12.78125 7.511719 13.089844 C 7.886719 13.480469 8.035156 13.996094 8.40625 14.390625 C 8.882812 14.894531 9.238281 15.402344 9.78125 15.824219 C 10.074219 16.046875 10.363281 16.273438 10.660156 16.492188 C 11.132812 16.84375 11.660156 16.976562 12.066406 17.425781 C 11.628906 17.671875 11.164062 17.875 10.695312 18.035156 C 10.292969 17.9375 10.054688 17.601562 9.742188 17.351562 C 9.554688 17.183594 9.316406 17.140625 9.144531 16.960938 C 8.894531 16.699219 8.621094 16.476562 8.34375 16.25 C 7.542969 15.5 7.09375 14.613281 6.460938 13.746094 C 6.246094 13.382812 6.109375 12.980469 5.863281 12.632812 C 5.5625 12.214844 5.566406 11.742188 5.355469 11.289062 C 5.242188 11.035156 5.222656 10.773438 5.148438 10.507812 C 5.046875 10.261719 4.890625 10.085938 4.890625 9.800781 C 4.851562 9.070312 4.828125 8.328125 4.847656 7.597656 C 4.746094 7.65625 4.648438 7.710938 4.546875 7.765625 C 4.867188 7.027344 5.273438 6.335938 5.722656 5.667969 Z M 5.722656 5.667969 "
		/>
<path
			style=" stroke:none;fill-rule:nonzero;fill:rgb(47.058824%,35.686275%,72.156863%);fill-opacity:1;"
			d="M 6.25 5.832031 C 6.726562 5.875 7.199219 5.929688 7.675781 5.96875 C 7.488281 6.476562 7.476562 6.96875 7.492188 7.5 C 7.402344 8.59375 7.609375 9.722656 7.949219 10.761719 C 8.425781 12.046875 9.15625 13.296875 10.152344 14.246094 C 10.605469 14.738281 11.140625 15.132812 11.707031 15.488281 C 12.28125 15.847656 12.890625 16.082031 13.433594 16.488281 C 13.011719 16.851562 12.546875 17.152344 12.066406 17.425781 C 11.660156 16.976562 11.132812 16.84375 10.660156 16.492188 C 10.363281 16.273438 10.074219 16.046875 9.78125 15.824219 C 9.238281 15.402344 8.882812 14.894531 8.40625 14.390625 C 8.035156 13.996094 7.886719 13.480469 7.511719 13.089844 C 7.199219 12.78125 7.226562 12.390625 7 12.015625 C 6.691406 11.492188 6.582031 10.925781 6.417969 10.351562 C 6.121094 9.386719 6.105469 8.304688 6.09375 7.300781 C 6.128906 6.820312 6.101562 6.292969 6.25 5.832031 Z M 6.25 5.832031 "
		/>
<path
			style=" stroke:none;fill-rule:nonzero;fill:rgb(56.078431%,45.098039%,78.039216%);fill-opacity:1;"
			d="M 7.675781 5.96875 C 8.03125 6.003906 8.386719 6.027344 8.742188 6.054688 C 8.757812 6.574219 8.625 7.078125 8.625 7.601562 C 8.621094 7.996094 8.628906 8.40625 8.695312 8.800781 C 8.914062 10.019531 9.289062 11.1875 9.996094 12.214844 C 10.613281 13.097656 11.386719 13.914062 12.304688 14.484375 C 12.976562 14.964844 13.730469 15.152344 14.453125 15.527344 C 14.144531 15.882812 13.796875 16.191406 13.433594 16.488281 C 12.890625 16.082031 12.28125 15.847656 11.707031 15.488281 C 11.140625 15.132812 10.605469 14.738281 10.152344 14.246094 C 9.15625 13.296875 8.425781 12.046875 7.949219 10.761719 C 7.609375 9.722656 7.402344 8.59375 7.492188 7.5 C 7.476562 6.96875 7.488281 6.476562 7.675781 5.96875 Z M 7.675781 5.96875 "
		/>
<path
			style=" stroke:none;fill-rule:nonzero;fill:rgb(64.313725%,54.901961%,83.921569%);fill-opacity:1;"
			d="M 8.742188 6.054688 C 9.105469 6.078125 9.46875 6.117188 9.835938 6.152344 C 10.03125 6.816406 9.851562 7.429688 9.898438 8.101562 C 9.933594 8.617188 9.914062 9.097656 10.105469 9.589844 C 10.359375 10.261719 10.574219 10.941406 10.988281 11.515625 C 11.328125 11.980469 11.640625 12.449219 12.101562 12.800781 C 12.59375 13.171875 13.019531 13.550781 13.578125 13.820312 C 14.113281 14.105469 14.695312 14.246094 15.246094 14.5 C 15.21875 14.550781 15.1875 14.605469 15.160156 14.65625 C 14.933594 14.957031 14.695312 15.246094 14.453125 15.527344 C 13.730469 15.152344 12.976562 14.964844 12.304688 14.484375 C 11.386719 13.914062 10.613281 13.097656 9.996094 12.214844 C 9.289062 11.1875 8.914062 10.019531 8.695312 8.800781 C 8.628906 8.40625 8.621094 7.996094 8.625 7.601562 C 8.625 7.078125 8.757812 6.574219 8.742188 6.054688 Z M 8.742188 6.054688 "
		/>
<path
			style=" stroke:none;fill-rule:nonzero;fill:rgb(43.529412%,25.098039%,82.745098%);fill-opacity:1;"
			d="M 21.179688 6.175781 C 21.503906 6.753906 21.753906 7.386719 21.9375 8.023438 C 21.910156 8.140625 21.882812 8.261719 21.855469 8.382812 C 19.929688 8.4375 17.992188 8.347656 16.0625 8.425781 C 15.738281 7.613281 15.28125 6.980469 14.621094 6.414062 C 14.976562 6.320312 15.328125 6.265625 15.699219 6.277344 C 16.902344 6.292969 18.097656 6.304688 19.300781 6.28125 C 19.980469 6.253906 20.554688 6.425781 21.179688 6.175781 Z M 21.179688 6.175781 "
		/>
<path
			style=" stroke:none;fill-rule:nonzero;fill:rgb(73.72549%,65.490196%,90.196078%);fill-opacity:1;"
			d="M 9.835938 6.152344 C 10.386719 6.21875 10.945312 6.285156 11.492188 6.40625 C 11.289062 6.625 11.242188 6.820312 11.246094 7.113281 C 11.261719 7.667969 11.203125 8.242188 11.304688 8.789062 C 11.410156 9.183594 11.550781 9.617188 11.707031 9.996094 C 12.238281 11.117188 13.191406 12.042969 14.289062 12.605469 C 14.828125 12.863281 15.40625 12.996094 15.921875 13.3125 C 15.871094 13.425781 15.816406 13.535156 15.761719 13.644531 C 15.597656 13.933594 15.417969 14.214844 15.246094 14.5 C 14.695312 14.246094 14.113281 14.105469 13.578125 13.820312 C 13.019531 13.550781 12.59375 13.171875 12.101562 12.800781 C 11.640625 12.449219 11.328125 11.980469 10.988281 11.515625 C 10.574219 10.941406 10.359375 10.261719 10.105469 9.589844 C 9.914062 9.097656 9.933594 8.617188 9.898438 8.101562 C 9.851562 7.429688 10.03125 6.816406 9.835938 6.152344 Z M 9.835938 6.152344 "
		/>
<path
			style=" stroke:none;fill-rule:nonzero;fill:rgba(0, 0, 255, 0);fill-opacity:1;"
			d="M 32.550781 6.472656 C 33.460938 6.328125 34.46875 6.398438 35.3125 6.792969 C 36.105469 7.160156 36.726562 7.800781 37.136719 8.5625 C 37.648438 9.515625 37.824219 10.628906 37.851562 11.699219 C 37.871094 12.773438 37.761719 13.925781 37.339844 14.925781 C 36.957031 15.84375 36.273438 16.632812 35.375 17.074219 C 34.582031 17.464844 33.667969 17.554688 32.796875 17.460938 C 31.984375 17.371094 31.207031 17.054688 30.59375 16.507812 C 29.898438 15.898438 29.453125 15.082031 29.21875 14.195312 C 28.945312 13.164062 28.90625 12.058594 28.996094 11 C 29.101562 9.820312 29.4375 8.640625 30.234375 7.738281 C 30.828125 7.050781 31.65625 6.613281 32.550781 6.472656 Z M 32.550781 6.472656 "
		/>
<path
			style=" stroke:none;fill-rule:nonzero;fill:rgb(81.176471%,73.72549%,95.294118%);fill-opacity:1;"
			d="M 11.492188 6.40625 C 11.640625 6.4375 11.785156 6.472656 11.933594 6.511719 C 11.992188 7.492188 11.820312 8.359375 12.160156 9.335938 C 12.425781 9.96875 12.773438 10.644531 13.28125 11.117188 C 13.730469 11.546875 14.273438 11.894531 14.839844 12.152344 C 15.3125 12.375 15.777344 12.304688 16.164062 12.703125 C 16.089844 12.910156 16.007812 13.113281 15.921875 13.3125 C 15.40625 12.996094 14.828125 12.863281 14.289062 12.605469 C 13.191406 12.042969 12.238281 11.117188 11.707031 9.996094 C 11.550781 9.617188 11.410156 9.183594 11.304688 8.789062 C 11.203125 8.242188 11.261719 7.667969 11.246094 7.113281 C 11.242188 6.820312 11.289062 6.625 11.492188 6.40625 Z M 11.492188 6.40625 "
		/>
<path
			style=" stroke:none;fill-rule:nonzero;fill:rgb(87.45098%,80.784314%,99.215686%);fill-opacity:1;"
			d="M 11.933594 6.511719 C 12.261719 6.601562 12.585938 6.699219 12.902344 6.820312 C 13.101562 7.753906 12.871094 8.492188 13.269531 9.324219 C 13.578125 10.015625 14.164062 10.476562 14.746094 10.941406 C 15.277344 11.347656 15.859375 11.277344 16.449219 11.578125 L 16.429688 11.71875 C 16.347656 12.050781 16.269531 12.378906 16.164062 12.703125 C 15.777344 12.304688 15.3125 12.375 14.839844 12.152344 C 14.273438 11.894531 13.730469 11.546875 13.28125 11.117188 C 12.773438 10.644531 12.425781 9.96875 12.160156 9.335938 C 11.820312 8.359375 11.992188 7.492188 11.933594 6.511719 Z M 11.933594 6.511719 "
		/>
<path
			style=" stroke:none;fill-rule:nonzero;fill:rgba(0, 0, 255, 0);fill-opacity:1;"
			d="M 44.558594 6.707031 C 45.371094 6.710938 46.183594 6.699219 47 6.710938 C 47.75 6.738281 48.484375 6.824219 49.089844 7.3125 C 49.558594 7.675781 49.757812 8.226562 49.785156 8.800781 C 49.808594 9.355469 49.746094 9.976562 49.472656 10.46875 C 49.140625 11.078125 48.554688 11.503906 47.878906 11.648438 C 46.816406 11.882812 45.644531 11.773438 44.554688 11.800781 C 44.558594 10.101562 44.554688 8.402344 44.558594 6.707031 Z M 44.558594 6.707031 "
		/>
<path
			style=" stroke:none;fill-rule:nonzero;fill:rgb(92.54902%,88.235294%,99.607843%);fill-opacity:1;"
			d="M 12.902344 6.820312 C 13.304688 6.992188 13.699219 7.1875 14.070312 7.425781 C 14.035156 8.234375 14.304688 9.039062 14.871094 9.625 C 15.300781 10.027344 15.964844 10.21875 16.503906 10.425781 L 16.511719 10.429688 C 16.535156 10.816406 16.492188 11.195312 16.449219 11.578125 C 15.859375 11.277344 15.277344 11.347656 14.746094 10.941406 C 14.164062 10.476562 13.578125 10.015625 13.269531 9.324219 C 12.871094 8.492188 13.101562 7.753906 12.902344 6.820312 Z M 12.902344 6.820312 "
		/>
<path
			style=" stroke:none;fill-rule:nonzero;fill:rgb(96.862745%,95.686275%,99.607843%);fill-opacity:1;"
			d="M 14.070312 7.425781 C 15.175781 8.148438 15.992188 9.210938 16.503906 10.425781 C 15.964844 10.21875 15.300781 10.027344 14.871094 9.625 C 14.304688 9.039062 14.035156 8.234375 14.070312 7.425781 Z M 14.070312 7.425781 "
		/>
<path
			style=" stroke:none;fill-rule:nonzero;fill:rgb(13.333333%,9.019608%,25.882353%);fill-opacity:1;"
			d="M 22.617188 7.429688 C 22.71875 7.777344 22.816406 8.128906 22.894531 8.480469 C 22.996094 9.042969 23.0625 9.601562 23.121094 10.167969 C 23.121094 10.296875 23.125 10.421875 23.125 10.550781 C 23.074219 10.3125 23.015625 10.078125 22.960938 9.847656 C 22.828125 9.910156 22.699219 9.980469 22.566406 10.039062 C 22.484375 9.972656 22.402344 9.898438 22.324219 9.828125 C 22.257812 9.191406 22.09375 8.585938 21.953125 7.964844 C 22.035156 7.566406 22.269531 7.539062 22.617188 7.429688 Z M 22.617188 7.429688 "
		/>
<path
			style=" stroke:none;fill-rule:nonzero;fill:rgb(87.058824%,87.45098%,88.235294%);fill-opacity:1;"
			d="M 25.039062 7.414062 C 25.40625 7.957031 25.550781 8.546875 25.734375 9.167969 C 26.066406 10.476562 26.199219 11.871094 26.023438 13.214844 C 26 12.4375 26.09375 11.625 25.929688 10.863281 C 25.847656 11.523438 25.890625 12.167969 25.871094 12.84375 C 25.816406 12.839844 25.765625 12.835938 25.714844 12.828125 C 25.773438 12.058594 25.730469 11.289062 25.632812 10.523438 C 25.539062 9.667969 25.277344 8.871094 24.996094 8.0625 C 24.996094 7.847656 25.019531 7.632812 25.039062 7.414062 Z M 25.039062 7.414062 "
		/>
<path
			style=" stroke:none;fill-rule:nonzero;fill:rgb(39.215686%,27.843137%,62.745098%);fill-opacity:1;"
			d="M 4.847656 7.597656 C 4.828125 8.328125 4.851562 9.070312 4.890625 9.800781 C 4.890625 10.085938 5.046875 10.261719 5.148438 10.507812 C 5.222656 10.773438 5.242188 11.035156 5.355469 11.289062 C 5.566406 11.742188 5.5625 12.214844 5.863281 12.632812 C 6.109375 12.980469 6.246094 13.382812 6.460938 13.746094 C 7.09375 14.613281 7.542969 15.5 8.34375 16.25 C 8.621094 16.476562 8.894531 16.699219 9.144531 16.960938 C 9.316406 17.140625 9.554688 17.183594 9.742188 17.351562 C 10.054688 17.601562 10.292969 17.9375 10.695312 18.035156 C 10.296875 18.175781 9.898438 18.230469 9.480469 18.234375 C 8.921875 17.953125 8.382812 17.703125 7.898438 17.300781 C 6.914062 16.480469 6.246094 15.421875 5.746094 14.253906 C 4.933594 12.335938 4.605469 10.339844 4.460938 8.269531 L 4.367188 8.429688 L 4.328125 8.234375 C 4.398438 8.078125 4.476562 7.921875 4.546875 7.765625 C 4.648438 7.710938 4.746094 7.65625 4.847656 7.597656 Z M 4.847656 7.597656 "
		/>
<path
			style=" stroke:none;fill-rule:nonzero;fill:rgb(56.862745%,45.882353%,78.823529%);fill-opacity:1;"
			d="M 24.902344 7.796875 L 24.996094 8.0625 C 25.277344 8.871094 25.539062 9.667969 25.632812 10.523438 C 25.566406 10.386719 25.496094 10.253906 25.425781 10.121094 C 25.191406 10.964844 24.898438 11.769531 24.40625 12.5 C 23.953125 13.15625 23.539062 13.789062 22.941406 14.324219 C 23.027344 13.863281 23.058594 13.398438 23.117188 12.933594 C 23.476562 11.746094 24.253906 10.914062 24.507812 9.699219 C 24.660156 9.027344 24.574219 8.378906 24.902344 7.796875 Z M 24.902344 7.796875 "
		/>
<path
			style=" stroke:none;fill-rule:nonzero;fill:rgb(41.568627%,22.745098%,78.039216%);fill-opacity:1;"
			d="M 21.9375 8.023438 L 21.953125 7.964844 C 22.09375 8.585938 22.257812 9.191406 22.324219 9.828125 C 22.347656 10.015625 22.363281 10.203125 22.378906 10.390625 C 22.335938 10.453125 22.292969 10.515625 22.25 10.578125 C 22.195312 10.359375 22.140625 10.136719 22.089844 9.917969 C 21.09375 9.863281 20.09375 9.90625 19.101562 9.898438 C 18.195312 9.914062 17.355469 9.832031 16.464844 9.964844 C 16.394531 9.4375 16.257812 8.917969 16.0625 8.425781 C 17.992188 8.347656 19.929688 8.4375 21.855469 8.382812 C 21.882812 8.261719 21.910156 8.140625 21.9375 8.023438 Z M 21.9375 8.023438 "
		/>
<path
			style=" stroke:none;fill-rule:nonzero;fill:rgb(40.784314%,21.568627%,75.686275%);fill-opacity:1;"
			d="M 4.328125 8.234375 L 4.367188 8.429688 C 4.34375 8.605469 4.320312 8.777344 4.296875 8.953125 C 4.152344 9.5 4.082031 10.054688 4.027344 10.617188 C 3.714844 10.679688 3.542969 10.871094 3.359375 11.117188 C 3.578125 10.132812 3.871094 9.140625 4.328125 8.234375 Z M 4.328125 8.234375 "
		/>
<path
			style=" stroke:none;fill-rule:nonzero;fill:rgb(21.568627%,14.901961%,41.568627%);fill-opacity:1;"
			d="M 4.460938 8.269531 C 4.605469 10.339844 4.933594 12.335938 5.746094 14.253906 C 6.246094 15.421875 6.914062 16.480469 7.898438 17.300781 C 8.382812 17.703125 8.921875 17.953125 9.480469 18.234375 C 9.195312 18.265625 8.886719 18.332031 8.601562 18.285156 C 7.867188 18.160156 7.265625 17.820312 6.632812 17.453125 C 5.90625 16.886719 5.433594 16.132812 5.046875 15.3125 C 4.632812 14.414062 4.46875 13.355469 4.324219 12.382812 C 4.179688 11.230469 4.300781 10.101562 4.296875 8.953125 C 4.320312 8.777344 4.34375 8.605469 4.367188 8.429688 Z M 4.460938 8.269531 "
		/>
<path
			style=" stroke:none;fill-rule:nonzero;fill:rgb(11.764706%,12.54902%,60.784314%);fill-opacity:1;"
			d="M 4.296875 8.953125 C 4.300781 10.101562 4.179688 11.230469 4.324219 12.382812 C 4.316406 12.582031 4.296875 12.777344 4.277344 12.972656 C 4.167969 12.957031 4.058594 12.941406 3.949219 12.925781 C 3.9375 12.15625 3.953125 11.386719 4.027344 10.617188 C 4.082031 10.054688 4.152344 9.5 4.296875 8.953125 Z M 4.296875 8.953125 "
		/>
<path
			style=" stroke:none;fill-rule:nonzero;fill:rgb(10.588235%,7.058824%,20%);fill-opacity:1;"
			d="M 22.324219 9.828125 C 22.402344 9.898438 22.484375 9.972656 22.566406 10.039062 C 22.699219 9.980469 22.828125 9.910156 22.960938 9.847656 C 23.015625 10.078125 23.074219 10.3125 23.125 10.550781 C 23.144531 11.078125 23.121094 11.613281 23.117188 12.148438 C 23.003906 12.589844 22.945312 13.046875 22.847656 13.492188 C 22.644531 13.238281 22.472656 12.976562 22.347656 12.675781 C 22.351562 12.542969 22.359375 12.410156 22.367188 12.277344 C 22.441406 11.640625 22.445312 11.027344 22.378906 10.390625 C 22.363281 10.203125 22.347656 10.015625 22.324219 9.828125 Z M 22.324219 9.828125 "
		/>
<path
			style=" stroke:none;fill-rule:nonzero;fill:rgb(40%,20.392157%,73.333333%);fill-opacity:1;"
			d="M 19.101562 9.898438 C 20.09375 9.90625 21.09375 9.863281 22.089844 9.917969 C 22.140625 10.136719 22.195312 10.359375 22.25 10.578125 C 22.292969 10.515625 22.335938 10.453125 22.378906 10.390625 C 22.445312 11.027344 22.441406 11.640625 22.367188 12.277344 C 22.324219 12.386719 22.28125 12.492188 22.238281 12.601562 C 22.214844 12.375 22.191406 12.144531 22.167969 11.917969 C 21.082031 11.855469 19.988281 11.90625 18.898438 11.890625 C 18.148438 11.871094 17.410156 11.9375 16.660156 11.878906 C 16.625 11.753906 16.585938 11.628906 16.546875 11.503906 C 16.507812 11.574219 16.46875 11.648438 16.429688 11.71875 L 16.449219 11.578125 C 16.492188 11.195312 16.535156 10.816406 16.511719 10.429688 C 16.5 10.273438 16.484375 10.117188 16.464844 9.964844 C 17.355469 9.832031 18.195312 9.914062 19.101562 9.898438 Z M 19.101562 9.898438 "
		/>
<path
			style=" stroke:none;fill-rule:nonzero;fill:rgb(47.45098%,36.078431%,72.156863%);fill-opacity:1;"
			d="M 25.425781 10.121094 C 25.496094 10.253906 25.566406 10.386719 25.632812 10.523438 C 25.730469 11.289062 25.773438 12.058594 25.714844 12.828125 C 25.667969 13.367188 25.609375 13.902344 25.476562 14.429688 C 25.445312 14.320312 25.410156 14.210938 25.378906 14.101562 C 24.941406 14.5625 24.589844 15.113281 24.097656 15.503906 C 23.5 15.988281 22.914062 16.488281 22.316406 16.972656 L 22.253906 16.773438 C 22.570312 15.984375 22.78125 15.160156 22.941406 14.324219 C 23.539062 13.789062 23.953125 13.15625 24.40625 12.5 C 24.898438 11.769531 25.191406 10.964844 25.425781 10.121094 Z M 25.425781 10.121094 "
		/>
<path
			style=" stroke:none;fill-rule:nonzero;fill:rgb(38.823529%,19.215686%,70.588235%);fill-opacity:1;"
			d="M 4.027344 10.617188 C 3.953125 11.386719 3.9375 12.15625 3.949219 12.925781 C 3.953125 13.128906 3.960938 13.328125 3.972656 13.527344 C 3.925781 13.257812 3.910156 12.9375 3.789062 12.695312 C 3.507812 12.484375 3.335938 12.761719 3.101562 12.894531 C 3.164062 12.300781 3.230469 11.699219 3.359375 11.117188 C 3.542969 10.871094 3.714844 10.679688 4.027344 10.617188 Z M 4.027344 10.617188 "
		/>
<path
			style=" stroke:none;fill-rule:nonzero;fill:rgb(82.745098%,83.137255%,83.529412%);fill-opacity:1;"
			d="M 25.929688 10.863281 C 26.09375 11.625 26 12.4375 26.023438 13.214844 C 25.847656 14.90625 25.269531 16.570312 24.363281 18.007812 C 24.257812 17.96875 24.152344 17.929688 24.042969 17.898438 L 24.191406 17.664062 C 24.789062 16.664062 25.226562 15.5625 25.476562 14.429688 C 25.609375 13.902344 25.667969 13.367188 25.714844 12.828125 C 25.765625 12.835938 25.816406 12.839844 25.871094 12.84375 C 25.890625 12.167969 25.847656 11.523438 25.929688 10.863281 Z M 25.929688 10.863281 "
		/>
<path
			style=" stroke:none;fill-rule:nonzero;fill:rgb(37.254902%,17.647059%,67.45098%);fill-opacity:1;"
			d="M 16.546875 11.503906 C 16.585938 11.628906 16.625 11.753906 16.660156 11.878906 C 17.410156 11.9375 18.148438 11.871094 18.898438 11.890625 C 19.988281 11.90625 21.082031 11.855469 22.167969 11.917969 C 22.191406 12.144531 22.214844 12.375 22.238281 12.601562 C 22.28125 12.492188 22.324219 12.386719 22.367188 12.277344 C 22.359375 12.410156 22.351562 12.542969 22.347656 12.675781 C 22.324219 13.121094 22.21875 13.578125 22.125 14.019531 C 22.066406 13.9375 22.007812 13.855469 21.945312 13.773438 C 20.230469 13.832031 18.515625 13.785156 16.800781 13.804688 C 16.417969 13.8125 16.117188 13.777344 15.761719 13.644531 C 15.816406 13.535156 15.871094 13.425781 15.921875 13.3125 C 16.007812 13.113281 16.089844 12.910156 16.164062 12.703125 C 16.269531 12.378906 16.347656 12.050781 16.429688 11.71875 C 16.46875 11.648438 16.507812 11.574219 16.546875 11.503906 Z M 16.546875 11.503906 "
		/>
<path
			style=" stroke:none;fill-rule:nonzero;fill:rgb(21.568627%,14.901961%,41.568627%);fill-opacity:1;"
			d="M 23.117188 12.148438 C 23.125 12.410156 23.132812 12.671875 23.117188 12.933594 C 23.058594 13.398438 23.027344 13.863281 22.941406 14.324219 C 22.78125 15.160156 22.570312 15.984375 22.253906 16.773438 C 21.878906 17.636719 21.460938 18.472656 20.933594 19.253906 C 20.597656 19.683594 20.277344 20.128906 19.921875 20.546875 C 19.390625 21.046875 18.90625 21.570312 18.316406 22.019531 C 18.050781 22.21875 17.800781 22.433594 17.554688 22.65625 C 16.199219 23.0625 14.734375 23.140625 13.339844 22.957031 C 13.960938 22.679688 14.632812 22.605469 15.265625 22.359375 C 15.539062 22.257812 15.800781 22.128906 16.0625 22.003906 C 16.515625 21.800781 16.957031 21.578125 17.375 21.308594 C 17.949219 20.992188 18.46875 20.59375 18.949219 20.148438 C 20.917969 18.402344 22.253906 16.050781 22.847656 13.492188 C 22.945312 13.046875 23.003906 12.589844 23.117188 12.148438 Z M 23.117188 12.148438 "
		/>
<path
			style=" stroke:none;fill-rule:nonzero;fill:rgb(16.078431%,13.333333%,53.72549%);fill-opacity:1;"
			d="M 4.324219 12.382812 C 4.46875 13.355469 4.632812 14.414062 5.046875 15.3125 C 4.882812 15.558594 4.691406 15.730469 4.453125 15.902344 C 4.25 15.304688 4.148438 14.703125 4.046875 14.082031 C 4.023438 13.894531 3.996094 13.710938 3.972656 13.527344 C 3.960938 13.328125 3.953125 13.128906 3.949219 12.925781 C 4.058594 12.941406 4.167969 12.957031 4.277344 12.972656 C 4.296875 12.777344 4.316406 12.582031 4.324219 12.382812 Z M 4.324219 12.382812 "
		/>
<path
			style=" stroke:none;fill-rule:nonzero;fill:rgb(36.470588%,16.470588%,65.490196%);fill-opacity:1;"
			d="M 3.789062 12.695312 C 3.910156 12.9375 3.925781 13.257812 3.972656 13.527344 C 3.996094 13.710938 4.023438 13.894531 4.046875 14.082031 C 4.023438 14.183594 3.996094 14.28125 3.972656 14.382812 C 3.761719 14.378906 3.550781 14.375 3.339844 14.371094 C 3.3125 14.476562 3.285156 14.578125 3.257812 14.683594 C 3.207031 14.519531 3.148438 14.355469 3.101562 14.191406 C 3.054688 13.761719 3.066406 13.324219 3.101562 12.894531 C 3.335938 12.761719 3.507812 12.484375 3.789062 12.695312 Z M 3.789062 12.695312 "
		/>
<path
			style=" stroke:none;fill-rule:nonzero;fill:rgb(6.27451%,4.313725%,12.156863%);fill-opacity:1;"
			d="M 22.347656 12.675781 C 22.472656 12.976562 22.644531 13.238281 22.847656 13.492188 C 22.253906 16.050781 20.917969 18.402344 18.949219 20.148438 C 18.46875 20.59375 17.949219 20.992188 17.375 21.308594 C 17.726562 21 18.089844 20.703125 18.433594 20.382812 C 18.992188 19.863281 19.515625 19.304688 19.960938 18.683594 C 20.199219 18.363281 20.425781 18.03125 20.632812 17.691406 C 20.976562 17.105469 21.285156 16.5 21.539062 15.871094 C 21.78125 15.265625 21.988281 14.65625 22.125 14.019531 C 22.21875 13.578125 22.324219 13.121094 22.347656 12.675781 Z M 22.347656 12.675781 "
		/>
<path
			style=" stroke:none;fill-rule:nonzero;fill:rgb(35.294118%,15.294118%,62.352941%);fill-opacity:1;"
			d="M 15.761719 13.644531 C 16.117188 13.777344 16.417969 13.8125 16.800781 13.804688 C 18.515625 13.785156 20.230469 13.832031 21.945312 13.773438 C 22.007812 13.855469 22.066406 13.9375 22.125 14.019531 C 21.988281 14.65625 21.78125 15.265625 21.539062 15.871094 C 21.203125 15.695312 20.851562 15.683594 20.480469 15.648438 C 20.828125 15.621094 21.175781 15.578125 21.519531 15.542969 C 21.238281 15.503906 20.984375 15.449219 20.703125 15.519531 C 20.332031 15.613281 19.992188 15.738281 19.601562 15.710938 C 18.773438 15.664062 17.949219 15.734375 17.125 15.691406 L 17.125 15.609375 C 17.917969 15.574219 18.707031 15.59375 19.5 15.609375 C 19.746094 15.621094 19.988281 15.585938 20.230469 15.542969 C 19.679688 15.460938 19.148438 15.507812 18.601562 15.503906 C 17.664062 15.511719 16.734375 15.480469 15.800781 15.515625 C 15.425781 15.535156 15.152344 15.484375 14.8125 15.339844 C 14.960938 15.128906 15.0625 14.894531 15.160156 14.65625 C 15.1875 14.605469 15.21875 14.550781 15.246094 14.5 C 15.417969 14.214844 15.597656 13.933594 15.761719 13.644531 Z M 15.761719 13.644531 "
		/>
<path
			style=" stroke:none;fill-rule:nonzero;fill:rgb(77.647059%,77.647059%,78.039216%);fill-opacity:1;"
			d="M 2.929688 14.011719 C 2.988281 14.070312 3.042969 14.128906 3.101562 14.191406 C 3.15625 15.074219 3.265625 15.949219 3.519531 16.800781 C 3.679688 17.34375 3.867188 17.871094 4.121094 18.378906 C 4.488281 19.097656 4.945312 19.796875 5.515625 20.371094 C 6.34375 21.226562 7.355469 21.890625 8.460938 22.324219 C 9.273438 22.648438 10.128906 22.839844 11 22.929688 C 11.78125 23 12.554688 22.898438 13.339844 22.957031 C 14.734375 23.140625 16.199219 23.0625 17.554688 22.65625 C 17.757812 22.601562 17.964844 22.550781 18.167969 22.488281 C 18.226562 22.570312 18.285156 22.652344 18.34375 22.734375 C 16.78125 23.265625 15.117188 23.460938 13.480469 23.261719 C 12.652344 23.15625 11.832031 23.292969 11 23.210938 C 8.609375 23.035156 6.222656 21.859375 4.746094 19.953125 C 3.621094 18.492188 3.054688 16.742188 2.859375 14.921875 C 2.871094 14.617188 2.902344 14.3125 2.929688 14.011719 Z M 2.929688 14.011719 "
		/>
<path
			style=" stroke:none;fill-rule:nonzero;fill:rgb(34.509804%,14.117647%,60.784314%);fill-opacity:1;"
			d="M 4.046875 14.082031 C 4.148438 14.703125 4.25 15.304688 4.453125 15.902344 C 4.511719 16.066406 4.570312 16.230469 4.632812 16.390625 L 4.589844 16.523438 C 4.363281 16.476562 4.128906 16.386719 3.898438 16.390625 C 3.65625 16.378906 3.632812 16.640625 3.519531 16.800781 C 3.265625 15.949219 3.15625 15.074219 3.101562 14.191406 C 3.148438 14.355469 3.207031 14.519531 3.257812 14.683594 C 3.285156 14.578125 3.3125 14.476562 3.339844 14.371094 C 3.550781 14.375 3.761719 14.378906 3.972656 14.382812 C 3.996094 14.28125 4.023438 14.183594 4.046875 14.082031 Z M 4.046875 14.082031 "
		/>
<path
			style=" stroke:none;fill-rule:nonzero;fill:rgb(41.960784%,30.588235%,66.27451%);fill-opacity:1;"
			d="M 25.378906 14.101562 C 25.410156 14.210938 25.445312 14.320312 25.476562 14.429688 C 25.226562 15.5625 24.789062 16.664062 24.191406 17.664062 C 24.035156 17.667969 23.851562 17.613281 23.71875 17.710938 C 22.882812 18.355469 21.890625 18.816406 20.933594 19.253906 C 21.460938 18.472656 21.878906 17.636719 22.253906 16.773438 L 22.316406 16.972656 C 22.914062 16.488281 23.5 15.988281 24.097656 15.503906 C 24.589844 15.113281 24.941406 14.5625 25.378906 14.101562 Z M 25.378906 14.101562 "
		/>
<path
			style=" stroke:none;fill-rule:nonzero;fill:rgb(20.784314%,14.509804%,43.921569%);fill-opacity:1;"
			d="M 15.160156 14.65625 C 15.0625 14.894531 14.960938 15.128906 14.8125 15.339844 C 14.171875 16.125 13.519531 16.886719 12.734375 17.535156 C 12.238281 17.898438 11.753906 18.269531 11.21875 18.570312 C 10.257812 19.03125 9.289062 19.425781 8.195312 19.304688 C 7.296875 19.191406 6.585938 18.746094 5.867188 18.226562 C 5.691406 18.039062 5.523438 17.84375 5.367188 17.640625 C 5.40625 17.5625 5.445312 17.488281 5.484375 17.410156 C 5.863281 17.40625 6.253906 17.398438 6.632812 17.453125 C 7.265625 17.820312 7.867188 18.160156 8.601562 18.285156 C 8.886719 18.332031 9.195312 18.265625 9.480469 18.234375 C 9.898438 18.230469 10.296875 18.175781 10.695312 18.035156 C 11.164062 17.875 11.628906 17.671875 12.066406 17.425781 C 12.546875 17.152344 13.011719 16.851562 13.433594 16.488281 C 13.796875 16.191406 14.144531 15.882812 14.453125 15.527344 C 14.695312 15.246094 14.933594 14.957031 15.160156 14.65625 Z M 15.160156 14.65625 "
		/>
<path
			style=" stroke:none;fill-rule:nonzero;fill:rgb(18.823529%,14.117647%,48.235294%);fill-opacity:1;"
			d="M 5.046875 15.3125 C 5.433594 16.132812 5.90625 16.886719 6.632812 17.453125 C 6.253906 17.398438 5.863281 17.40625 5.484375 17.410156 C 5.445312 17.488281 5.40625 17.5625 5.367188 17.640625 C 5.074219 17.257812 4.835938 16.828125 4.632812 16.390625 C 4.570312 16.230469 4.511719 16.066406 4.453125 15.902344 C 4.691406 15.730469 4.882812 15.558594 5.046875 15.3125 Z M 5.046875 15.3125 "
		/>
<path
			style=" stroke:none;fill-rule:nonzero;fill:rgb(33.333333%,12.54902%,57.254902%);fill-opacity:1;"
			d="M 14.8125 15.339844 C 15.152344 15.484375 15.425781 15.535156 15.800781 15.515625 C 16.734375 15.480469 17.664062 15.511719 18.601562 15.503906 C 19.148438 15.507812 19.679688 15.460938 20.230469 15.542969 C 19.988281 15.585938 19.746094 15.621094 19.5 15.609375 C 18.707031 15.59375 17.917969 15.574219 17.125 15.609375 L 17.125 15.691406 C 17.949219 15.734375 18.773438 15.664062 19.601562 15.710938 C 19.992188 15.738281 20.332031 15.613281 20.703125 15.519531 C 20.984375 15.449219 21.238281 15.503906 21.519531 15.542969 C 21.175781 15.578125 20.828125 15.621094 20.480469 15.648438 C 20.851562 15.683594 21.203125 15.695312 21.539062 15.871094 C 21.285156 16.5 20.976562 17.105469 20.632812 17.691406 C 19.816406 17.40625 19.039062 17.507812 18.199219 17.496094 C 17.199219 17.492188 16.199219 17.5 15.199219 17.492188 C 14.359375 17.472656 13.578125 17.714844 12.734375 17.535156 C 13.519531 16.886719 14.171875 16.125 14.8125 15.339844 Z M 14.8125 15.339844 "
		/>
<path
			style=" stroke:none;fill-rule:nonzero;fill:rgb(32.156863%,11.372549%,55.294118%);fill-opacity:1;"
			d="M 3.898438 16.390625 C 4.128906 16.386719 4.363281 16.476562 4.589844 16.523438 L 4.632812 16.390625 C 4.835938 16.828125 5.074219 17.257812 5.367188 17.640625 C 5.523438 17.84375 5.691406 18.039062 5.867188 18.226562 C 5.285156 18.292969 4.703125 18.277344 4.121094 18.378906 C 3.867188 17.871094 3.679688 17.34375 3.519531 16.800781 C 3.632812 16.640625 3.65625 16.378906 3.898438 16.390625 Z M 3.898438 16.390625 "
		/>
<path
			style=" stroke:none;fill-rule:nonzero;fill:rgb(31.372549%,10.588235%,53.333333%);fill-opacity:1;"
			d="M 12.734375 17.535156 C 13.578125 17.714844 14.359375 17.472656 15.199219 17.492188 C 16.199219 17.5 17.199219 17.492188 18.199219 17.496094 C 19.039062 17.507812 19.816406 17.40625 20.632812 17.691406 C 20.425781 18.03125 20.199219 18.363281 19.960938 18.683594 C 19.464844 18.496094 19.023438 18.617188 18.5 18.605469 C 16.566406 18.589844 14.632812 18.605469 12.699219 18.601562 C 12.203125 18.566406 11.710938 18.625 11.21875 18.570312 C 11.753906 18.269531 12.238281 17.898438 12.734375 17.535156 Z M 12.734375 17.535156 "
		/>
<path
			style=" stroke:none;fill-rule:nonzero;fill:rgb(38.039216%,27.058824%,61.176471%);fill-opacity:1;"
			d="M 24.191406 17.664062 L 24.042969 17.898438 C 23.621094 18.546875 23.15625 19.167969 22.601562 19.714844 C 22.660156 19.566406 22.714844 19.421875 22.769531 19.273438 C 22.308594 19.527344 21.886719 19.804688 21.398438 20 C 20.910156 20.1875 20.425781 20.386719 19.921875 20.546875 C 20.277344 20.128906 20.597656 19.683594 20.933594 19.253906 C 21.890625 18.816406 22.882812 18.355469 23.71875 17.710938 C 23.851562 17.613281 24.035156 17.667969 24.191406 17.664062 Z M 24.191406 17.664062 "
		/>
<path
			style=" stroke:none;fill-rule:nonzero;fill:rgb(79.607843%,80%,80.392157%);fill-opacity:1;"
			d="M 24.042969 17.898438 C 24.152344 17.929688 24.257812 17.96875 24.363281 18.007812 C 22.972656 20.21875 20.828125 21.925781 18.34375 22.734375 C 18.285156 22.652344 18.226562 22.570312 18.167969 22.488281 C 19.835938 21.9375 21.382812 20.980469 22.601562 19.714844 C 23.15625 19.167969 23.621094 18.546875 24.042969 17.898438 Z M 24.042969 17.898438 "
		/>
<path
			style=" stroke:none;fill-rule:nonzero;fill:rgb(30.196078%,8.627451%,49.411765%);fill-opacity:1;"
			d="M 5.867188 18.226562 C 6.585938 18.746094 7.296875 19.191406 8.195312 19.304688 C 9.289062 19.425781 10.257812 19.03125 11.21875 18.570312 C 11.710938 18.625 12.203125 18.566406 12.699219 18.601562 C 14.632812 18.605469 16.566406 18.589844 18.5 18.605469 C 19.023438 18.617188 19.464844 18.496094 19.960938 18.683594 C 19.515625 19.304688 18.992188 19.863281 18.433594 20.382812 C 18.019531 20.214844 17.644531 20.167969 17.199219 20.191406 C 15.898438 20.238281 14.578125 20.125 13.28125 20.261719 C 12.78125 20.296875 12.304688 20.1875 11.800781 20.191406 C 10.867188 20.199219 9.933594 20.191406 9 20.203125 C 8.242188 20.214844 7.496094 20.152344 6.738281 20.246094 C 6.289062 20.300781 5.929688 20.167969 5.515625 20.371094 C 4.945312 19.796875 4.488281 19.097656 4.121094 18.378906 C 4.703125 18.277344 5.285156 18.292969 5.867188 18.226562 Z M 5.867188 18.226562 "
		/>
<path
			style=" stroke:none;fill-rule:nonzero;fill:rgb(34.509804%,23.529412%,56.862745%);fill-opacity:1;"
			d="M 22.769531 19.273438 C 22.714844 19.421875 22.660156 19.566406 22.601562 19.714844 C 21.382812 20.980469 19.835938 21.9375 18.167969 22.488281 C 17.964844 22.550781 17.757812 22.601562 17.554688 22.65625 C 17.800781 22.433594 18.050781 22.21875 18.316406 22.019531 C 18.90625 21.570312 19.390625 21.046875 19.921875 20.546875 C 20.425781 20.386719 20.910156 20.1875 21.398438 20 C 21.886719 19.804688 22.308594 19.527344 22.769531 19.273438 Z M 22.769531 19.273438 "
		/>
<path
			style=" stroke:none;fill-rule:nonzero;fill:rgb(28.627451%,6.666667%,45.490196%);fill-opacity:1;"
			d="M 6.738281 20.246094 C 7.496094 20.152344 8.242188 20.214844 9 20.203125 C 9.933594 20.191406 10.867188 20.199219 11.800781 20.191406 C 12.304688 20.1875 12.78125 20.296875 13.28125 20.261719 C 14.578125 20.125 15.898438 20.238281 17.199219 20.191406 C 17.644531 20.167969 18.019531 20.214844 18.433594 20.382812 C 18.089844 20.703125 17.726562 21 17.375 21.308594 C 16.957031 21.578125 16.515625 21.800781 16.0625 22.003906 C 15.511719 21.855469 14.964844 21.890625 14.398438 21.898438 C 12.933594 21.890625 11.46875 21.894531 10 21.898438 C 9.429688 21.898438 8.882812 21.875 8.3125 21.949219 C 8.359375 22.078125 8.410156 22.203125 8.460938 22.324219 C 7.355469 21.890625 6.34375 21.226562 5.515625 20.371094 C 5.929688 20.167969 6.289062 20.300781 6.738281 20.246094 Z M 6.738281 20.246094 "
		/>
<path
			style=" stroke:none;fill-rule:nonzero;fill:rgb(26.666667%,4.705882%,41.568627%);fill-opacity:1;"
			d="M 8.3125 21.949219 C 8.882812 21.875 9.429688 21.898438 10 21.898438 C 11.46875 21.894531 12.933594 21.890625 14.398438 21.898438 C 14.964844 21.890625 15.511719 21.855469 16.0625 22.003906 C 15.800781 22.128906 15.539062 22.257812 15.265625 22.359375 C 14.632812 22.605469 13.960938 22.679688 13.339844 22.957031 C 12.554688 22.898438 11.78125 23 11 22.929688 C 10.128906 22.839844 9.273438 22.648438 8.460938 22.324219 C 8.410156 22.203125 8.359375 22.078125 8.3125 21.949219 Z M 8.3125 21.949219 "
		/>
</g>
</svg>
