<svg xmlns="http://www.w3.org/2000/svg" fill="none" viewBox="0 0 30 30">
  <g clip-path="url(#etherlink-dark_svg__a)">
    <path fill="#B6FEDA" d="M25.734 25.367c5.71-5.912 5.545-15.333-.367-21.042-5.912-5.709-15.333-5.544-21.042.368-5.709 5.911-5.544 15.332.367 21.041 5.912 5.71 15.333 5.545 21.042-.367Z"/>
    <path fill="#171717" d="M23.765 23.465c4.658-4.824 4.524-12.511-.3-17.17-4.824-4.659-12.511-4.524-17.17.3-4.659 4.824-4.525 12.511.3 17.17 4.824 4.658 12.511 4.524 17.17-.3Z"/>
    <path fill="#B6FEDA" fill-rule="evenodd" d="M22.293 11.45a8.099 8.099 0 0 1-10.587 10.963l2.19-2.268a5.235 5.235 0 0 0 4.902-1.477 5.235 5.235 0 0 0 1.304-4.95l2.19-2.268Zm-3.94-3.804-2.19 2.269a5.235 5.235 0 0 0-4.901 1.476 5.235 5.235 0 0 0-1.305 4.95l-2.19 2.268A8.099 8.099 0 0 1 18.353 7.646ZM7.543 20.212a1.786 1.786 0 0 0 2.569 2.48l3.39-3.51a1.786 1.786 0 0 0-2.569-2.481l-3.39 3.51Zm8.931-9.249a1.786 1.786 0 1 0 2.57 2.481l3.39-3.51a1.786 1.786 0 1 0-2.57-2.482l-3.39 3.511Z" clip-rule="evenodd"/>
  </g>
  <defs>
    <clipPath id="etherlink-dark_svg__a">
      <path fill="#fff" d="M0 0h30v30H0z"/>
    </clipPath>
  </defs>
</svg>
