<svg xmlns="http://www.w3.org/2000/svg" viewBox="0 0 30 30">
  <path d="M0 0h30v30H0z" style="fill:transparent;fill-opacity:1;stroke:none"/>
  <path d="M16.98 3.36c.23.011.508-.04.727.05l-.074.02c-.54-.028-1.086.011-1.625-.024.305-.094.656-.027.972-.047Zm0 0" style="stroke:none;fill-rule:nonzero;fill:#e0d8f2;fill-opacity:1"/>
  <path d="M16.008 3.406c.539.035 1.086-.004 1.625.024.176.086.37.047.555.035-.141.215.023.172.167.262-.636-.094-1.27-.215-1.914-.25-.351 0-.691.02-1.035-.016.203-.059.39-.035.602-.055Zm0 0" style="stroke:none;fill-rule:nonzero;fill:#a993d7;fill-opacity:1"/>
  <path d="m17.633 3.43.074-.02c.164.008.32 0 .48.055-.183.012-.378.05-.554-.035Zm0 0" style="stroke:none;fill-rule:nonzero;fill:#d1c2eb;fill-opacity:1"/>
  <path d="M15.191 3.5c-.207.066-.41.04-.625.023.211-.074.41-.043.625-.023Zm0 0" style="stroke:none;fill-rule:nonzero;fill:#887baa;fill-opacity:1"/>
  <path d="M15.191 3.5c.075-.012.145-.027.215-.04.344.036.684.017 1.035.017.645.035 1.278.156 1.914.25.082.035.165.062.25.09-.222.097-.39.328-.558.503-.793-.215-1.613-.383-2.434-.437-.425-.098-.898-.02-1.332-.043-.219.004-.469-.027-.676.043-1.265.094-2.511.27-3.757.52a3.246 3.246 0 0 1-.262-.071c1.012-.258 2.05-.41 3.074-.602.64-.05 1.27-.183 1.906-.207.215.016.418.043.625-.023Zm0 0" style="stroke:none;fill-rule:nonzero;fill:#3f2d73;fill-opacity:1"/>
  <path d="M18.188 3.465c.222.012.43.039.644.09.531.125 1.148.18 1.637.43-.102.117-.223.218-.328.34-.5-.2-1.012-.384-1.536-.509a2.714 2.714 0 0 1-.25-.09c-.144-.09-.308-.046-.168-.261Zm0 0" style="stroke:none;fill-rule:nonzero;fill:#b7a1e1;fill-opacity:1"/>
  <path d="M14.281 3.84c.434.023.906-.055 1.332.043-.66.027-1.347.027-2.008 0 .207-.07.457-.04.676-.043Zm0 0" style="stroke:none;fill-rule:nonzero;fill:#6342c2;fill-opacity:1"/>
  <path d="M18.605 3.816c.524.125 1.036.309 1.536.508.136.09.27.16.433.184.133.105.262.183.422.246-.23.164-.43.383-.617.594-.418-.22-.84-.477-1.285-.625-.324-.196-.684-.254-1.047-.403.168-.175.336-.406.558-.504Zm0 0" style="stroke:none;fill-rule:nonzero;fill:#38276a;fill-opacity:1"/>
  <path d="M13.605 3.883c.66.027 1.348.027 2.008 0 .82.054 1.64.222 2.434.437.363.149.723.207 1.047.403.054.062.11.12.156.183-.23.086-.465.032-.71.07-.977.004-1.962.008-2.942 0-.36-.085-.72-.023-1.078-.109-.157-.035-.2.133-.36.113H9.297c-.145.008-.227-.097-.356-.12-.093.015-.187.093-.28.09-.345-.016-.684.046-1.032.007-.29-.05-.52.11-.809-.031.188-.09.387-.043.578-.114.82-.101 1.637-.269 2.45-.41a30.496 30.496 0 0 1 3.757-.52Zm0 0" style="stroke:none;fill-rule:nonzero;fill:#7d52f6;fill-opacity:1"/>
  <path d="M20.469 3.984c.144.094.347.047.508.121.718.29 1.492.586 2.125 1.024-.133.176.23.27.28.406.048.137.098.027.188.004.012.094-.062.2.055.238.23.121.352.25.496.465.168.133.285.309.442.453.164.184.195.555.437.649.102.187.16.406.23.61.016.046.082.05.125.073.184.325.172.688.344 1.004.106.324.196.633.145.977.035.32.082.629.05.953-.093.14-.097-.027-.164-.094-.187-.547-.347-1.14-.66-1.633.004-.273-.234-.535-.347-.777-.063-.137-.184-.23-.25-.363-.114-.301-.348-.57-.532-.836-.234-.27-.437-.559-.714-.793-.633-.688-1.426-1.242-2.23-1.711-.161-.063-.29-.14-.423-.246-.133-.125-.242-.184-.433-.184.105-.12.226-.222.328-.34Zm0 0" style="stroke:none;fill-rule:nonzero;fill:#bea9e6;fill-opacity:1"/>
  <path d="M9.586 4.332c.086.027.176.05.262.07-.813.141-1.63.309-2.45.41l-.02-.066c.735-.14 1.47-.328 2.208-.414Zm0 0" style="stroke:none;fill-rule:nonzero;fill:#5f4a99;fill-opacity:1"/>
  <path d="M20.14 4.324c.192 0 .301.059.434.184a1.043 1.043 0 0 1-.433-.184Zm0 0" style="stroke:none;fill-rule:nonzero;fill:#9d88cb;fill-opacity:1"/>
  <path d="M1.094 4.625c.136 0 .281.066.414.102.594.16 1.187.261 1.793.332.133.07.261.054.406.043.211.109.5.043.734.058.125-.012.32.035.418-.055l.075-.054c.109-.008.222-.016.332-.028.539.082 1.03-.117 1.554-.097.29.14.52-.02.809.031.348.04.687-.023 1.031-.008.094.004.188-.074.281-.09.13.024.211.13.356.121h4.863c.16.02.203-.148.36-.113.359.086.718.024 1.078.11.98.007 1.964.003 2.941 0 .246-.04.48.015.711-.07-.047-.063-.102-.122-.156-.184.445.148.867.406 1.285.625.047.035.098.07.144.109.036.074.079.148.118.227-.141-.055-.266-.114-.418-.106-4.426.004-8.903-.004-13.325.004-.171-.012-.003.129-.18.113-1.214.008-2.44.004-3.66.004-.253.02-.554-.058-.769.082-.125-.086-.219-.047-.086-.203-.203-.016-.27.02-.422.14-.281-.284-.476-.652-.695-.988Zm0 0" style="stroke:none;fill-rule:nonzero;fill:#7b51f2;fill-opacity:1"/>
  <path d="M1.086 4.73c.219.336.414.704.695.989.114.203.285.351.485.468.32.317.742.543 1.144.735.324.152.676.25 1.016.355.601.188 1.238.27 1.86.364.187.058.37.039.562.03l.047.016c.152.079.359.047.527.063.246.094.543.04.8.047.298.004.598.004.9 0 .093.004.19.008.284.02.387.093.817.023 1.215.042.277.004.555-.004.832.008.2.098.469.047.68.035l.168.035c.133.075.273.063.418.028.836.12 1.64.223 2.437.52.285.117.57.226.852.347.148.121.316.191.445.34-.621-.242-1.293-.563-1.973-.68-.425-.086-.843-.172-1.28-.156-.313-.063-.622-.031-.923-.149-.804.067-1.777.02-2.617.032-.187 0-.332-.082-.52-.035-.566.101-1.222.171-1.78 0-.114-.028-.258.066-.34.144l-.012-.101c.02-.106-.324-.055-.403-.082-.16-.063-.316-.043-.484-.04a4.367 4.367 0 0 0-.555.012l-.105-.035c-.137-.086-.274-.059-.422-.023-1.105-.141-2.297-.48-3.105-1.293-.243-.313-.524-.66-.637-1.043-.106-.313-.227-.66-.211-.993Zm0 0" style="stroke:none;fill-rule:nonzero;fill:#462f7b;fill-opacity:1"/>
  <path d="m7.379 4.746.02.066c-.192.07-.391.024-.579.114-.523-.02-1.015.18-1.554.097.707-.097 1.406-.175 2.113-.277Zm0 0" style="stroke:none;fill-rule:nonzero;fill:#836fba;fill-opacity:1"/>
  <path d="M20.996 4.754c.805.469 1.598 1.023 2.23 1.71-.09 0-.163-.05-.23.032-.148.145-.316.29-.433.461.062.098.136.188.183.3l-.047.005c-.215-.246-.383-.477-.66-.66-.184-.22-.418-.391-.648-.551-.262-.239-.563-.418-.868-.594-.046-.039-.097-.074-.144-.11.187-.21.387-.429.617-.593Zm0 0" style="stroke:none;fill-rule:nonzero;fill:#352464;fill-opacity:1"/>
  <path d="M3.3 5.059a.811.811 0 0 1 .41-.004l-.003.047c-.144.011-.273.027-.406-.043Zm0 0" style="stroke:none;fill-rule:nonzero;fill:#9076db;fill-opacity:1"/>
  <path d="M3.71 5.055c.407-.028.817-.02 1.224-.004l-.075.054c-.382-.007-.77-.007-1.152-.003Zm0 0" style="stroke:none;fill-rule:nonzero;fill:#ac9bdb;fill-opacity:1"/>
  <path d="M3.707 5.102c.383-.004.77-.004 1.152.003-.097.09-.293.043-.418.055-.234-.015-.523.05-.734-.058Zm0 0" style="stroke:none;fill-rule:nonzero;fill:#724be1;fill-opacity:1"/>
  <path d="M23.102 5.129c.785.441 1.503 1.016 2.16 1.629a.442.442 0 0 0-.16.097c.023.207.113.395.304.497.125.296.246.57.41.847.067.332.211.625.207.961.196.293.125.59.188.918.016.512.02 1.031-.016 1.54.028.152-.008.257-.054.398.004.156.027.308.007.464-.101-.16-.097-.402-.12-.59l-.075.06-.035-.071c.008-.348-.148-.66-.188-1.012.067.067.07.235.165.094.03-.324-.016-.633-.051-.953.05-.344-.04-.653-.145-.977-.172-.316-.16-.68-.344-1.004-.043-.023-.109-.027-.125-.074-.07-.203-.128-.422-.23-.61-.242-.093-.273-.464-.438-.648-.156-.144-.273-.32-.44-.453-.145-.215-.267-.344-.497-.465-.117-.039-.043-.144-.055-.238-.09.024-.14.133-.187-.004-.051-.137-.414-.23-.281-.406Zm0 0" style="stroke:none;fill-rule:nonzero;fill:#b9a3e3;fill-opacity:1"/>
  <path d="M20.523 5.457c.305.176.606.356.868.594-.121.082-.125.066-.239-.008-.093.027-.172.082-.273.078-.219.024-.332-.195-.535-.18-5.782-.003-11.567 0-17.344-.003-.121.007-.176-.008-.234.109.222.113.464.066.714.074.633.004 1.274-.012 1.907.008v.043c-.696.02-1.39 0-2.086.008-.242-.016-.465.058-.664-.094-.121.039-.246.07-.371.101a1.27 1.27 0 0 1-.485-.468c.153-.121.219-.157.422-.14-.133.155-.039.116.086.202.215-.14.516-.062.77-.082 1.218 0 2.445.004 3.66-.004.176.016.008-.125.18-.113 4.421-.008 8.898 0 13.324-.004.152-.008.277.05.418.106-.04-.079-.082-.153-.118-.227Zm0 0" style="stroke:none;fill-rule:nonzero;fill:#7b4fef;fill-opacity:1"/>
  <path d="M3 5.938c5.777.003 11.563 0 17.344.003.203-.015.316.204.535.18.101.004.18-.05.273-.078.114.074.118.09.239.008.23.16.464.332.648.55-.125.028-.223.083-.332.141-1.113-.05-2.234-.008-3.348-.023H15.9c-.29.004-.56-.024-.848.047-.254.058-.457-.055-.711-.047-3.598.004-7.195-.004-10.79.004-.073.027-.093.14-.14.199-.402-.192-.824-.418-1.144-.734.125-.032.25-.063.37-.102.2.152.423.078.665.094.695-.008 1.39.011 2.086-.008v-.043c-.633-.02-1.274-.004-1.907-.008-.25-.008-.492.04-.714-.074.058-.117.113-.102.234-.11Zm0 0" style="stroke:none;fill-rule:nonzero;fill:#794ded;fill-opacity:1"/>
  <path d="M23.227 6.465c.277.234.48.523.714.793.184.265.418.535.532.836-.18.156-.352.328-.516.5-.066.062-.066.133-.086.21l-.031.024c-.121-.238-.254-.48-.43-.68-.191-.32-.445-.59-.664-.89-.047-.113-.121-.203-.183-.301.117-.172.285-.316.433-.46.067-.083.14-.032.23-.032Zm0 0" style="stroke:none;fill-rule:nonzero;fill:#30215b;fill-opacity:1"/>
  <path d="M22.04 6.602c.276.183.444.414.66.66-.141.062-.286.187-.438.176-5.02.003-10.043.003-15.063.003-.344-.015-.703.032-1.043-.035-.226-.027-.386-.16-.59.016-.312.008-.632-.07-.925-.176-.063-.027-.149.02-.215.031-.34-.105-.692-.203-1.016-.355.047-.059.067-.172.14-.2 3.595-.007 7.192 0 10.79-.003.254-.008.457.105.71.047.29-.07.56-.043.848-.047h2.461c1.114.015 2.235-.028 3.348.023.11-.058.207-.113.332-.14Zm0 0" style="stroke:none;fill-rule:nonzero;fill:#774be8;fill-opacity:1"/>
  <path d="M25.262 6.758c.324.312.636.613.91.972l-.164.047a.439.439 0 0 1-.051.254c.11.145.246.23.258.43.039.387.164.734.281 1.101-.035.383.113.735.086 1.118.023.414-.059.812-.09 1.222-.043.403-.21.754-.324 1.137l-.059-.02c-.02-.359-.109-.714-.156-1.07l.074-.058c.024.187.02.43.121.59.02-.157-.003-.31-.007-.465.047-.141.082-.246.054-.399.035-.508.032-1.027.016-1.539-.063-.328.008-.625-.188-.918.004-.336-.14-.629-.207-.96a6.777 6.777 0 0 1-.41-.848c-.191-.102-.281-.29-.304-.497a.442.442 0 0 1 .16-.097Zm0 0" style="stroke:none;fill-rule:nonzero;fill:#b39cdf;fill-opacity:1"/>
  <path d="M4.64 7.246c.294.106.614.184.926.176.204-.176.364-.043.59-.016.34.067.7.02 1.043.035 5.02 0 10.043 0 15.063-.003.152.011.297-.114.437-.176l.047-.004c.219.3.473.57.664.89a2.484 2.484 0 0 0-.168.301l-.047-.152c-.3-.047-.617.004-.922-.024v-.046c.29-.024.582.007.872-.016v-.043c-2.13-.02-4.274-.004-6.407-.008-.355.055-.715.063-1.074.106-.242.02-.52-.075-.73.046-.215-.109-.446-.093-.668-.171-.008-.172-.18-.04-.286-.055-.418-.05-.84-.164-1.265-.16a1.057 1.057 0 0 0-.414.011l-.168-.035c-.195-.058-.395-.039-.606-.05-.277-.106-.617-.032-.91-.047l-.164-.024c-.426-.09-.894-.02-1.332-.039-.3-.004-.601-.004-.902 0l-.106-.02c-.21-.066-.449-.042-.672-.038-.183-.004-.363 0-.546.003l-.047-.015c-.168-.09-.38-.047-.563-.031-.62-.094-1.258-.176-1.86-.364.067-.011.153-.058.216-.03Zm0 0" style="stroke:none;fill-rule:nonzero;fill:#7549e3;fill-opacity:1"/>
  <path d="M6.285 7.64c.184-.015.395-.058.563.032-.192.008-.375.027-.563-.031Zm0 0" style="stroke:none;fill-rule:nonzero;fill:#623eb8;fill-opacity:1"/>
  <path d="M6.895 7.688c.183-.004.363-.008.546-.004l-.02.066c-.167-.016-.374.016-.526-.063Zm0 0" style="stroke:none;fill-rule:nonzero;fill:#5b3bab;fill-opacity:1"/>
  <path d="M7.441 7.684c.223-.004.461-.028.672.039-.23.02-.46.015-.691.027Zm0 0" style="stroke:none;fill-rule:nonzero;fill:#6a44cc;fill-opacity:1"/>
  <path d="M7.422 7.75c.23-.012.46-.008.691-.027l.106.02.004.054c-.258-.008-.555.047-.801-.047Zm0 0" style="stroke:none;fill-rule:nonzero;fill:#513494;fill-opacity:1"/>
  <path d="M8.219 7.742c.3-.004.601-.004.902 0v.055c-.3.004-.601.004-.898 0Zm0 0" style="stroke:none;fill-rule:nonzero;fill:#5f3db3;fill-opacity:1"/>
  <path d="M9.121 7.742c.438.02.906-.05 1.332.04-.348.034-.695.003-1.047.034-.094-.011-.191-.015-.285-.02Zm0 0" style="stroke:none;fill-rule:nonzero;fill:#6d44d0;fill-opacity:1"/>
  <path d="M26.008 7.777c.05-.015.11-.03.164-.047.168.184.348.38.46.602-.058.063-.202.14-.16.238.137.48.153.957.231 1.45.05.464.195.886.067 1.335-.102.31-.122.618-.145.938-.078.402-.168.824-.363 1.191l-.102-.105c0-.113.004-.227.008-.34.113-.383.281-.734.324-1.137.031-.41.113-.808.09-1.222.027-.383-.121-.735-.086-1.117-.117-.368-.242-.715-.281-1.102-.012-.2-.149-.285-.258-.43a.439.439 0 0 0 .05-.254Zm0 0" style="stroke:none;fill-rule:nonzero;fill:#af98dd;fill-opacity:1"/>
  <path d="M9.406 7.816c.352-.03.7 0 1.047-.035l.164.024.004.054c-.398-.02-.828.051-1.215-.043Zm0 0" style="stroke:none;fill-rule:nonzero;fill:#55369c;fill-opacity:1"/>
  <path d="M10.617 7.805c.293.015.633-.059.91.047l-.074.015c-.277-.012-.555-.004-.832-.008Zm0 0" style="stroke:none;fill-rule:nonzero;fill:#653fbf;fill-opacity:1"/>
  <path d="m11.453 7.867.074-.015c.211.011.41-.008.606.05-.211.012-.48.063-.68-.035Zm0 0" style="stroke:none;fill-rule:nonzero;fill:#5d3bae;fill-opacity:1"/>
  <path d="M12.3 7.938c.145-.032.27-.036.415-.012l.004.039c-.145.035-.285.047-.418-.027Zm0 0" style="stroke:none;fill-rule:nonzero;fill:#5a39ab;fill-opacity:1"/>
  <path d="M12.715 7.926c.426-.004.848.11 1.265.16.106.016.278-.117.286.055.222.078.453.062.668.171.21-.12.488-.027.73-.046.36-.043.719-.051 1.074-.106 2.133.004 4.278-.012 6.407.008v.043c-.29.023-.582-.008-.872.016v.046c.305.028.622-.023.922.024l.047.152c.051-.105.106-.207.168-.3.176.199.309.44.43.68-.047.089-.102.179-.156.265-.137-.043-.254-.106-.403-.094-2.054.004-4.129-.004-6.183 0-.164-.012-.145.105-.203.219-.153-.121-.176-.153-.38-.121-.054-.22-.328-.2-.507-.266-.281-.121-.567-.23-.852-.348-.797-.296-1.601-.398-2.437-.52Zm0 0" style="stroke:none;fill-rule:nonzero;fill:#7346dd;fill-opacity:1"/>
  <path d="M5.04 8.059c.147-.036.284-.063.42.023-.147.035-.284.063-.42-.023Zm0 0" style="stroke:none;fill-rule:nonzero;fill:#7b6ca2;fill-opacity:1"/>
  <path d="M5.566 8.117c.184-.015.368-.02.555-.012v.063c-.184-.012-.387.012-.555-.05Zm0 0" style="stroke:none;fill-rule:nonzero;fill:#8f82ae;fill-opacity:1"/>
  <path d="M6.121 8.105c.168-.003.324-.023.484.04l-.062.023a1.389 1.389 0 0 0-.422 0Zm0 0" style="stroke:none;fill-rule:nonzero;fill:#5c488a;fill-opacity:1"/>
  <path d="M24.473 8.094c.066.133.187.226.25.363.113.242.351.504.347.777-.18.157-.347.329-.515.5-.086.079-.07.184-.094.293-.07-.144-.133-.293-.207-.437-.113-.27-.254-.524-.383-.785.02-.078.02-.149.086-.211.164-.172.336-.344.516-.5Zm0 0" style="stroke:none;fill-rule:nonzero;fill:#2d1e55;fill-opacity:1"/>
  <path d="M6.121 8.168c.145-.02.281-.023.422 0l-.004.039c-.148.023-.285.055-.418-.039Zm0 0" style="stroke:none;fill-rule:nonzero;fill:#c8c0da;fill-opacity:1"/>
  <path d="m6.543 8.168.062-.023c.079.027.422-.024.403.082-.156-.008-.313-.008-.469-.02Zm0 0" style="stroke:none;fill-rule:nonzero;fill:#aba1c6;fill-opacity:1"/>
  <path d="M7.36 8.184c.558.171 1.214.101 1.78 0 .188-.047.333.035.52.035.84-.012 1.813.035 2.617-.031.301.117.61.085.922.148.438-.016.856.07 1.281.156.68.117 1.352.438 1.973.68.117.058.227.125.344.187.371.43.797.774 1.074 1.286.129.21.238.43.352.652.039.152.097.281.191.41.059.262.145.527.238.777.016.243.063.48.141.707-.004.13-.02.258-.055.383-.418-.832-.875-1.605-1.562-2.25a4.973 4.973 0 0 0-1.145-.914 1.986 1.986 0 0 0-.297-.164c-.293-.234-.675-.363-1.023-.488a1.454 1.454 0 0 0-.54-.172 2.774 2.774 0 0 0-.358-.121c-.231-.086-.43-.13-.68-.086l-.047-.012-.047-.027-.031-.035c-.168-.117-.492-.098-.695-.145-.16-.039-.32-.043-.481-.058-.18-.051-.355-.043-.539-.059-.14-.04-.277-.047-.422-.063-.16-.05-.324-.043-.492-.039l-.106-.02c-.214-.066-.453-.038-.675-.038l-.106-.02c-.21-.07-.453-.039-.676-.039a2.346 2.346 0 0 0-.164-.02c-.164-.058-.328-.046-.5-.042l-.113-.02c-.137-.078-.27-.055-.418-.031-.074-.008-.152-.02-.23-.031-.184-.04-.352-.032-.508-.157.043-.066.09-.132.137-.195.082-.078.226-.172.34-.144Zm0 0" style="stroke:none;fill-rule:nonzero;fill:#39286c;fill-opacity:1"/>
  <path d="M26.633 8.332c.191.223.351.45.504.7-.157-.044-.29.09-.235.245.09.391.047.77.098 1.16-.012.442.035.895-.047 1.325-.02.297-.07.59-.09.89-.207.414-.297.848-.422 1.293h-.136c-.012.09.03.133-.075.168a1.694 1.694 0 0 0-.05-.445l-.024-.105c.004-.063.004-.126.004-.184l.102.105c.195-.367.285-.789.363-1.191.023-.32.043-.629.145-.938.128-.449-.016-.87-.067-1.335-.078-.493-.094-.97-.23-1.45-.043-.097.101-.175.16-.238Zm0 0" style="stroke:none;fill-rule:nonzero;fill:#aa93da;fill-opacity:1"/>
  <path d="M6.883 8.523c.156.125.324.118.508.157-.114.011-.227.015-.34.035-.055.293.023.562-.13.836-.01.164-.077.265-.136.41-.015.398.004.8-.008 1.2-.011.413.098.823.137 1.237.102.067-.012-.375.098-.32.058.32-.082.652.05.95.016.081-.015.163-.015.245.16.082.21.176.195.36.063.3.149.613.227.91.004.234 0 .484.187.66.082.07.086.164.117.262.032.172.145.281.106.46.078.009.16-.038.2.055.038.18.046.352.14.52.066.098.027.234.062.348.055-.055.106-.11.164-.157.153.274.102.688.446.82.035.09.046.192.082.286.062-.004.125-.012.187-.012.145.176.113.422.223.625.023-.05.043-.105.062-.156.157.09.176.254.317.367.082.063.047.133.054.227.067-.047.086-.114.13-.18.023.145-.008.262.128.36.114.066.035.19.035.3.082-.035.082-.101.118-.172.183.16.335.32.433.547.09.074.133.242.254.129.125.078.176.203.324.25.219.09.293.266.309.484.086-.003.172-.023.258-.023.164.074.28.223.449.305.016.101-.008.164.113.203.219.07.281.285.524.219.105.093.066.343.238.18.082.081.133.175.254.206.164-.031.316-.101.488-.105a2.478 2.478 0 0 1-.601.3c-.141.008-.282.024-.426.032.027-.055.062-.106.094-.16-.126-.028-.168-.04-.278.03-.062-.081-.043-.226-.176-.19-.144.027-.164-.043-.246-.141-.058-.102-.175-.11-.273-.164-.055-.067-.078-.16-.113-.235-.07-.054-.125.028-.18.063-.18-.129-.23-.309-.477-.305-.05-.125-.23-.187-.125-.32-.168-.133-.398-.215-.605-.266-.04-.097-.067-.203-.098-.304-.07.039-.066.062-.14.011-.18-.07-.157-.226-.235-.379-.082-.062-.21-.078-.308-.109-.02-.086-.028-.172-.047-.254-.117-.137-.325-.148-.325-.351-.156-.067-.093-.098-.09-.235-.238.055-.288-.18-.367-.347-.035-.18-.164-.274-.277-.407-.121-.113-.144-.289-.289-.37-.168-.106-.172-.333-.215-.509-.07-.07-.164-.101-.238-.156-.012-.144.012-.21-.106-.312-.003-.141-.007-.254-.07-.383-.023-.149-.25.07-.215-.13-.023-.222-.008-.644-.328-.628-.078-.379-.058-.781-.164-1.148-.035.023-.07.05-.105.074-.094-.29-.192-.563-.145-.871-.117-.375-.086-.754-.117-1.145-.172.078-.078.371-.113.528-.086-.04-.059-.317-.094-.418-.012-.317-.066-.653-.004-.965-.008-.512 0-1.028-.04-1.535.032-.122.177-.106.204-.25-.05-.094-.121-.18-.187-.266.164-.277.328-.559.53-.813Zm0 0" style="stroke:none;fill-rule:nonzero;fill:#6d50ac;fill-opacity:1"/>
  <path d="M7.05 8.715c.114-.02.227-.024.34-.035.079.011.157.023.231.03l-.004.032-.144.035c-.043.23-.028.45-.051.684-.09.71-.012 1.437-.055 2.16.133.238.028.457.086.703.016.149.063.281.02.434-.078.222.078.496.222.656.032.332.153.629.176.969.035-.031.074-.059.11-.086-.016.09-.036.176-.051.265.054-.027.11-.058.168-.09.011.18-.051.321.03.481.087.18.052.36.224.488-.082.137.07.149.113.274.183.324.36.625.453.988.027.152.105.117.219.172.008.219.187.398.258.61.039.132.144.046.246.054-.012.121-.04.211.035.324.062.153.195.14.32.223.106.133.074.273.09.434.078-.047.164-.172.238-.04.094.2.172.375.375.497-.031.218.266.273.406.382.133.157.329.157.434.356.07.043-.133.152-.016.14.227-.011.368.114.504.274-.156.152.067.117.149.066.125.028.062.164.191.192a.665.665 0 0 1 .348.25c.234.101.414.277.644.386.168.149.344.13.551.176.11.047.211.121.313.184a2.9 2.9 0 0 1-.352.168c-.172.004-.324.074-.488.105-.121-.031-.172-.125-.254-.207-.172.164-.133-.086-.238-.18-.243.067-.305-.148-.524-.218-.12-.04-.097-.102-.113-.203-.168-.082-.285-.23-.45-.305-.085 0-.171.02-.257.023-.016-.218-.09-.394-.309-.484-.148-.047-.199-.172-.324-.25-.121.113-.164-.055-.254-.129-.098-.226-.25-.387-.433-.547-.036.07-.036.137-.118.172 0-.11.079-.234-.035-.3-.136-.098-.105-.215-.129-.36-.043.066-.062.133-.129.18-.007-.094.028-.164-.054-.227-.14-.113-.16-.277-.317-.367-.02.05-.039.105-.062.156-.11-.203-.078-.45-.223-.625-.062 0-.125.008-.187.012-.036-.094-.047-.195-.082-.285-.344-.133-.293-.547-.446-.82-.058.046-.11.101-.164.156-.035-.114.004-.25-.062-.348-.094-.168-.102-.34-.14-.52-.04-.093-.122-.046-.2-.054.039-.18-.074-.29-.106-.461-.03-.098-.035-.192-.117-.262-.187-.176-.183-.426-.187-.66-.078-.297-.164-.61-.227-.91.016-.184-.035-.278-.195-.36 0-.082.031-.164.016-.246-.133-.297.007-.629-.051-.949-.11-.055.004.387-.098.32-.039-.414-.148-.824-.137-1.238.012-.398-.007-.8.008-1.2.059-.144.125-.245.137-.41.152-.273.074-.542.129-.835Zm0 0" style="stroke:none;fill-rule:nonzero;fill:#7053af;fill-opacity:1"/>
  <path d="M7.621 8.71c.149-.023.281-.046.418.032a.857.857 0 0 1-.422 0Zm0 0" style="stroke:none;fill-rule:nonzero;fill:#553d8e;fill-opacity:1"/>
  <path d="m7.473 8.777.144-.035c.145.04.278.031.422 0l.113.02.012.054H8.11c-.109.004-.222 0-.336.016-.074.52.02 1.031-.09 1.547.153.8-.066 1.773.204 2.562.023.153-.024.422.199.422-.047.45.125.832.152 1.27.09.015.16-.11.227-.16-.008.12-.13.242-.074.351.027.121.148.211.214.313.04.187.028.39.051.586.047-.11.047-.215.137-.301.031.152.07.273.152.406.09.129.02.32.106.445.113.172.191.352.347.489.059.05.04.113.059.183.184.082.145.293.293.426l.086-.074c.094.238.262.39.266.66.242.031.242.16.347.34.18.129.336.156.45.367.164.117.257.2.331.39.07-.027.141-.066.215-.09-.062.227.149.368.301.49.149.081.191.241.262.386l.12-.098c.06.067.032.195.138.102.14.086.277.148.347.304.106.168.364.118.457.262.149.152.32.254.442.438.113-.004.203-.035.312.004.184.043.258.195.418.27.004-.04.008-.075.016-.114.133.023.254.082.394.078-.132.09-.27.16-.382.27l-.047.027c-.102-.063-.203-.137-.313-.184-.207-.047-.383-.027-.55-.176-.231-.109-.41-.285-.645-.386a.665.665 0 0 0-.348-.25c-.129-.028-.066-.164-.191-.192-.082.051-.305.086-.149-.066-.136-.16-.277-.285-.504-.274-.117.012.086-.097.016-.14-.105-.2-.3-.2-.434-.356-.14-.109-.437-.164-.406-.382-.203-.122-.281-.297-.375-.497-.074-.132-.16-.007-.238.04-.016-.16.016-.301-.09-.434-.125-.082-.258-.07-.32-.223-.074-.113-.047-.203-.035-.324-.102-.008-.207.078-.246-.055-.07-.21-.25-.39-.258-.609-.114-.055-.192-.02-.219-.172-.094-.363-.27-.664-.453-.988-.043-.125-.195-.137-.113-.274-.172-.129-.137-.308-.223-.488-.082-.16-.02-.3-.031-.48-.059.03-.114.062-.168.09.015-.09.035-.176.05-.266-.035.027-.074.055-.109.086-.023-.34-.144-.637-.176-.969-.144-.16-.3-.434-.222-.656.043-.153-.004-.285-.02-.434-.058-.246.047-.465-.086-.703.043-.723-.035-1.45.055-2.16.023-.234.008-.453.05-.684Zm0 0" style="stroke:none;fill-rule:nonzero;fill:#7457b3;fill-opacity:1"/>
  <path d="M8.152 8.762c.172-.004.336-.016.5.043-.164.011-.324.02-.488.011Zm0 0" style="stroke:none;fill-rule:nonzero;fill:#584191;fill-opacity:1"/>
  <path d="M7.773 8.832c.114-.016.227-.012.336-.016.047.258-.011.52.032.778-.059.199-.07.332-.047.543-.035-.055-.067-.114-.098-.168-.117.433-.07.844-.07 1.293l.105-.082c.114.402.094.773.07 1.18.149.324.122.656.153 1.003.047.051.101.094.148.145-.05.027-.105.055-.16.078.04.113.094.219.16.316.04-.027.075-.054.11-.082-.04.203.035.375.078.57.047.188.074.376.148.555.27.328.375.782.625 1.125.035.043.008.117.016.168.047-.023.094-.05.144-.074.094.25.133.453.204.7.082.144.101.058.218.023.098.172.18.328.168.527-.02.129.211.098.258.18.082.125.094.234.258.265.156.153.191.508.441.551a.395.395 0 0 1 .117.293c.126.012.325-.066.301.133.043.14.325.238.438.32.082.102.011.266.187.262.192.027.203.137.282.289.16.082.3.172.484.188.113.054.172.23.277.308.082.02.172-.02.25-.031.008.086-.039.16.055.21.215.071.598.06.68.325.238.188.457.215.754.195-.079.067-.157.133-.243.184-.14.004-.261-.055-.394-.078-.008.039-.012.074-.016.113-.16-.074-.234-.226-.418-.27-.11-.038-.199-.007-.312-.003-.121-.184-.293-.285-.442-.438-.093-.144-.351-.094-.457-.262-.07-.156-.207-.218-.347-.304-.106.093-.079-.035-.137-.102-.04.031-.082.067-.121.098-.07-.145-.113-.305-.262-.387-.152-.121-.363-.262-.3-.488-.075.023-.145.062-.216.09-.074-.192-.168-.274-.332-.39-.113-.212-.27-.24-.449-.368-.105-.18-.105-.309-.347-.34-.004-.27-.172-.422-.266-.66l-.086.074c-.148-.133-.11-.344-.293-.426-.02-.07 0-.133-.059-.183-.156-.137-.234-.317-.347-.489-.086-.125-.016-.316-.106-.445a1.164 1.164 0 0 1-.152-.406c-.09.086-.09.191-.137.3-.023-.195-.011-.398-.05-.585-.067-.102-.188-.192-.215-.313-.055-.11.066-.23.074-.351-.067.05-.137.175-.227.16-.027-.438-.199-.82-.152-1.27-.223 0-.176-.27-.2-.422-.269-.789-.05-1.761-.202-2.562.109-.516.015-1.027.09-1.547Zm0 0" style="stroke:none;fill-rule:nonzero;fill:#7659b6;fill-opacity:1"/>
  <path d="M8.11 8.816h.054c.164.008.324 0 .488-.011.055.004.11.011.164.02l.004.054h-.23c-.094.012-.172-.016-.235.074.032.168.051.266-.023.426-.035.418-.14.82-.113 1.242-.016.352.023.691.054 1.035.11.274.051.555.122.828.152.489.14 1.036.363 1.496.113.293.148.696.383.918-.059.274.171.52.261.782.196.183.223.3.286.554.152.211.37.422.476.657-.05.082-.094.062.027.101.207.051.168.344.332.442.165.097.196.27.32.402.391.367.782.742 1.15 1.129.206.094.308.293.507.398.32.18.602.442.906.649.309.101.555.304.867.394.207.043.297.282.5.274.051 0 .094.07.133.097.078-.015.153-.043.227-.062-.074.07-.153.133-.238.187-.297.02-.516-.007-.754-.195-.082-.266-.465-.254-.68-.324-.094-.051-.047-.125-.055-.211-.078.012-.168.05-.25.031-.105-.078-.164-.254-.277-.308-.184-.016-.324-.106-.484-.188-.079-.152-.09-.262-.282-.289-.175.004-.105-.16-.187-.262-.114-.082-.395-.18-.438-.32.024-.2-.175-.121-.3-.133 0-.125-.036-.2-.118-.293-.25-.043-.285-.398-.441-.55-.164-.032-.176-.141-.258-.266-.047-.082-.277-.051-.258-.18.012-.2-.07-.355-.168-.527-.117.035-.136.12-.218-.024-.07-.246-.11-.449-.204-.699-.05.023-.097.05-.144.074-.008-.05.02-.125-.016-.168-.25-.343-.355-.797-.625-1.125-.074-.18-.101-.367-.148-.554-.043-.196-.117-.368-.078-.57-.035.027-.07.054-.11.081a1.339 1.339 0 0 1-.16-.316c.055-.024.11-.05.16-.078-.047-.051-.101-.094-.148-.145-.031-.347-.004-.68-.152-1.004.023-.406.043-.777-.07-1.18l-.106.083c0-.45-.047-.86.07-1.293.031.054.063.113.098.168a1.212 1.212 0 0 1 .047-.543c-.043-.258.015-.52-.032-.778Zm0 0" style="stroke:none;fill-rule:nonzero;fill:#795cb8;fill-opacity:1"/>
  <path d="M8.816 8.824c.223 0 .465-.031.676.04-.222.019-.445.019-.672.015Zm0 0" style="stroke:none;fill-rule:nonzero;fill:#5a4390;fill-opacity:1"/>
  <path d="M16.008 8.832c.18.066.453.047.508.266.203-.032.226 0 .379.12.058-.113.039-.23.203-.218 2.054-.004 4.129.004 6.183 0 .149-.012.266.05.403.094.054-.086.109-.176.156-.266l.031-.023c.129.261.27.515.383.785.008.101.023.2.031.3-.605-.023-1.223.04-1.832 0v-.042c.469-.028.942.011 1.414-.016v-.043c-1.312-.02-2.633-.004-3.945-.008-.68-.008-1.363.016-2.04-.011-.198-.043-.386-.008-.581-.012-.176-.125-.293-.352-.504-.399-.117-.062-.227-.129-.344-.187-.129-.149-.297-.219-.445-.34Zm0 0" style="stroke:none;fill-rule:nonzero;fill:#7144d9;fill-opacity:1"/>
  <path d="M8.59 8.879c.043.355-.133.664-.035 1.02-.153.277-.082.539-.094.84.004.363-.035.804.113 1.144-.086.344.047.633.11.965.054.55.203 1.097.449 1.593.086.207.11.48.246.66.148.204.215.485.309.72.03.081.117.09.187.128.105.18.09.426.273.543.176.117.18.285.262.461.07.082.164.11.246.168.074.137.098.277.219.383.176.16.27.367.465.496.113.074.176.184.262.277.367.278.609.668 1.007.914.301.16.504.43.817.563.195.082.332.27.539.27.133.081.195.199.375.203.164 0 .176.199.34.152.117-.043.21.156.289.223.11.02.226-.004.34-.012a1.426 1.426 0 0 1-.176.125c-.074.02-.149.047-.227.062-.039-.027-.082-.097-.133-.097-.203.008-.293-.23-.5-.274-.312-.09-.558-.293-.867-.394-.304-.207-.586-.469-.906-.649-.2-.105-.3-.304-.508-.398a28.48 28.48 0 0 0-1.148-1.13c-.125-.132-.156-.304-.32-.401-.165-.098-.126-.391-.333-.442-.12-.039-.078-.02-.027-.101-.105-.235-.324-.446-.476-.657-.063-.254-.09-.37-.286-.554-.09-.262-.32-.508-.261-.782-.235-.222-.27-.625-.383-.918-.223-.46-.211-1.007-.363-1.496-.07-.273-.012-.554-.122-.828-.03-.344-.07-.683-.054-1.035-.028-.422.078-.824.113-1.242.074-.16.055-.258.023-.426.063-.09.141-.062.235-.074Zm0 0" style="stroke:none;fill-rule:nonzero;fill:#7c5fbb;fill-opacity:1"/>
  <path d="M8.59 8.879h.23c.227.004.45.004.672-.016l.106.02.007.055c-.101.003-.199.003-.3.003H9.12c-.14-.004-.203.016-.277.137-.114.485-.078.973-.11 1.461-.109.465.059.871.032 1.34.086.586.191 1.176.359 1.742.086.367.18.785.39 1.102.188.21.09.5.282.742.14.117.215.324.297.484.234.387.484.746.742 1.114.187.156.281.312.367.535.047.136.207.074.281.199.157.23.43.328.547.578.035.098.18.11.239.191.168.243.484.375.714.551.102.11.196.203.332.27.371.18.63.422 1.016.55.133.043.23.145.34.231.316.105.582.281.933.184-.093.085-.199.164-.296.238-.114.008-.23.031-.34.012-.078-.067-.172-.266-.29-.223-.163.047-.175-.152-.34-.152-.179-.004-.241-.122-.374-.204-.207 0-.344-.187-.54-.27-.312-.132-.515-.401-.816-.562-.398-.246-.64-.636-1.007-.914-.086-.093-.149-.203-.262-.277-.195-.129-.29-.336-.465-.496-.121-.106-.145-.246-.219-.383-.082-.058-.176-.086-.246-.168-.082-.176-.086-.344-.262-.46-.183-.118-.168-.364-.273-.544-.07-.039-.156-.047-.188-.129-.093-.234-.16-.515-.308-.718-.137-.18-.16-.454-.246-.66a4.629 4.629 0 0 1-.45-1.594c-.062-.332-.195-.621-.109-.965-.148-.34-.11-.781-.113-1.145.012-.3-.059-.562.094-.84-.098-.355.078-.664.035-1.02Zm0 0" style="stroke:none;fill-rule:nonzero;fill:#8063be;fill-opacity:1"/>
  <path d="M9.598 8.883c.222 0 .46-.028.675.039-.203.02-.41.02-.613.02l-.055-.005Zm0 0" style="stroke:none;fill-rule:nonzero;fill:#604b95;fill-opacity:1"/>
  <path d="M9.121 8.941c-.043.547-.16 1.067-.121 1.618.016.293-.102.546-.055.84.082.417.18.84.184 1.261.152.442.125.875.379 1.285.129.266.129.61.281.864.09.18.242.347.262.546.047.258.273.344.34.586.046.164.136.29.27.399.116.098.112.281.226.37.187.13.246.454.449.575.18.102.242.309.422.418.152.09.113.29.289.324.148.028.23.207.328.313.113.191.328.21.457.387.262.246.613.382.887.617.16.156.383.18.535.351.258.032.434.22.687.285.207.06.371.137.559.247.105-.04.09-.004.172.062l-.067.063c-.351.097-.617-.079-.933-.184-.11-.086-.207-.188-.34-.23-.387-.13-.645-.372-1.016-.551a1.109 1.109 0 0 1-.332-.27c-.23-.176-.546-.308-.714-.55-.06-.083-.204-.094-.239-.192-.117-.25-.39-.348-.547-.578-.074-.125-.234-.063-.28-.2a1.18 1.18 0 0 0-.368-.535 19.677 19.677 0 0 1-.742-1.113c-.082-.16-.156-.367-.297-.484-.192-.242-.094-.531-.281-.742-.211-.317-.305-.735-.391-1.102a12.53 12.53 0 0 1-.36-1.742c.028-.469-.14-.875-.03-1.34.03-.488-.005-.976.109-1.46.074-.122.136-.142.277-.138Zm0 0" style="stroke:none;fill-rule:nonzero;fill:#8468c0;fill-opacity:1"/>
  <path d="M9.121 8.941h.184c-.078.414-.168.903-.133 1.317-.086.414-.067.847.004 1.262-.016.421.09.824.148 1.238.028.207.137.375.2.57.054.379.128.742.308 1.082.172.34.258.703.484 1.012.286.547.575 1.066 1.008 1.515.121.11.149.274.27.387.25.235.445.512.726.715.278.188.446.469.742.633.22.117.305.32.547.363.118.04.204.16.313.223.414.199.738.48 1.195.61.246.077.473.198.73.245-.058.059-.117.121-.175.176-.082-.066-.067-.102-.172-.062a2.295 2.295 0 0 0-.559-.247c-.254-.066-.43-.253-.687-.285-.152-.172-.375-.195-.535-.351-.274-.235-.625-.371-.887-.617-.129-.176-.344-.196-.457-.387-.098-.106-.18-.285-.328-.313-.176-.035-.137-.234-.29-.324-.179-.11-.241-.316-.421-.418-.203-.12-.262-.445-.45-.574-.113-.09-.109-.273-.226-.371a.777.777 0 0 1-.27-.399c-.066-.242-.292-.328-.34-.586-.019-.199-.171-.367-.26-.546-.153-.254-.153-.598-.282-.864-.254-.41-.227-.843-.38-1.285-.003-.422-.1-.844-.183-1.262-.047-.293.07-.546.055-.84-.04-.55.078-1.07.121-1.617Zm0 0" style="stroke:none;fill-rule:nonzero;fill:#886cc3;fill-opacity:1"/>
  <path d="M9.305 8.941c.101 0 .199 0 .3-.004l.055.004c-.187.266-.226.664-.277.98-.11.454.004.833-.024 1.298-.015.293.047.57.079.86l.085.023c.012.27-.023.585.094.824.043.191.031.383.11.566.156.367.293.735.382 1.121.157.137.172.328.278.496.113.2.187.418.289.621.219.27.437.532.582.852.16.133.234.277.324.457.395.395.844.805 1.211 1.184.762.527 1.605 1.172 2.492 1.472.11.078.297.078.363.196.118-.004.305.05.391-.032.145-.117.227-.257.414-.312a2.256 2.256 0 0 1-.605.566c-.258-.047-.485-.168-.73-.246-.458-.129-.782-.41-1.196-.61-.11-.062-.195-.183-.313-.222-.242-.043-.328-.246-.546-.363-.297-.164-.465-.445-.743-.633-.28-.203-.476-.48-.726-.715-.121-.113-.149-.277-.27-.387-.433-.449-.722-.968-1.008-1.515-.226-.309-.312-.672-.484-1.012-.18-.34-.254-.703-.309-1.082-.062-.195-.171-.363-.199-.57-.058-.414-.164-.817-.148-1.238-.07-.415-.09-.848-.004-1.262-.035-.414.055-.903.133-1.317Zm0 0" style="stroke:none;fill-rule:nonzero;fill:#8b6fc4;fill-opacity:1"/>
  <path d="M9.66 8.941c.203 0 .41 0 .613-.02l.106.02.008.059h-.055c-.082 0-.164 0-.25.004L9.961 9c-.074 0-.149.004-.223.016-.23.859-.11 1.656-.14 2.566.058.45.05.84.18 1.266.199.382.23.843.374 1.242.153.25.211.527.364.773.14.29.254.66.48.895.121.16.188.383.344.504.125.086.113.234.203.336.18.168.316.382.45.59.265.066.3.3.51.43.142.085.18.21.25.347.134.07.267.113.372.23.164.176.367.274.578.387.223.242.578.367.871.508.18.133.328.273.567.281.273.14.523.305.832.36.027.042.047.085.066.128-.086.082-.273.028-.39.032-.067-.118-.254-.118-.364-.196-.887-.3-1.73-.945-2.492-1.472-.367-.38-.816-.79-1.211-1.184-.09-.18-.164-.324-.324-.457-.145-.32-.363-.582-.582-.852-.102-.203-.176-.421-.29-.62-.105-.169-.12-.36-.277-.497a6.777 6.777 0 0 0-.382-1.12c-.079-.184-.067-.376-.11-.567-.117-.239-.082-.555-.094-.824a2.569 2.569 0 0 1-.085-.024c-.032-.289-.094-.566-.079-.86.028-.464-.086-.843.024-1.296.05-.317.09-.715.277-.98Zm0 0" style="stroke:none;fill-rule:nonzero;fill:#8f73c8;fill-opacity:1"/>
  <path d="M10.379 8.941c.168-.004.332-.011.492.04a5.02 5.02 0 0 1-.484.019Zm0 0" style="stroke:none;fill-rule:nonzero;fill:#68539b;fill-opacity:1"/>
  <path d="M9.738 9.016c.075-.012.149-.016.223-.016.086.277.004.684-.168.91-.043.305.055.637.043.938-.11.027-.004-.301-.113-.274.004.078-.043.317.062.336.172.02.113.27.102.39-.028.009-.059.012-.086.02.011.196.015.383.09.567.203.617.02 1.25.402 1.758.094.117.07.199.055.335.093.223.125.473.32.614.047.094.09.191.113.297.035.379.426.527.469.925.188.153.23.184.293.422.234.235.395.516.676.7.11.171.168.308.394.335.418.543 1.121.883 1.64 1.344.196.047.278.008.321.238.223.016.375.137.59.192.39.242.84.402 1.29.5-.188.055-.27.195-.415.312a1.01 1.01 0 0 0-.066-.129c-.309-.054-.559-.218-.832-.359-.239-.008-.387-.148-.567-.281-.293-.14-.648-.266-.87-.508-.212-.113-.415-.21-.579-.387-.105-.117-.238-.16-.371-.23-.07-.137-.11-.262-.25-.348-.211-.129-.246-.363-.512-.43-.133-.207-.27-.421-.449-.59-.09-.1-.078-.25-.203-.335-.156-.121-.223-.344-.344-.504-.226-.235-.34-.606-.48-.895-.153-.246-.211-.523-.364-.773-.144-.399-.175-.86-.375-1.242-.129-.426-.12-.817-.18-1.266.032-.91-.09-1.707.141-2.566Zm0 0" style="stroke:none;fill-rule:nonzero;fill:#9378ca;fill-opacity:1"/>
  <path d="m9.96 9 .122.004c.055.426-.027.894-.062 1.316.02.477-.043.973.05 1.442.043.27-.062.504.11.73.004.11-.012.219 0 .328.183.371.297.79.351 1.196.184.207.235.464.375.695.067.105.067.21.106.324.093.16.215.293.351.422.106.188.121.398.278.563.14.144.203.367.379.46.203.118.183.352.375.465.128.078.168.196.218.328-.226-.027-.285-.164-.394-.335-.281-.184-.442-.465-.676-.7-.063-.238-.105-.27-.293-.422-.043-.398-.434-.546-.469-.925a1.296 1.296 0 0 0-.113-.297c-.195-.14-.227-.39-.32-.614.015-.136.039-.218-.055-.335-.383-.508-.2-1.141-.402-1.758-.075-.184-.079-.371-.09-.567.027-.008.058-.011.086-.02.011-.12.07-.37-.102-.39-.105-.02-.058-.258-.062-.336.109-.027.004.301.113.274.012-.301-.086-.633-.043-.938.172-.226.254-.633.168-.91Zm0 0" style="stroke:none;fill-rule:nonzero;fill:#957ccd;fill-opacity:1"/>
  <path d="M10.082 9.004C10.168 9 10.25 9 10.332 9c.043.246-.098.527-.11.777-.003.164-.058.317-.03.485.035.207-.083.386-.036.59.063.273-.008.55.07.828.044.14.086.273.079.425 0 .391.136.747.172 1.133.191.457.343.922.578 1.36.078.37.343.593.476.933.098.172.29.274.356.48.047.094.082.25.183.294.203.074.192.328.383.441.195.09.235.317.426.399.11.05.062.265.187.328.118.062.246.113.368.175.203.082.238.305.437.399.191.09.293.258.508.3.133.11.18.176.363.18.227.16.469.13.59.407.137.07.309.093.457.132.223.047.422.153.64.211.11-.011.216-.047.317-.07-.098.113-.2.223-.293.34a4.116 4.116 0 0 1-1.289-.5c-.215-.055-.367-.176-.59-.192-.043-.23-.125-.19-.32-.238-.52-.46-1.223-.8-1.64-1.344-.052-.132-.09-.25-.22-.328-.19-.113-.171-.347-.374-.465-.176-.093-.239-.316-.38-.46-.156-.165-.171-.375-.277-.563a1.906 1.906 0 0 1-.351-.422c-.04-.113-.04-.219-.106-.324-.14-.23-.191-.488-.375-.695a3.899 3.899 0 0 0-.351-1.196c-.012-.11.004-.218 0-.328-.172-.226-.067-.46-.11-.73-.093-.469-.03-.965-.05-1.442.035-.422.117-.89.062-1.316Zm0 0" style="stroke:none;fill-rule:nonzero;fill:#987fce;fill-opacity:1"/>
  <path d="M10.332 9h.055c.16 0 .324-.004.484-.02.145.016.281.024.422.063l-.133.016h-.351c-.094 0-.192 0-.286.004.122.136.008.32-.003.484a2.05 2.05 0 0 1-.114.594c.074.254-.062.46-.011.71.078.32.02.645.09.97-.044.218.046.406.046.62-.008.106.086.2.121.301.082.278.063.559.22.805.112.156.1.328.163.5.098.21.137.422.305.594.195.21.164.515.375.707.164.152.2.39.379.52.117.097.187.26.27.39.374.426.784.808 1.171 1.222.281.149.535.34.777.543.344.168.614.422.989.52.453.227.93.441 1.422.559.054-.02.105-.04.152-.063-.04.059-.078.117-.129.168-.101.023-.207.059-.316.07-.22-.058-.418-.164-.64-.21-.15-.04-.321-.063-.458-.133-.121-.278-.363-.247-.59-.407-.183-.004-.23-.07-.363-.18-.215-.042-.316-.21-.508-.3-.2-.094-.234-.317-.437-.399-.121-.062-.25-.113-.368-.175-.125-.063-.078-.278-.187-.328-.191-.082-.23-.31-.426-.399-.191-.113-.18-.367-.383-.441-.101-.043-.136-.2-.183-.293-.067-.207-.258-.309-.356-.48-.133-.34-.398-.563-.476-.934-.235-.438-.387-.903-.578-1.36-.036-.386-.172-.742-.172-1.133.008-.152-.035-.285-.078-.425-.079-.278-.008-.555-.07-.828-.048-.204.07-.383.034-.59-.027-.168.028-.32.032-.485.011-.25.152-.53.109-.777Zm0 0" style="stroke:none;fill-rule:nonzero;fill:#9c83d0;fill-opacity:1"/>
  <path d="M27.137 9.031c.11.153.199.32.289.48-.047.036-.2.071-.172.153.07.399.05.793.047 1.195-.016.5.074 1.149-.215 1.582-.035.38-.14.735-.227 1.106a2.9 2.9 0 0 0-.363.871c0 .148-.176.184-.27.293-.007-.2-.011-.399.004-.598.106-.035.063-.078.075-.168h.136c.125-.445.215-.879.422-1.293.02-.3.07-.593.09-.89.082-.43.035-.883.047-1.325-.05-.39-.008-.769-.098-1.16-.054-.156.078-.289.235-.246Zm0 0" style="stroke:none;fill-rule:nonzero;fill:#a68ed7;fill-opacity:1"/>
  <path d="M10.523 9.063c.094-.004.192-.004.286-.004.062.156-.012.293-.036.46-.085.657-.152 1.278-.039 1.942-.023.61.137 1.156.329 1.726.054.477.367.91.488 1.368.09.14.222.207.242.386.008.125.105.172.168.278.207.293.39.601.625.875.082.101.156.183.172.316.172.098.293.219.437.348.211.078.239.3.43.394.121.055.172.176.266.274.25.07.414.265.652.37.27.212.59.302.852.52.128.055.238.114.351.192.16.055.332.062.492.117.117.04.164.164.27.215.18.004.36-.035.543-.043l-.016.086c-.055.05-.105.101-.16.156a1.374 1.374 0 0 1-.152.063c-.493-.118-.97-.332-1.422-.559-.375-.098-.645-.352-.989-.52a4.472 4.472 0 0 0-.777-.543c-.387-.414-.797-.796-1.172-1.222-.082-.13-.152-.293-.27-.39-.179-.13-.214-.368-.378-.52-.211-.192-.18-.496-.375-.707-.168-.172-.207-.383-.305-.594-.062-.172-.05-.344-.164-.5-.156-.246-.137-.527-.219-.805-.035-.101-.129-.195-.12-.3 0-.215-.09-.403-.048-.622-.07-.324-.011-.648-.09-.968-.05-.25.086-.457.012-.711a2.05 2.05 0 0 0 .114-.594c.011-.164.125-.348.003-.485Zm0 0" style="stroke:none;fill-rule:nonzero;fill:#a088d3;fill-opacity:1"/>
  <path d="M10.809 9.059h.351c-.21.37-.172.734-.23 1.14-.035.367.03.75-.043 1.106-.047.136.113.183.09.336.007.613.105 1.218.378 1.773.063.152.157.32.145.484-.016.204.156.344.262.493.258.535.574 1.058.937 1.527.207.2.364.434.574.629.133.133.293.223.399.383.152.222.394.234.535.48.207.031.34.172.52.27.449.32 1.015.547 1.52.77.171.09.37.07.542.16.117.066.246-.008.379.046l-.117.14c-.184.009-.363.048-.543.044-.106-.05-.153-.176-.27-.215-.16-.055-.332-.063-.492-.117a1.909 1.909 0 0 0-.351-.192c-.262-.218-.582-.308-.852-.52-.238-.105-.402-.3-.652-.37-.094-.098-.145-.219-.266-.274-.191-.093-.219-.316-.43-.394-.144-.13-.265-.25-.437-.348-.016-.133-.09-.215-.172-.316-.234-.274-.418-.582-.625-.875-.063-.106-.16-.153-.168-.278-.02-.18-.152-.246-.242-.386-.121-.457-.434-.89-.489-1.367-.19-.57-.351-1.118-.328-1.727-.113-.664-.046-1.285.04-1.941.023-.168.097-.305.035-.461Zm0 0" style="stroke:none;fill-rule:nonzero;fill:#a48cd6;fill-opacity:1"/>
  <path d="m11.16 9.059.133-.016c.184.016.36.008.539.059l-.371.023c-.11-.004-.16.05-.219.133-.09.722-.199 1.402-.125 2.133.067.285.012.562.117.84.145.386.227.785.313 1.187.183.336.3.695.473 1.035.207.383.437.797.707 1.137.16.105.214.258.316.406.586.559 1.207 1.149 1.89 1.586.356.2.727.352 1.094.523.325.13.657.223.961.391.13-.07.14-.004.254.063-.023.035-.05.066-.074.097-.133-.054-.262.02-.379-.047-.172-.09-.371-.07-.543-.16-.504-.222-1.07-.449-1.52-.77-.18-.097-.312-.238-.519-.269-.14-.246-.383-.258-.535-.48-.106-.16-.266-.25-.399-.383-.21-.195-.367-.43-.574-.629a8.614 8.614 0 0 1-.937-1.527c-.106-.149-.278-.29-.262-.493.012-.164-.082-.332-.145-.484-.273-.555-.37-1.16-.378-1.773.023-.153-.137-.2-.09-.336.074-.356.008-.739.043-1.106.058-.406.02-.77.23-1.14Zm0 0" style="stroke:none;fill-rule:nonzero;fill:#a790d8;fill-opacity:1"/>
  <path d="M11.46 9.125c.009.066.052.148.024.21-.175.552.012 1.153-.152 1.688.133.293.023.567.102.88.082.37.039.71.203 1.062.215.426.258.933.539 1.316.336.614.625 1.196 1.18 1.64.046.278.273.231.402.442.113.2.347.235.441.461.29.121.496.332.742.512.403.21.82.394 1.22.613.222.051.429.153.648.211.21.035.418.063.617.152-.055.09-.117.168-.184.247-.113-.067-.125-.133-.254-.063-.304-.168-.636-.262-.96-.39-.368-.172-.739-.325-1.094-.524-.684-.437-1.305-1.027-1.891-1.586-.102-.148-.156-.3-.316-.406-.27-.34-.5-.754-.707-1.137-.172-.34-.29-.7-.473-1.035-.086-.402-.168-.8-.313-1.188-.105-.277-.05-.554-.117-.84-.074-.73.035-1.41.125-2.132.059-.082.11-.137.219-.133Zm0 0" style="stroke:none;fill-rule:nonzero;fill:#ab94db;fill-opacity:1"/>
  <path d="m11.46 9.125.372-.023c.16.015.32.02.48.058-.082.008-.164.016-.246.027-.113-.003-.23-.007-.343-.003.02.03.039.062.054.093-.152.11-.136.328-.168.504.07.348-.066.668-.02 1.02.032.207.032.398-.058.594.168.343.176.765.305 1.125.074.222.094.44.117.671.192.192.305.493.317.762.148.207.41.457.359.727.101.215.305.34.402.55.028.07.078.09.137.125.164.118.227.282.3.461.036.114.165.02.223.079.098.125.11.265.282.316.156.059.195.152.246.3.199.18.469.325.668.52.254.153.523.258.761.442.372.207.809.297 1.192.484.254.113.492.063.754.098-.055.09-.11.175-.168.258-.2-.09-.406-.118-.617-.153-.22-.058-.426-.16-.649-.21-.398-.22-.816-.403-1.219-.614-.246-.18-.453-.39-.742-.512-.094-.226-.328-.262-.441-.46-.13-.212-.356-.165-.403-.442-.554-.445-.843-1.027-1.18-1.64-.28-.384-.323-.891-.538-1.317-.164-.352-.121-.692-.203-1.063-.079-.312.03-.586-.102-.879.164-.535-.023-1.136.152-1.687.028-.063-.015-.145-.023-.211Zm0 0" style="stroke:none;fill-rule:nonzero;fill:#af99de;fill-opacity:1"/>
  <path d="M11.723 9.184c.113-.004.23 0 .343.004-.152.238-.132.578-.18.843-.179.317.052.555-.03.867-.067.301-.06.532.074.809-.032.383.05.777.187 1.133.121.3.176.644.352.914.125.187.097.41.258.578.191.227.261.512.484.715.191.25.402.476.598.723.308.253.566.558.89.793.34.304.73.457 1.117.683.274.215.61.246.914.406.223.125.524.02.7.258.113-.062.14-.156.285-.094-.016.059-.035.118-.047.176l-.074.063c-.262-.035-.5.015-.754-.098-.383-.187-.82-.277-1.192-.484-.238-.184-.507-.29-.761-.442-.2-.195-.469-.34-.668-.52-.051-.148-.09-.241-.246-.3-.172-.05-.184-.191-.282-.316-.058-.06-.187.035-.222-.079-.074-.18-.137-.343-.301-.46-.059-.036-.11-.055-.137-.126-.097-.21-.3-.335-.402-.55.05-.27-.211-.52-.36-.727a1.194 1.194 0 0 0-.316-.762c-.023-.23-.043-.449-.117-.671-.129-.36-.137-.782-.305-1.125.09-.196.09-.387.059-.594-.047-.352.09-.672.02-1.02.03-.176.015-.394.167-.504a1.164 1.164 0 0 0-.054-.093Zm0 0" style="stroke:none;fill-rule:nonzero;fill:#b49de1;fill-opacity:1"/>
  <path d="M12.066 9.188c.082-.012.164-.02.246-.028.204.047.528.027.696.145a2.749 2.749 0 0 1-.403-.032.715.715 0 0 0-.351-.02c-.04.2-.047.4-.121.595-.086.21-.004.398-.035.613.015.367.015.746-.024 1.11.153.273.125.562.203.87.098.317.121.63.301.899.129.363.293.742.496 1.07.348.395.602.93 1.024 1.254.312.406.882.684 1.23 1.047.059.094.18.023.27.09.445.398 1.16.5 1.691.762.168.085.434.003.426.253-.145-.062-.172.032-.285.094-.176-.238-.477-.133-.7-.258-.304-.16-.64-.191-.914-.406-.386-.226-.777-.379-1.117-.683-.324-.235-.582-.54-.89-.793-.196-.247-.407-.473-.598-.723-.223-.203-.293-.488-.484-.715-.16-.168-.133-.39-.258-.578-.176-.27-.23-.613-.352-.914a2.614 2.614 0 0 1-.187-1.133c-.133-.277-.14-.508-.075-.809.082-.312-.148-.55.032-.867.047-.265.027-.605.18-.844Zm0 0" style="stroke:none;fill-rule:nonzero;fill:#b8a2e3;fill-opacity:1"/>
  <path d="M12.254 9.254a.715.715 0 0 1 .351.02c-.171.152-.085.496-.16.706-.008.336-.12.676-.035 1 .008.243.043.493.004.73.121.528.23 1.11.496 1.595.106.297.242.582.414.847.051.075 0 .16.082.22.207.16.309.378.41.612.274.258.606.496.797.82.282.122.469.407.746.512.211.047.27.262.48.305.18.043.188.203.403.16.192.133.403.235.617.356.184-.028.2-.055.325.097.187-.074.265.094.457.11.144.05.242 0 .375-.047a4.374 4.374 0 0 0-.086.2c-.059.097-.121.194-.18.292l-.035.027c.008-.25-.258-.168-.426-.253-.531-.262-1.246-.364-1.691-.762-.09-.067-.211.004-.27-.09-.348-.363-.918-.64-1.23-1.047-.422-.324-.676-.86-1.024-1.254a5.664 5.664 0 0 1-.496-1.07c-.18-.27-.203-.582-.3-.899-.079-.308-.051-.597-.204-.87.04-.364.04-.743.024-1.11.03-.215-.051-.402.035-.613.074-.196.082-.395.12-.594Zm0 0" style="stroke:none;fill-rule:nonzero;fill:#bca7e6;fill-opacity:1"/>
  <path d="M25.07 9.234c.313.493.473 1.086.66 1.633.04.352.196.664.188 1.012-.035-.066-.055-.14-.078-.215-.168.113-.258.09-.45.07-.09.067-.206.16-.245.27.05.289.152.547.101.848-.035-.125-.058-.254-.086-.383-.035-.223-.07-.453-.144-.668a4.523 4.523 0 0 0-.282-1.012 2.337 2.337 0 0 0-.168-.48l-.105-.282c.023-.109.008-.214.094-.293.168-.171.336-.343.515-.5Zm0 0" style="stroke:none;fill-rule:nonzero;fill:#291c4d;fill-opacity:1"/>
  <path d="M12.605 9.273c.133.024.266.028.403.032l.031.035c-.16.031-.219.02-.273.191-.141.262-.11.516-.09.801-.196.54-.012 1.273.066 1.836.258.418.215.898.465 1.328.152.227.2.484.387.691.183.297.394.563.582.856.261.14.41.375.629.574.172.203.414.29.605.469.547.41 1.285.66 1.906.918.196.066.407.039.606.11.082.03.133-.032.21-.06-.038.083-.077.165-.116.243-.133.047-.23.098-.375.047-.192-.016-.27-.184-.457-.11-.125-.152-.141-.125-.325-.097-.214-.121-.425-.223-.617-.356-.215.043-.222-.117-.402-.16-.211-.043-.27-.258-.48-.305-.278-.105-.465-.39-.747-.511-.191-.325-.523-.563-.797-.82-.101-.235-.203-.454-.41-.614-.082-.059-.031-.144-.082-.219a4.056 4.056 0 0 1-.414-.847c-.265-.485-.375-1.067-.496-1.594.04-.238.004-.488-.004-.73-.086-.325.027-.665.035-1 .075-.211-.011-.555.16-.708Zm0 0" style="stroke:none;fill-rule:nonzero;fill:#c1ace9;fill-opacity:1"/>
  <path d="M6.352 9.336c.066.086.136.172.187.266-.027.144-.172.128-.203.25.039.507.031 1.023.039 1.535-.063.312-.008.648.004.965.035.101.008.378.094.418.035-.157-.059-.45.113-.528.031.39 0 .77.117 1.145-.047.308.05.582.145.87.035-.023.07-.05.105-.073.106.367.086.77.164 1.148.32-.016.305.406.328.629-.035.2.192-.02.215.129.063.129.067.242.07.383.118.101.094.168.106.312.074.055.168.086.238.156.043.176.047.403.215.508.145.082.168.258.29.371.112.133.241.227.276.407.079.168.13.402.368.347-.004.137-.067.168.09.235 0 .203.207.214.324.351.02.082.027.168.047.254.097.031.226.047.308.11.078.152.055.308.235.378.074.051.07.028.14-.011.031.101.059.207.098.304.207.051.437.133.605.266-.105.133.075.195.125.32.246-.004.297.176.477.305.055-.035.11-.117.18-.063.035.075.058.168.113.235.098.055.215.062.273.164.082.098.102.168.246.14.133-.035.114.11.176.192.11-.07.152-.059.277-.031-.03.054-.066.105-.093.16.144-.008.285-.024.426-.031-.168.105-.352.18-.54.242-.187-.059-.332.011-.515.035-.004-.07 0-.36-.102-.332-.25.058-.258-.25-.496-.317-.023.07.035.157-.078.098-.055-.09-.02-.242-.148-.258-.223-.043-.352-.203-.555-.28a.934.934 0 0 1 .05-.083c-.116-.078-.222-.16-.366-.184-.118-.125-.102-.386-.313-.378-.125.003.094-.094-.012-.11-.191-.058-.195-.27-.367-.336-.23-.078-.21-.336-.433-.402-.118-.043-.153-.227-.23-.317-.052.016-.095.04-.145.06-.06-.099-.102-.2-.192-.278-.219-.2-.226-.528-.508-.68.012-.238-.129-.383-.285-.543-.031-.18-.05-.168-.207-.242-.113-.203-.012-.453-.3-.492-.04-.23-.188-.399-.255-.621-.12-.188-.257-.332-.222-.575-.219-.234-.383-.578-.367-.906-.008-.129-.102-.238-.102-.375-.016-.078-.012-.234-.078-.281-.035.098-.07.195-.133.285a.51.51 0 0 1 .066-.379c-.156-.414-.167-.812-.21-1.242-.114.07-.09.187-.157.3-.043-.23.02-.437.047-.66-.047-.382-.152-.75-.137-1.14-.054-.3-.035-.594-.046-.899-.02-.12-.094-.101-.188-.085.195-.387.363-.79.606-1.141Zm0 0" style="stroke:none;fill-rule:nonzero;fill:#6a4da7;fill-opacity:1"/>
  <path d="m13.04 9.34.046.027c-.094.219-.172.39-.102.633.075.195-.101.305-.074.5.035.3-.023.598-.008.902.051.305.055.61.16.907.043.316.235.578.297.886.047.184.145.336.246.492.118.184.184.415.36.543.187.227.281.5.508.7.172.164.32.355.484.52.18.003.219.019.313.179.05.133.132.121.246.176.234.172.421.449.734.472.113.012.102.246.242.203.258-.054.551.149.79.192.218.023.41.121.624.144 0 .051-.004.106-.008.157.11-.035.176-.098.297-.051-.02.047-.043.09-.062.133-.078.027-.13.09-.211.058-.2-.07-.41-.043-.606-.11-.62-.257-1.359-.507-1.906-.917-.191-.18-.433-.266-.605-.469-.22-.199-.367-.433-.63-.574-.187-.293-.398-.559-.581-.855-.188-.208-.235-.465-.387-.692-.25-.43-.207-.91-.465-1.328-.078-.563-.262-1.297-.066-1.836-.02-.285-.051-.539.09-.8.054-.173.113-.16.273-.192Zm0 0" style="stroke:none;fill-rule:nonzero;fill:#c6b1ec;fill-opacity:1"/>
  <path d="m13.086 9.367.047.012c.086.02.172.035.258.055.02.156-.059.308-.051.472-.086.18-.18.32-.133.531.082.336.055.668.031 1.008.07.383.145.766.215 1.145.235.492.402.988.7 1.46.218.231.35.532.617.704.316.27.554.598.914.816.367.22.734.45 1.125.614.257.07.496.175.734.277.336-.016.516.219.832-.008a4.896 4.896 0 0 0-.082.344c-.031.039-.063.082-.098.125-.12-.047-.187.015-.297.05.004-.05.008-.105.008-.156-.215-.023-.406-.12-.625-.144-.238-.043-.531-.246-.789-.192-.14.043-.129-.19-.242-.203-.313-.023-.5-.3-.734-.472-.114-.055-.196-.043-.246-.176-.094-.16-.133-.176-.313-.18-.164-.164-.312-.355-.484-.52-.227-.199-.32-.472-.508-.699-.176-.128-.242-.359-.36-.543-.101-.156-.199-.308-.246-.492-.062-.308-.254-.57-.296-.886-.106-.297-.11-.602-.16-.907-.016-.304.042-.601.007-.902-.027-.195.149-.305.074-.5-.07-.242.008-.414.102-.633Zm0 0" style="stroke:none;fill-rule:nonzero;fill:#cab6ef;fill-opacity:1"/>
  <path d="M13.133 9.379c.25-.043.449 0 .68.086a1.39 1.39 0 0 1-.422-.031c-.086-.02-.172-.036-.258-.055Zm0 0" style="stroke:none;fill-rule:nonzero;fill:#ae9bd6;fill-opacity:1"/>
  <path d="M16.797 9.36c.21.046.328.273.504.398.195.004.383-.031.582.012.676.027 1.36.003 2.039.011 1.312.004 2.633-.011 3.945.008v.043c-.472.027-.945-.012-1.414.016v.043c.61.039 1.227-.024 1.832 0-.008-.102-.023-.2-.031-.301.074.144.137.293.207.437l.105.282c-.011.054-.02.109-.03.164-.083-.04-.083-.051-.169-.012-.129-.149-.152-.16-.36-.133-.027.16.153.074.231.16-.508.02-1.035.016-1.543.004v-.043c.309-.027.621.008.93-.015v-.047c-1.79-.016-3.594-.004-5.387-.004-.258-.028-.16.324-.367.262-.277-.512-.703-.856-1.074-1.286Zm0 0" style="stroke:none;fill-rule:nonzero;fill:#6f41d4;fill-opacity:1"/>
  <path d="M13.39 9.434c.145.03.274.043.422.03.126.032.243.075.36.122-.14.004-.277-.031-.414-.031-.18.207-.149.636-.223.89.031.309.035.602.008.907.102.277.086.57.176.851.086.258.086.496.226.735.16.285.25.593.461.855.211.336.442.676.754.926.227.344.676.554 1.008.789.344.172.691.387 1.062.492.317.047.532.23.868.18.097-.028.109.054.168.11.074-.044.148-.212.242-.153a1.506 1.506 0 0 1-.133.316c-.316.227-.496-.008-.832.008-.238-.102-.477-.207-.734-.277-.391-.164-.758-.395-1.125-.614-.36-.218-.598-.547-.914-.816-.266-.172-.399-.473-.618-.703-.297-.473-.464-.969-.699-1.461-.07-.38-.144-.762-.215-1.145.024-.34.051-.672-.031-1.008-.047-.21.047-.351.133-.53-.008-.165.07-.317.05-.473Zm0 0" style="stroke:none;fill-rule:nonzero;fill:#cfbcf3;fill-opacity:1"/>
  <path d="M13.758 9.555c.137 0 .273.035.414.03.195.02.367.083.539.173l-.125.02c-.133-.04-.383-.188-.504-.079-.113.371-.11.778-.102 1.16-.054.825.227 1.684.582 2.418.118.2.247.395.368.594.125.113.242.188.316.348.2.289.55.511.836.719.113.078.211.21.34.25.308.085.59.37.914.421.102.02.203.063.305.079.273-.012.547.14.812.175.05-.047.098-.097.149-.144-.004.058-.004.117-.008.176-.032.078-.059.16-.086.242-.094-.059-.168.11-.242.152-.059-.055-.07-.137-.168-.11-.336.051-.551-.132-.868-.179-.37-.105-.718-.32-1.062-.492-.332-.235-.781-.445-1.008-.79-.312-.25-.543-.59-.754-.925-.21-.262-.3-.57-.46-.855-.141-.239-.141-.477-.227-.735-.09-.281-.074-.574-.176-.851a4.686 4.686 0 0 0-.008-.907c.074-.254.043-.683.223-.89Zm0 0" style="stroke:none;fill-rule:nonzero;fill:#d5c3f7;fill-opacity:1"/>
  <path d="M27.426 9.512c.187.285.37.593.469.922-.098.082-.2.164-.274.265-.058.29.02.61-.05.903-.028.164-.083.312-.134.464-.019.297-.062.59-.093.887a2.869 2.869 0 0 0-.157.578c-.242.223-.257.649-.394.903-.168.191-.246.398-.305.64-.031.133-.148.188-.261.239L26.215 15l.012-.29c.093-.108.27-.144.27-.292a2.9 2.9 0 0 1 .362-.871c.086-.371.192-.727.227-1.106.289-.433.2-1.082.215-1.582.004-.402.023-.796-.047-1.195-.027-.082.125-.117.172-.152Zm0 0" style="stroke:none;fill-rule:nonzero;fill:#a189d4;fill-opacity:1"/>
  <path d="M14.586 9.777c-.184.203-.09.54-.16.805-.082.332.035.61.039.938.035.468.27.945.406 1.39.152.195.18.43.375.582.149.305.434.426.633.688.144.191.348.285.527.433.203.18.469.219.668.407.414.168.832.332 1.285.34.125 0 .215.015.325.07-.024.097-.047.195-.082.289-.051.047-.098.097-.149.144-.265-.035-.539-.187-.812-.175-.102-.016-.203-.06-.305-.079-.324-.05-.606-.336-.914-.421-.129-.04-.227-.172-.34-.25-.285-.208-.637-.43-.836-.72-.074-.16-.191-.234-.316-.347-.121-.2-.25-.394-.367-.594-.356-.734-.637-1.593-.583-2.418-.007-.382-.011-.789.102-1.16.121-.11.371.04.504.078Zm0 0" style="stroke:none;fill-rule:nonzero;fill:#ddccfc;fill-opacity:1"/>
  <path d="m14.586 9.777.125-.02c.348.126.73.255 1.023.49-.222-.036-.398-.138-.609-.208-.05.133.04.254 0 .399-.04.253.07.515-.035.746-.063.214.008.468.125.656.055.21-.008.414.113.613.254.45.516.98.973 1.246.363.426.883.817 1.449.899.344.082.703.336 1.04.109l.007.063a8.946 8.946 0 0 1-.113.66.657.657 0 0 0-.325-.07c-.453-.008-.87-.172-1.285-.34-.199-.188-.465-.227-.668-.407-.18-.148-.383-.242-.527-.433-.2-.262-.484-.383-.633-.688-.195-.152-.223-.387-.375-.582-.137-.445-.371-.922-.406-1.39-.004-.329-.121-.606-.04-.938.071-.266-.023-.602.16-.805Zm0 0" style="stroke:none;fill-rule:nonzero;fill:#e3d4fd;fill-opacity:1"/>
  <path d="M15.125 10.04c.21.07.387.17.61.206.105.047.203.102.296.164-.07.02-.144.043-.21.07-.032.125-.012.266-.005.391.036.32-.004.606.125.91.059.125.172.235.246.348.028.121.024.25.063.367.098.117.234.168.281.309.074.18.164.34.34.441.34.172.567.45.942.563.199.058.433.207.64.136.129-.093.274-.082.281-.27l.047.071c0 .32-.008.64.008.961-.336.227-.695-.027-1.039-.11-.566-.081-1.086-.472-1.45-.898-.456-.265-.718-.797-.972-1.246-.121-.2-.058-.402-.113-.613-.117-.188-.188-.442-.125-.656.105-.23-.004-.493.035-.746.04-.145-.05-.266 0-.399Zm0 0" style="stroke:none;fill-rule:nonzero;fill:#ebe0fe;fill-opacity:1"/>
  <path d="M24.008 10.328c.207-.027.23-.015.36.133.085-.04.085-.027.167.012.012-.055.02-.11.031-.164.075.156.13.312.168.48 0 .113.016.227.028.34-.828.07-1.672.012-2.5.031-.309.027-.594-.078-.903-.062-.879.004-1.761 0-2.64 0-.176-.012-.328.117-.383.273a1.872 1.872 0 0 1-.113-.074c-.114-.223-.223-.442-.352-.652.207.062.11-.29.367-.262 1.793 0 3.598-.012 5.387.004v.047c-.309.023-.621-.012-.93.015v.043c.508.012 1.035.016 1.543-.004-.078-.086-.258 0-.23-.16Zm0 0" style="stroke:none;fill-rule:nonzero;fill:#6e3fd0;fill-opacity:1"/>
  <path d="M5.934 10.563c.011.304-.008.597.046.898-.015.39.09.758.137 1.14-.027.223-.09.43-.047.66.067-.113.043-.23.157-.3.043.43.054.828.21 1.242a.51.51 0 0 0-.066.379c.063-.09.098-.187.133-.285.066.047.062.203.078.281 0 .137.094.246.102.375-.016.328.148.672.367.906-.035.243.101.387.222.575.067.222.215.39.254.62.29.04.188.29.301.493.156.074.176.062.207.242.156.16.297.305.285.543.282.152.29.48.508.68.09.078.133.18.192.277.05-.02.093-.043.144-.059.078.09.113.274.23.317.223.066.204.324.434.402.172.067.176.278.367.336.106.016-.113.113.012.11.211-.008.195.253.313.378.144.024.25.106.367.184a.934.934 0 0 0-.051.082c.203.078.332.238.555.281.129.016.093.168.148.258.113.059.055-.027.078-.098.238.067.246.375.496.317.102-.027.098.262.102.332.183-.024.328-.094.515-.035-.25.101-.511.199-.777.242a2.218 2.218 0 0 0-.426.012c-.078-.043-.082-.168-.109-.246-.066-.004-.238.074-.246-.028-.04-.207-.238.012-.317-.164-.085-.191-.261-.242-.406-.379-.14-.117-.36-.152-.469-.297-.039-.047-.117-.058-.168-.09-.109-.195-.113-.394-.351-.484-.191-.074-.176-.285-.344-.375-.226-.113-.324-.41-.504-.574-.082-.04-.172-.07-.246-.117-.168-.18-.16-.399-.281-.606-.063.04-.106.09-.188.082-.05-.222-.097-.566-.351-.644-.145-.102-.164-.367-.23-.528-.044.016-.126.141-.157.075-.129-.223.012-.578-.285-.688-.078-.12-.043-.094-.156-.027-.028-.09-.012-.13.02-.211-.032-.18-.106-.352-.153-.524-.04.032-.074.063-.113.094-.22-.363-.176-.918-.414-1.262-.27-.898-.344-1.878-.5-2.8.02-.211.05-.422-.02-.625l-.027-.102c.008-.219.015-.437.004-.656-.043.031-.086.066-.13.098.102-.266.235-.536.36-.793.094-.016.168-.036.188.085Zm0 0" style="stroke:none;fill-rule:nonzero;fill:#6649a3;fill-opacity:1"/>
  <path d="M16.031 10.41c.422.242.813.559 1.145.914.687.645 1.144 1.418 1.562 2.25l-.004.102c-.007.187-.152.176-.28.27-.208.07-.442-.079-.642-.137-.375-.114-.601-.391-.94-.563-.177-.101-.267-.262-.34-.441-.048-.14-.184-.192-.282-.309-.04-.117-.035-.246-.063-.367-.074-.113-.187-.223-.246-.348-.129-.304-.09-.59-.125-.91-.007-.125-.027-.266.004-.39.067-.028.14-.051.211-.07Zm0 0" style="stroke:none;fill-rule:nonzero;fill:#f3edfc;fill-opacity:1"/>
  <path d="M27.895 10.434c.09.183.242.382.234.593-.203.215-.102.602-.274.864.032.273-.082.507-.117.777-.027.215-.058.43-.093.645-.036.222-.196.37-.247.585-.058.184-.062.372-.203.516-.191.211-.191.555-.375.766-.246.265-.242.593-.59.773a5.004 5.004 0 0 1-.003-.64c.113-.051.23-.106.261-.239.059-.242.137-.449.305-.64.137-.254.152-.68.395-.903.035-.207.082-.386.156-.578.031-.297.074-.59.093-.887.051-.152.106-.3.133-.464.07-.293-.008-.614.051-.903.074-.101.176-.183.274-.265Zm0 0" style="stroke:none;fill-rule:nonzero;fill:#9c83d1;fill-opacity:1"/>
  <path d="M24.734 10.79c.133.32.227.667.282 1.01-.04.106-.012.204-.008.317-.051-.05-.098-.105-.149-.156-.011.043-.027.082-.039.125-.425-.043-.86-.031-1.285-.02v.047c.367.024.742-.011 1.11.016v.043c-1.848.02-3.715 0-5.567.012-.14.007-.23-.04-.348-.106-.023.055.016.285-.062.27-.008-.11-.008-.223-.016-.332-.105-.09-.156-.204-.238-.309a1.16 1.16 0 0 1-.191-.41c.039.027.074.05.113.074.055-.156.207-.285.383-.273.879 0 1.761.004 2.64 0 .309-.016.594.09.903.062.828-.02 1.672.04 2.5-.031-.012-.113-.028-.227-.028-.34Zm0 0" style="stroke:none;fill-rule:nonzero;fill:#6b3ccb;fill-opacity:1"/>
  <path d="M28.129 11.027c.183.301.297.621.39.957-.16-.207-.351.024-.374.196a7.428 7.428 0 0 1-.598 2.164c-.078.219-.223.402-.277.633-.051.187-.235.257-.27.445-.059.25-.238.375-.39.562-.036.188-.22.547-.454.47.004-.466.004-.93.004-1.395V15h.055l.012.313c-.008.214-.016.43.003.64.348-.18.344-.508.59-.773.184-.211.184-.555.375-.766.14-.144.145-.332.203-.516.051-.214.211-.363.247-.585.035-.215.066-.43.093-.645.035-.27.149-.504.117-.777.172-.262.07-.649.274-.864Zm0 0" style="stroke:none;fill-rule:nonzero;fill:#967dcd;fill-opacity:1"/>
  <path d="M5.516 11.172c.011.219.004.437-.004.656-.035-.066-.067-.133-.102-.2l-.023-.12v-.238c.043-.032.086-.067.129-.098Zm0 0" style="stroke:none;fill-rule:nonzero;fill:#463186;fill-opacity:1"/>
  <path d="M5.387 11.27v.238c-.192.625-.258 1.289-.356 1.933-.254-.05-.324-.015-.535.118.25-.77.488-1.582.89-2.29Zm0 0" style="stroke:none;fill-rule:nonzero;fill:#6d40c6;fill-opacity:1"/>
  <path d="m5.387 11.508.023.12c-.039.517-.152 1.048-.133 1.567l-.058.008-.106.016c-.035.347-.027.758-.14 1.086a4.28 4.28 0 0 1 .058-.864c.098-.644.164-1.308.356-1.933Zm0 0" style="stroke:none;fill-rule:nonzero;fill:#3026aa;fill-opacity:1"/>
  <path d="M5.41 11.629c.035.066.067.133.102.2l.027.1c-.02.212-.043.415.02.626.156.922.23 1.902.5 2.8.101.715.363 1.426.601 2.106.617 1.672 1.633 3.355 3.156 4.344.375.23.766.43 1.18.586-.32.23-.594.082-.976.101a7.817 7.817 0 0 1-1.055-.324c-.219-.14-.434-.266-.692-.324-.41-.293-.785-.598-1.105-.989-.078-.109-.16-.199-.266-.28-.304-.368-.468-.802-.718-1.2-.079-.184-.141-.375-.22-.559-.152-.386-.214-.804-.37-1.187-.074-.453-.18-.91-.207-1.367-.059-.328-.04-.653-.125-.973.004-.074.004-.144.004-.215.027-.625.011-1.254.011-1.879-.02-.52.094-1.05.133-1.566Zm0 0" style="stroke:none;fill-rule:nonzero;fill:#38266b;fill-opacity:1"/>
  <path d="M25.84 11.664c.023.074.043.149.078.215l.035.07c.047.356.137.711.156 1.07a8.27 8.27 0 0 0-.007.54c-.004.421.003.843-.004 1.265a2.33 2.33 0 0 0-.657-.066c-.007-.219.028-.465-.046-.668l-.012-.055c-.004-.187.012-.367-.043-.55a2.677 2.677 0 0 0-.063-.297 8.924 8.924 0 0 1-.03-.336c.05-.301-.052-.559-.102-.848.039-.11.156-.203.246-.27.191.02.28.043.449-.07Zm0 0" style="stroke:none;fill-rule:nonzero;fill:#20163d;fill-opacity:1"/>
  <path d="M18.414 11.707c.082.105.133.219.238.309.008.109.008.222.016.332.078.015.039-.215.062-.27.118.067.207.113.348.106 1.852-.012 3.719.007 5.567-.012v-.043c-.368-.027-.743.008-1.11-.016v-.047c.426-.011.86-.023 1.285.02.012-.043.028-.082.04-.125.05.05.097.105.148.156-.004-.113-.031-.21.008-.316.074.215.109.445.144.668-.012.133-.015.27-.031.402-.79-.07-1.594-.012-2.39-.031h-3.302c-.222-.008-.41.086-.632.027-.04-.137-.063-.27-.153-.383a5.955 5.955 0 0 1-.238-.777Zm0 0" style="stroke:none;fill-rule:nonzero;fill:#6a3ac5;fill-opacity:1"/>
  <path d="M28.52 11.984c.054.164.097.325.097.5-.05.012-.105.02-.156.036-.145.257-.012.543-.156.785-.172.3-.278.64-.34.976-.012.133-.102.207-.16.32-.098.169-.137.38-.29.512-.113.262-.199.57-.402.778-.12.164-.191.418-.351.55-.242.196-.297.493-.586.649l-.024-.102a8.15 8.15 0 0 0 .004-.535c.235.078.418-.281.453-.469.153-.187.332-.312.391-.562.035-.188.219-.258.27-.445.054-.23.199-.415.277-.633.305-.692.512-1.41.598-2.164.023-.172.214-.403.375-.196Zm0 0" style="stroke:none;fill-rule:nonzero;fill:#9277ca;fill-opacity:1"/>
  <path d="M5.54 11.93c.07.203.038.414.019.625-.063-.211-.04-.414-.02-.625Zm0 0" style="stroke:none;fill-rule:nonzero;fill:#4e3786;fill-opacity:1"/>
  <path d="M18.652 12.484c.09.114.114.246.153.383.222.059.41-.035.633-.027h3.3c.797.02 1.602-.04 2.39.031.017-.133.02-.27.032-.402.027.129.05.258.086.383.008.113.02.226.031.335-.011.223-.039.434-.086.649-.078-.055-.125-.102-.23-.094-1.856-.004-3.723 0-5.582-.004-.149-.02-.184.094-.281.172l-.035-.21-.165.01c.032-.073.176-.151.075-.218l-.118-.07a1.544 1.544 0 0 0-.062-.23 2.704 2.704 0 0 1-.14-.708Zm0 0" style="stroke:none;fill-rule:nonzero;fill:#6737c0;fill-opacity:1"/>
  <path d="M28.46 12.52c.052-.016.106-.024.157-.036.121.246.188.473.195.746-.14.07-.3.157-.312.332-.05.317-.129.626-.195.942-.004.059-.11.043-.121.098-.09.238-.18.468-.258.707-.29.14-.106.453-.45.586-.105.3-.199.535-.488.707-.004.359-.304.449-.465.742-.066.14-.164.176-.289.254-.066.05-.007.175-.12.148-.016-.156-.02-.32-.032-.476.012-.098.016-.196.02-.293l.05.011.024.102c.289-.156.344-.453.586-.649.16-.132.23-.386.351-.55.203-.207.29-.516.403-.778.152-.133.191-.343.289-.511.058-.114.148-.188.16-.32.062-.337.168-.677.34-.977.144-.242.011-.528.156-.785Zm0 0" style="stroke:none;fill-rule:nonzero;fill:#8c70c5;fill-opacity:1"/>
  <path d="m26.11 13.02.058.02a9.862 9.862 0 0 0-.008.339c0 .059 0 .121-.004.184l-.054-.004c-.004-.18 0-.36.007-.54Zm0 0" style="stroke:none;fill-rule:nonzero;fill:#695591;fill-opacity:1"/>
  <path d="m5.113 13.219.106-.016v1.559a.844.844 0 0 0 .047.312c0 .07 0 .14-.004.215-.024.082-.047.156-.028.242.07.313.051.649.036.965-.114-.012-.11-.101-.165-.183-.054.074-.097.152-.175.203-.008-.125-.012-.254-.016-.38.016-.355-.012-.71.02-1.062.078-.215.043-.46.03-.683l.009-.086c.113-.328.105-.739.14-1.086Zm0 0" style="stroke:none;fill-rule:nonzero;fill:#21209b;fill-opacity:1"/>
  <path d="m5.219 13.203.058-.008c0 .625.016 1.254-.011 1.88a.844.844 0 0 1-.047-.313v-1.559Zm0 0" style="stroke:none;fill-rule:nonzero;fill:#352586;fill-opacity:1"/>
  <path d="M18.793 13.191c.027.075.047.153.062.23a8.59 8.59 0 0 0-.02.317l-.054.008-.047-.07.004-.102c.035-.125.051-.254.055-.383Zm0 0" style="stroke:none;fill-rule:nonzero;fill:#6545a6;fill-opacity:1"/>
  <path d="M25.277 13.188c.028.097.047.199.063.296-.02.188-.024.371-.016.555l-.012.234c-.12.211-.183.188-.414.188-1.87-.008-3.753.012-5.625-.008v-.047c1.872-.02 3.758 0 5.63-.008.09-.02.175.04.175-.09-.277.047-.555.032-.84.032h-3.957c-.351.008-.71-.02-1.062.015l-.035.204a1.242 1.242 0 0 1-.207-.055c-.04-.191.023-.422-.067-.594-.015-.039-.039-.082-.058-.12l-.016-.052a8.59 8.59 0 0 1 .02-.316l.117.07c.101.067-.043.145-.075.219l.165-.012.035.211c.097-.078.132-.191.28-.172 1.86.004 3.727 0 5.583.004.105-.008.152.04.23.094.047-.215.075-.426.086-.649Zm0 0" style="stroke:none;fill-rule:nonzero;fill:#6635bc;fill-opacity:1"/>
  <path d="M28.813 13.23c.074.344.152.696.183 1.043l-.031.07c-.035-.116-.05-.241-.07-.363a1.27 1.27 0 0 0-.082.34c-.047.157-.133.274-.22.407-.132.257-.206.515-.288.789a1.272 1.272 0 0 0-.086-.067c-.114.235-.16.535-.348.719-.117.172-.176.363-.336.508-.2.16-.18.422-.398.562-.211.133-.164.38-.407.453-.16.254-.375.434-.585.637-.223.043-.145-.039-.188-.219.05-.277.066-.566.125-.84.012.157.016.32.031.477.114.027.055-.098.121-.148.125-.078.223-.114.29-.254.16-.293.46-.383.464-.742.29-.172.383-.407.489-.707.343-.133.16-.446.449-.586.078-.239.168-.47.258-.707.011-.055.117-.04.12-.098.067-.316.145-.625.196-.941.012-.176.172-.262.313-.333Zm0 0" style="stroke:none;fill-rule:nonzero;fill:#8569c1;fill-opacity:1"/>
  <path d="M5.031 13.441a4.28 4.28 0 0 0-.058.864l-.008.086c-.02.058-.035.12-.05.18-.161-.094-.196.023-.313.113-.102.113-.262.14-.403.203.063-.442.184-.899.297-1.328.211-.133.281-.168.535-.118Zm0 0" style="stroke:none;fill-rule:nonzero;fill:#693abd;fill-opacity:1"/>
  <path d="M25.34 13.484c.055.184.039.364.043.551l-.059.004a3.775 3.775 0 0 1 .016-.555Zm0 0" style="stroke:none;fill-rule:nonzero;fill:#3c206d;fill-opacity:1"/>
  <path d="m26.102 13.559.054.004.024.105c-.04.441-.012.89-.02 1.332v.059h-.058c0-.079-.004-.157-.004-.235.007-.422 0-.844.004-1.265Zm0 0" style="stroke:none;fill-rule:nonzero;fill:#38275a;fill-opacity:1"/>
  <path d="M26.18 13.668c.043.145.047.293.05.445-.015.2-.011.399-.003.598l-.012.289h-.055c.008-.441-.02-.89.02-1.332Zm0 0" style="stroke:none;fill-rule:nonzero;fill:#836db1;fill-opacity:1"/>
  <path d="m18.781 13.746.055-.008.016.051c-.016.27-.02.535.003.805-.015.058-.039.117-.058.176l-.008-.063c-.016-.32-.008-.64-.008-.96Zm0 0" style="stroke:none;fill-rule:nonzero;fill:#b096df;fill-opacity:1"/>
  <path d="M18.852 13.79c.02.038.043.081.058.12-.02.223.02.473-.055.684a5.533 5.533 0 0 1-.003-.805Zm0 0" style="stroke:none;fill-rule:nonzero;fill:#754ac3;fill-opacity:1"/>
  <path d="M18.91 13.91c.09.172.027.402.067.594.066.023.136.043.207.055l.035-.204c.351-.035.71-.007 1.062-.015h3.957c.285 0 .563.015.84-.031 0 .129-.086.07-.176.09-1.87.007-3.757-.012-5.629.007v.047c1.872.02 3.754 0 5.625.008.23 0 .293.023.415-.188 0 .149.003.297.05.438v.098a1.642 1.642 0 0 0-.05.308c-.086.16-.38.067-.532.117-1.797.016-3.605 0-5.402.008-.215.031-.266-.16-.48-.117.054.031.113.055.167.082-.09.04-.18.07-.265.117a1.43 1.43 0 0 0-.09.387l-.117.184c.004-.06.004-.118.008-.176.035-.094.058-.192.082-.29.046-.214.082-.437.113-.66.02-.058.043-.117.058-.175.075-.211.036-.461.055-.684Zm0 0" style="stroke:none;fill-rule:nonzero;fill:#6533b8;fill-opacity:1"/>
  <path d="M28.895 13.98c.02.122.035.247.07.364.015.148 0 .289.066.422l.02.046-.024.5c-.023-.082-.043-.16-.066-.238-.238.067-.14.457-.367.578-.133.203-.153.54-.348.711-.148.125-.18.293-.27.453-.32.407-.605.817-.984 1.176-.105.164-.156.285-.344.375-.222.27-.43.547-.789.64.016-.206.078-.39.043-.6.016-.098.032-.2.055-.298.043.18-.035.262.188.22.21-.204.425-.384.585-.638.243-.074.196-.32.407-.453.218-.14.199-.402.398-.562.16-.145.219-.336.336-.508.188-.184.234-.484.348-.719.027.02.058.043.086.067.082-.274.156-.532.289-.79.086-.132.172-.25.218-.406a1.27 1.27 0 0 1 .083-.34Zm0 0" style="stroke:none;fill-rule:nonzero;fill:#7e61bc;fill-opacity:1"/>
  <path d="m25.324 14.04.059-.005.012.055c-.012.207-.016.414-.032.62-.047-.14-.05-.288-.05-.437l.011-.234Zm0 0" style="stroke:none;fill-rule:nonzero;fill:#532c9b;fill-opacity:1"/>
  <path d="M25.395 14.09c.074.203.039.45.046.668-.02.258.043.558-.05.797-.012-.25-.004-.496-.028-.746v-.098c.016-.207.02-.414.032-.621Zm0 0" style="stroke:none;fill-rule:nonzero;fill:#2a184e;fill-opacity:1"/>
  <path d="M28.996 14.273c.067.168.04.32.035.493-.066-.133-.05-.274-.066-.422Zm0 0" style="stroke:none;fill-rule:nonzero;fill:#c0b3dd;fill-opacity:1"/>
  <path d="M4.965 14.39c.012.223.047.47-.031.684-.012-.168-.016-.336-.02-.504.016-.058.031-.12.05-.18Zm0 0" style="stroke:none;fill-rule:nonzero;fill:#3c28a9;fill-opacity:1"/>
  <path d="M4.914 14.57c.004.168.008.336.02.504-.032.352-.004.707-.02 1.063-.215.258-.445.152-.73.226a3.338 3.338 0 0 0-.067.18c-.031-.035-.062-.07-.09-.105a7.554 7.554 0 0 0-.027-.31c.04-.417.117-.835.2-1.241.14-.063.3-.09.402-.203.117-.09.152-.207.312-.114Zm0 0" style="stroke:none;fill-rule:nonzero;fill:#6332b3;fill-opacity:1"/>
  <path d="M25.441 14.758c.23-.008.43.012.657.066 0 .078.004.156.004.235-.004.242.007.468-.016.707-.055.171-.035.347-.09.515-.223-.023-.398-.156-.594 0-.101.149-.062.301-.136.465-.004-.125-.008-.246-.008-.367.047-.117.066-.238.09-.36a.746.746 0 0 0 .023-.414l.02-.05c.093-.239.03-.54.05-.797Zm0 0" style="stroke:none;fill-rule:nonzero;fill:#1a1133;fill-opacity:1"/>
  <path d="M25.363 14.809c.024.25.016.496.028.746l-.02.05h-.039c-.012-.16-.016-.324-.02-.488.008-.105.024-.207.051-.308Zm0 0" style="stroke:none;fill-rule:nonzero;fill:#532b9a;fill-opacity:1"/>
  <path d="M29.05 14.813c.075.144.048.324.052.488-.028.351.054.758-.051 1.094-.024-.36.004-.723-.024-1.082l.024-.5Zm0 0" style="stroke:none;fill-rule:nonzero;fill:#ddd7ee;fill-opacity:1"/>
  <path d="M26.102 15.059h.058c0 .464 0 .93-.004 1.394l-.054-.015c0-.223 0-.45-.016-.672.023-.239.012-.465.016-.707Zm0 0" style="stroke:none;fill-rule:nonzero;fill:#4d397b;fill-opacity:1"/>
  <path d="M28.96 15.074c.024.078.044.156.067.239.028.359 0 .722.024 1.082l-.016.05h-.043a7.167 7.167 0 0 0-.027-.3c-.211.203-.152.433-.23.69-.075-.046-.114-.105-.215-.085-.028.184-.04.457-.29.441-.113.375-.359.668-.644.91-.063.07-.09.266-.207.235-.117-.043-.063.184-.098.25-.066 0-.136-.008-.203-.012-.137.172-.144.524-.418.492-.219.239-.379.473-.715.567.14.101-.027.144-.117.195-.121-.129-.066-.012-.113.086-.094-.144-.047-.324-.05-.484.085-.34.148-.684.237-1.024.035.211-.027.395-.043.602.36-.094.567-.371.79-.64.187-.09.238-.212.343-.376.38-.36.664-.77.985-1.176.09-.16.12-.328.27-.453.194-.172.214-.508.347-.71.226-.122.129-.512.367-.579Zm0 0" style="stroke:none;fill-rule:nonzero;fill:#785bb7;fill-opacity:1"/>
  <path d="M18.898 15.125c.215-.043.266.148.48.117 1.798-.008 3.606.008 5.403-.008.153-.05.446.043.532-.117.003.164.007.328.019.488-.02.102-.027.207-.023.313-.063-.195-.157-.23-.348-.207-1.2.023-2.402.004-3.602.008-.882-.004-1.765.011-2.648-.008a1.43 1.43 0 0 1 .09-.387c.086-.047.176-.078.265-.117-.054-.027-.113-.05-.168-.082Zm0 0" style="stroke:none;fill-rule:nonzero;fill:#6230b3;fill-opacity:1"/>
  <path d="M5.262 15.29c.086.32.066.644.125.972.027.457.133.914.207 1.367-.04.3.187.531-.008.773.144.008.2-.086.16.118-.148.023-.277.007-.398.117l-.024-.211c-.054.078-.105.164-.16.242a8.177 8.177 0 0 1-.187-1.266c-.004-.238.035-.511-.04-.734a1.99 1.99 0 0 1-.007-.152c.078-.051.12-.13.175-.203.055.082.051.171.165.183.015-.316.035-.652-.036-.965-.02-.086.004-.16.028-.242Zm0 0" style="stroke:none;fill-rule:nonzero;fill:#29228d;fill-opacity:1"/>
  <path d="M6.059 15.355c.238.344.195.899.414 1.262.039-.031.074-.062.113-.094.047.172.121.344.152.524-.031.082-.047.121-.02.21.114-.066.079-.093.157.028.297.11.156.465.285.688.031.066.113-.059.156-.075.067.16.086.426.23.528.255.078.302.422.352.644.082.008.125-.043.188-.082.121.207.113.426.281.606.074.047.164.078.246.117.18.164.278.46.504.574.168.09.153.3.344.375.238.09.242.29.351.485.051.03.13.043.168.09.11.144.329.18.47.296.144.137.32.188.405.38.079.175.278-.044.317.163.008.102.18.024.246.028.027.078.031.203.11.246.144-.016.28-.024.425-.012a1.49 1.49 0 0 1-.957.055 6.913 6.913 0 0 1-1.18-.586c-1.523-.989-2.539-2.672-3.156-4.344-.238-.68-.5-1.39-.601-2.106Zm0 0" style="stroke:none;fill-rule:nonzero;fill:#5f449a;fill-opacity:1"/>
  <path d="M25.332 15.605h.04a.746.746 0 0 1-.024.415l-.04-.102c-.003-.105.005-.211.024-.313Zm0 0" style="stroke:none;fill-rule:nonzero;fill:#371e68;fill-opacity:1"/>
  <path d="m25.309 15.918.039.102c-.024.12-.043.242-.09.359-.051.11-.067.215-.156.3.003-.074.015-.148.02-.222-.126-.078-.259-.082-.403-.078-1.934.008-3.989-.008-5.91.008-.11-.063-.086.043-.141.11l-.105-.083c-.094.121-.172.258-.27.383.023-.117.05-.23.082-.344.059-.101.098-.203.133-.316.027-.082.055-.164.086-.242l.117-.184c.883.02 1.766.004 2.648.008 1.2-.004 2.403.015 3.602-.008.191-.024.285.012.348.207Zm0 0" style="stroke:none;fill-rule:nonzero;fill:#612faf;fill-opacity:1"/>
  <path d="M26.086 15.766c.016.222.016.449.016.671a12.4 12.4 0 0 0 0 .54 3.688 3.688 0 0 1-.02.293c-.059.273-.074.562-.125.84-.023.097-.039.199-.055.296-.09.34-.152.684-.238 1.024-.133.375-.234.761-.367 1.14-.125.262-.215.54-.336.805-.07.121-.133.246-.18.375-.207.34-.351.71-.566 1.047-.137.215-.262.441-.406.656-.286.371-.563.758-.832 1.14-.262.192-.403.47-.641.684-.309.285-.586.625-.926.875-.52.489-1.098.942-1.734 1.27-.172.078-.34.117-.528.137a9.79 9.79 0 0 1-1.253.18 27.64 27.64 0 0 0-2.13-.005c-.277-.004-.546-.054-.824-.078l-.004-.054c.422.023.79-.098 1.196-.196.883-.218 1.805-.504 2.601-.96.356-.137.657-.364.996-.536a2.44 2.44 0 0 0 .618-.394c.363-.262.707-.532 1.047-.82 1.023-.942 1.957-1.954 2.671-3.153.516-.828.93-1.73 1.278-2.64.254-.618.414-1.29.55-1.946a4.41 4.41 0 0 0 .102-.676c.055-.168.035-.343.09-.515Zm0 0" style="stroke:none;fill-rule:nonzero;fill:#38266a;fill-opacity:1"/>
  <path d="M4 16.129c.012.101.02.203.027.308l-.011.247-.067-.02c.012-.184 0-.36.051-.535Zm0 0" style="stroke:none;fill-rule:nonzero;fill:#a78bd1;fill-opacity:1"/>
  <path d="M4.914 16.137c.004.125.008.254.016.379 0 .05.004.101.008.152-.024.242-.02.488-.016.73 0 .133 0 .266-.004.399-.094-.074-.172-.035-.277-.031-.258.05-.387-.207-.614 0-.011-.36 0-.723-.011-1.082l.011-.247c.028.036.059.07.09.106.02-.059.043-.121.067-.18.285-.074.515.032.73-.226Zm0 0" style="stroke:none;fill-rule:nonzero;fill:#5d2ba9;fill-opacity:1"/>
  <path d="M28.965 16.145c.012.097.02.199.027.3a.873.873 0 0 0 .004.414c-.02.246-.066.489-.113.727l-.04-.121c-.144.074-.085.203-.113.34-.039-.02-.113-.149-.148-.078-.137.175-.3.316-.45.48-.03.168-.116.305-.21.445l-.047-.168c-.113.184-.168.391-.285.57-.078-.038-.102-.14-.172-.034-.172.23-.39.394-.566.62-.192.008-.211.165-.332.282-.254.285-.614.226-.75.629-.122.004-.247-.004-.368 0 0 .097.028.14-.062.207-.016-.063-.031-.125-.043-.188.133-.379.234-.765.367-1.14.004.16-.043.34.05.484.048-.098-.007-.215.114-.086.09-.05.258-.094.117-.195.336-.094.496-.328.715-.567.274.032.281-.32.418-.492.067.004.137.012.203.012.035-.066-.02-.293.098-.25.117.031.144-.164.207-.234.285-.243.531-.536.644-.91.25.015.262-.258.29-.442.101-.02.14.04.214.086.078-.258.02-.488.23-.691Zm0 0" style="stroke:none;fill-rule:nonzero;fill:#7457b3;fill-opacity:1"/>
  <path d="M25.996 16.281c-.016.23-.05.45-.101.676-.137.656-.297 1.328-.551 1.945-.102-.062-.18-.144-.313-.12-.062.023-.078.116-.113.167-.016-.054-.031-.11-.043-.164-.125.18-.121.45-.285.59.062-.305.191-.586.262-.887.05-.136.09-.277.117-.418.097-.34.168-.695.21-1.043a2.14 2.14 0 0 1 .087-.28c.074-.165.035-.317.136-.466.196-.156.371-.023.594 0Zm0 0" style="stroke:none;fill-rule:nonzero;fill:#170f2c;fill-opacity:1"/>
  <path d="M18.809 16.387c1.921-.016 3.976 0 5.91-.008.144-.004.277 0 .402.078-.004.074-.016.148-.02.223.09-.086.106-.192.157-.301 0 .121.004.242.008.367a2.14 2.14 0 0 0-.086.281c-.137.153-.117.418-.18.61-.113-.114-.117-.266-.266-.356.012.09.032.18.043.27-.28-.043-.554-.031-.836-.031h-3.84c-.34-.008-.652.027-.968-.043-.414-.063-.79.035-1.203.02.027-.067.054-.134.086-.2.039-.078.078-.16.117-.242.02-.043.043-.086.062-.133.035-.043.067-.086.098-.125.098-.125.176-.262.27-.383l.105.082c.055-.066.031-.172.14-.11Zm0 0" style="stroke:none;fill-rule:nonzero;fill:#5e2caa;fill-opacity:1"/>
  <path d="m26.102 16.438.054.015c.004.18.004.356-.004.535l-.05-.011a12.4 12.4 0 0 1 0-.54Zm0 0" style="stroke:none;fill-rule:nonzero;fill:#66519b;fill-opacity:1"/>
  <path d="M28.992 16.445h.043c.02.145.04.282-.039.414a.873.873 0 0 1-.004-.414Zm0 0" style="stroke:none;fill-rule:nonzero;fill:#bfb3da;fill-opacity:1"/>
  <path d="M3.95 16.664c.015.45.023.902-.005 1.348-.074-.203-.039-.453-.047-.672.012-.219-.03-.473.051-.676Zm0 0" style="stroke:none;fill-rule:nonzero;fill:#d7cae8;fill-opacity:1"/>
  <path d="m3.95 16.664.066.02c.011.359 0 .722.011 1.082l-.011.293-.059.007-.012-.054c.028-.446.02-.899.004-1.348Zm0 0" style="stroke:none;fill-rule:nonzero;fill:#7c51b7;fill-opacity:1"/>
  <path d="M4.938 16.668c.074.223.035.496.039.734l-.055-.004a6.514 6.514 0 0 1 .016-.73Zm0 0" style="stroke:none;fill-rule:nonzero;fill:#3f269c;fill-opacity:1"/>
  <path d="M25.18 17.027a6.854 6.854 0 0 1-.211 1.043c-.074-.023-.145-.047-.219-.062l.012.168c-.117-.067-.196-.133-.34-.117-.856.007-1.715-.012-2.567.007l-.003.047c.91.024 1.824-.011 2.734.016v.043c-1.293.02-2.594 0-3.887.012-.168-.016-.312.043-.426-.118-.187-.214-.43.098-.652.055-.55-.016-1.117.04-1.66-.043a.863.863 0 0 1-.211-.289c.059-.098.121-.195.18-.293.414.016.789-.082 1.203-.02.316.07.629.036.969.044h3.84c.28 0 .554-.012.835.03-.011-.09-.03-.179-.043-.269.149.09.153.242.266.356.063-.192.043-.457.18-.61Zm0 0" style="stroke:none;fill-rule:nonzero;fill:#5b29a3;fill-opacity:1"/>
  <path d="m4.922 17.398.055.004c.027.418.093.856.187 1.266 0 .07.004.137.008.207-.238.02-.48.008-.711.047-.156.129-.32.254-.348.465a5.672 5.672 0 0 1-.11-.774c.017-.183.02-.367.013-.554l.011-.293c.227-.207.356.05.614 0 .105-.004.183-.043.277.03.004-.132.004-.265.004-.398Zm0 0" style="stroke:none;fill-rule:nonzero;fill:#5b29a1;fill-opacity:1"/>
  <path d="m28.844 17.465.039.12a4.94 4.94 0 0 1-.297 1.321.653.653 0 0 0-.156-.23c-.16.14-.364.273-.465.465-.078.144-.25.187-.313.351-.047.13-.156.11-.265.16-.067.094-.11.203-.172.297-.09.04-.235.043-.285.137-.024.074-.035.152-.055.23-.09-.046-.148-.156-.242-.043-.164.196-.387.258-.445.52-.235.129-.434.297-.692.375-.02.2-.383.219-.535.207.121-.266.21-.543.336-.805.012.063.027.125.043.188.09-.067.062-.11.062-.207.121-.004.246.004.368 0 .136-.403.496-.344.75-.63.12-.116.14-.273.332-.28.175-.227.394-.391.566-.621.07-.106.094-.004.172.035.117-.18.172-.387.285-.57l.047.167c.094-.14.18-.277.21-.445.15-.164.313-.305.45-.48.035-.07.11.058.148.078.028-.137-.03-.266.114-.34Zm0 0" style="stroke:none;fill-rule:nonzero;fill:#7154af;fill-opacity:1"/>
  <path d="M5.594 17.629c.156.383.218.8.37 1.187.079.184.141.375.22.559.007.117.03.23.035.348-.145.25-.45.093-.676.086-.008.066-.012.132-.016.199l-.043-.028c-.07-.378-.199-.738-.312-1.105-.004-.07-.008-.137-.008-.207.055-.078.106-.164.16-.242l.024.21c.12-.109.25-.093.398-.116.04-.204-.016-.11-.16-.118.195-.242-.031-.472.008-.773Zm0 0" style="stroke:none;fill-rule:nonzero;fill:#2d2384;fill-opacity:1"/>
  <path d="m17.715 17.816.035-.027c.059.11.113.211.21.29.544.081 1.11.026 1.661.042.223.043.465-.27.652-.055.114.16.258.102.426.118 1.293-.012 2.594.007 3.887-.012v-.043c-.91-.027-1.824.008-2.734-.016l.003-.047c.852-.02 1.711 0 2.567-.007.144-.016.223.05.34.117l-.012-.168c.074.015.145.039.219.062-.028.14-.067.282-.117.418-.063.075-.122.153-.188.219-.129-.05-.133-.098-.258-.004-.222.04-.465.02-.691.008v-.043c.226-.02.46.004.691-.016v-.043c-2.207-.02-4.437-.004-6.648-.007-.149-.051-.332.246-.375 0 .078-.188.324-.407.285-.61.012-.058.031-.117.047-.176Zm0 0" style="stroke:none;fill-rule:nonzero;fill:#5a27a0;fill-opacity:1"/>
  <path d="M17.668 17.992c.039.203-.207.422-.285.61-.082.125-.168.25-.27.367l-.078-.086.016-.086.117-.14c.023-.032.05-.063.074-.098.067-.079.13-.157.184-.247.058-.082.113-.167.168-.257Zm0 0" style="stroke:none;fill-rule:nonzero;fill:#483298;fill-opacity:1"/>
  <path d="m3.957 18.066.059-.007c.007.187.004.37-.012.554-.063-.183-.043-.36-.047-.547Zm0 0" style="stroke:none;fill-rule:nonzero;fill:#a78ecc;fill-opacity:1"/>
  <path d="M24.852 18.488c-.07.301-.2.582-.262.887l-.031.035c-.512-.066-1.016.02-1.52-.086-.625.11-1.281.031-1.918.055-1.312-.012-2.633.031-3.945-.024-.086-.043-.121-.14-.164-.222.035-.055.066-.11.101-.164.102-.117.188-.242.27-.367.043.246.226-.051.375 0 2.21.003 4.441-.012 6.648.007v.043c-.23.02-.465-.004-.691.016v.043c.226.012.469.031.691-.008.125-.094.13-.047.258.004.066-.066.125-.145.188-.219Zm0 0" style="stroke:none;fill-rule:nonzero;fill:#58259c;fill-opacity:1"/>
  <path d="M28.43 18.676a.653.653 0 0 1 .156.23 6.565 6.565 0 0 1-.363 1.086c-.301-.16-.555.223-.84.258-.063.082-.078.21-.106.313-.105.015-.215.019-.32.035-.016.101-.016.203-.035.304-.149.051-.3.02-.379.18-.164.09-.348.04-.414.25-.063 0-.129-.012-.192-.012-.07.106-.117.215-.214.305.03.078.113.113-.035.078-.286-.113-.407.281-.645.11-.066.156-.102.28-.3.269.019-.11.073-.223.038-.332.047-.129.11-.254.18-.375.152.012.516-.008.535-.207.258-.078.457-.246.692-.375.058-.262.28-.324.445-.52.094-.113.152-.003.242.043.02-.078.031-.156.055-.23.05-.094.195-.098.285-.137.062-.094.105-.203.172-.297.11-.05.218-.03.265-.16.063-.164.235-.207.313-.351.101-.192.305-.325.465-.465Zm0 0" style="stroke:none;fill-rule:nonzero;fill:#6d50ac;fill-opacity:1"/>
  <path d="M24.875 18.785c.012.055.027.11.043.164.035-.05.05-.144.113-.168.133-.023.211.059.313.121-.348.91-.762 1.813-1.278 2.641-.714 1.2-1.648 2.21-2.671 3.152-.34.29-.684.559-1.047.82l-.07-.066c.066-.054.124-.113.187-.172.144-.117.297-.215.422-.355.265-.262.527-.524.785-.79.21-.202.43-.46.59-.702.195-.188.343-.403.492-.625.14-.157.254-.344.363-.524.09-.117.172-.238.238-.367a3.63 3.63 0 0 0 .356-.652c.148-.227.289-.45.367-.715.113-.219.215-.442.297-.68.09-.14.133-.297.184-.457l.03-.035c.165-.14.161-.41.286-.59Zm0 0" style="stroke:none;fill-rule:nonzero;fill:#10091d;fill-opacity:1"/>
  <path d="M5.172 18.875c.113.367.242.727.312 1.105-.097.09-.207.18-.328.235-.152.02-.3-.012-.445-.012-.063.145-.367.149-.203.34-.059.156-.008.3-.024.473-.183-.516-.273-1.094-.37-1.63.027-.21.19-.335.347-.464.23-.04.473-.027.71-.047Zm0 0" style="stroke:none;fill-rule:nonzero;fill:#59269a;fill-opacity:1"/>
  <path d="m17.035 18.883.078.086c-.035.054-.066.11-.101.164-.157.222-.336.433-.48.664-.2.183-.337.406-.524.598-.27.25-.535.515-.785.785-.09.082-.184.164-.282.234.012-.055.028-.11.036-.164-.258-.102-.457.043-.707.105.113-.109.25-.18.382-.27.086-.05.164-.116.243-.183.085-.054.164-.117.238-.187.062-.04.12-.078.176-.125.097-.074.203-.152.296-.238l.067-.063c.058-.055.117-.117.176-.176.238-.144.433-.343.605-.566.094-.117.195-.227.293-.34.05-.05.09-.11.129-.168.055-.055.105-.105.16-.156Zm0 0" style="stroke:none;fill-rule:nonzero;fill:#372783;fill-opacity:1"/>
  <path d="M17.012 19.133c.043.082.078.18.164.222 1.312.055 2.633.012 3.945.024.637-.024 1.293.055 1.918-.055.504.106 1.008.02 1.52.086-.051.16-.094.317-.184.457-.176-.008-.113.106-.152.227-.067-.106-.063-.25-.223-.23-2.395-.005-4.805-.005-7.2-.005a.432.432 0 0 1-.269-.062c.145-.23.324-.442.48-.664Zm0 0" style="stroke:none;fill-rule:nonzero;fill:#562399;fill-opacity:1"/>
  <path d="M6.184 19.375c.25.398.414.832.718 1.2-.004.19.215.296.29.476-.247.015-.489-.004-.735.039-.11.035-.168-.113-.266-.125-.09.035-.12.07-.156.16-.226-.34-.363-.738-.508-1.117.004-.067.008-.133.016-.2.227.008.531.165.676-.085-.004-.118-.028-.23-.035-.348Zm0 0" style="stroke:none;fill-rule:nonzero;fill:#30237d;fill-opacity:1"/>
  <path d="M16.531 19.797c.09.055.164.066.27.062 2.394 0 4.804 0 7.199.004.16-.02.156.125.223.23.039-.12-.024-.234.152-.226-.082.238-.184.461-.297.68-.195-.024-.36-.063-.558-.031-1.317.007-2.641.004-3.961.004-1.114-.012-2.23.027-3.34-.02-.086.05-.149.117-.246.137.007-.082.023-.16.035-.242.187-.192.324-.415.523-.598Zm0 0" style="stroke:none;fill-rule:nonzero;fill:#572295;fill-opacity:1"/>
  <path d="M28.223 19.992a10.95 10.95 0 0 1-.668 1.442 1.992 1.992 0 0 1-.043-.301c-.075-.004-.239-.055-.25.058-.043.125-.196.082-.297.09-.055.196-.152.07-.3.098-.06.144-.11.289-.165.433-.063-.015-.129-.042-.191-.062a.764.764 0 0 1-.325.324c-.03-.008-.125-.148-.117-.05 0 .171-.254.097-.367.132.055.024.11.047.168.067-.258.062-.441.332-.695.3a4.61 4.61 0 0 1-.563.305c-.039.168-.12.024-.195-.031.215-.336.36-.707.566-1.047.035.11-.02.223-.039.332.2.012.235-.113.301-.27.238.172.36-.222.645-.109.148.035.066 0 .035-.078.097-.09.144-.2.215-.305.062 0 .128.012.19.012.067-.21.25-.16.415-.25.078-.16.23-.129.379-.18.02-.101.02-.203.035-.304.105-.016.215-.02.32-.035.028-.102.043-.231.106-.313.285-.035.539-.418.84-.258Zm0 0" style="stroke:none;fill-rule:nonzero;fill:#6a4da7;fill-opacity:1"/>
  <path d="m5.484 19.98.043.028c.145.379.282.777.508 1.117l.106.227a1.94 1.94 0 0 1-.204.097c-.3-.004-.582.063-.882.004-.082.129-.051.29-.235.309.004.09.02.18.028.27-.168-.317-.258-.677-.364-1.016.016-.172-.035-.317.024-.473-.164-.191.14-.195.203-.34.144 0 .293.031.445.012.121-.055.23-.145.328-.235Zm0 0" style="stroke:none;fill-rule:nonzero;fill:#552192;fill-opacity:1"/>
  <path d="M16.008 20.395c-.012.082-.028.16-.035.242.097-.02.16-.086.246-.137 1.11.047 2.226.008 3.34.02 1.32 0 2.644.003 3.96-.004.2-.032.364.007.56.03-.079.267-.22.49-.368.716-1-.047-2.008-.008-3.012-.024h-4.32c-.375.008-.746-.023-1.121.04l-.035-.098c.25-.27.515-.535.785-.785Zm0 0" style="stroke:none;fill-rule:nonzero;fill:#541f91;fill-opacity:1"/>
  <path d="M6.902 20.574c.106.082.188.172.266.281.32.391.695.696 1.105.989.098.218.477.172.48.394-.148-.027-.253.012-.398.043-.449-.191-.91-.011-1.335-.062.035.105.113.199.168.297-.438-.235-.708-.805-1.047-1.164-.036-.075-.07-.153-.106-.227.035-.09.067-.125.156-.16.098.012.157.16.266.125.246-.043.488-.024.734-.04-.074-.179-.293-.284-.289-.476Zm0 0" style="stroke:none;fill-rule:nonzero;fill:#332476;fill-opacity:1"/>
  <path d="M27.512 21.133c.008.101.02.199.043.3-.145.262-.301.524-.465.774-.106-.168-.258-.07-.418-.039-.14.39-.535.289-.809.52-.101.101-.238.093-.355.171-.055.078-.04.172-.168.157-.152-.012-.184.093-.285.18-.121.042-.305-.012-.39.093-.114.117-.278.059-.384.227-.027.097-.187.03-.265.043-.082.058-.114.152-.23.14l.023-.246c.144-.215.27-.441.406-.656.074.055.156.2.195.031a4.61 4.61 0 0 0 .563-.305c.254.032.437-.238.695-.3a2.146 2.146 0 0 1-.168-.067c.113-.035.367.04.367-.133-.008-.097.086.043.117.051a.764.764 0 0 0 .325-.324c.062.02.128.047.191.063.055-.145.105-.29.164-.434.148-.027.246.098.3-.098.102-.008.255.035.298-.09.011-.113.175-.062.25-.058Zm0 0" style="stroke:none;fill-rule:nonzero;fill:#6649a2;fill-opacity:1"/>
  <path d="M14.977 21.25c-.008.055-.024.11-.036.164-.066.055-.132.11-.199.168-.207.14-.402.316-.59.484-.285.172-.547.38-.836.543-.394.211-.793.418-1.199.606-.488.156-.953.344-1.476.394-.477.059-.98.055-1.454-.047-.644-.156-1.18-.472-1.742-.808a3.723 3.723 0 0 1-.258-.238c-.054-.098-.132-.192-.167-.297.425.05.886-.13 1.335.062.145-.031.25-.07.399-.043-.004-.222-.383-.175-.48-.394.257.058.472.183.69.324.337.137.708.238 1.056.324.382-.02.656.13.976-.101.336.086.629.07.957-.055.266-.043.527-.14.777-.242.188-.063.372-.137.54-.242.218-.067.41-.18.601-.301a2.9 2.9 0 0 0 .352-.168l.047-.028c.25-.062.449-.207.707-.105Zm0 0" style="stroke:none;fill-rule:nonzero;fill:#362570;fill-opacity:1"/>
  <path d="m15.223 21.18.035.097c.375-.062.746-.03 1.12-.039H20.7c1.004.016 2.012-.023 3.012.024a3.63 3.63 0 0 1-.356.652c-.109-.16-.21-.062-.375-.082-.14-.02-.277-.055-.418-.055-2.058.004-4.125 0-6.183.004-.195 0-.348.082-.531.043-.38-.09-.801-.02-1.192-.05.028-.067.059-.13.086-.192.067-.059.133-.113.2-.168.097-.07.19-.152.28-.234Zm0 0" style="stroke:none;fill-rule:nonzero;fill:#521e8d;fill-opacity:1"/>
  <path d="M6.14 21.352c.34.359.61.93 1.048 1.164.082.082.167.164.257.238-.015.176-.133.02-.23.012-.117-.047-.192.035-.3.05-.4-.027-.798-.02-1.196-.011.008.03.133.12.043.125-.13.07-.172.004-.29-.047a2.302 2.302 0 0 0-.093.226c-.23-.336-.383-.703-.531-1.078-.008-.09-.024-.18-.028-.27.184-.019.153-.179.235-.308.3.059.582-.008.883-.004a1.94 1.94 0 0 0 .203-.097Zm0 0" style="stroke:none;fill-rule:nonzero;fill:#511c89;fill-opacity:1"/>
  <path d="M14.742 21.582c-.027.063-.058.125-.086.191.39.032.813-.039 1.192.051.183.04.336-.043.53-.043 2.06-.004 4.126 0 6.184-.004.141 0 .278.035.418.055.165.02.266-.078.375.082-.066.129-.148.25-.238.367-.125-.226-.238 0-.437-.023-1.313.004-2.645 0-3.961.004a3.848 3.848 0 0 0-.899.054c-1.097.008-2.203 0-3.3.004-.223-.004-.426.078-.653.059.11-.098.219-.176.285-.313.188-.168.383-.343.59-.484Zm0 0" style="stroke:none;fill-rule:nonzero;fill:#511b8a;fill-opacity:1"/>
  <path d="M14.152 22.066c-.066.137-.175.215-.285.313.227.02.43-.063.653-.059 1.097-.004 2.203.004 3.3-.004.309-.058.586-.066.899-.054 1.316-.004 2.648 0 3.96-.004.2.023.313-.203.438.023-.11.18-.222.367-.363.524-.27-.145-.504.152-.734.004-2.415-.02-4.899-.004-7.32-.008-.372.008-.74-.024-1.098.027-.055.008-.106-.039-.157-.055-.129.024-.234.114-.36.141-.015-.144.231-.133.231-.305.29-.164.551-.37.836-.543Zm0 0" style="stroke:none;fill-rule:nonzero;fill:#4f1a86;fill-opacity:1"/>
  <path d="M27.09 22.207c-.414.637-.899 1.285-1.461 1.8-.008-.097.082-.269-.059-.3-.062.086-.062.18-.093.277-.172.059-.313-.101-.422.051-.11.13-.336.125-.489.176a2.337 2.337 0 0 0-.636.445c-.367-.082-.598.18-.95.184-.203.047-.007-.152-.003-.246.27-.383.546-.77.832-1.14l-.024.245c.117.012.149-.082.23-.14.079-.012.239.054.266-.043.106-.168.27-.11.383-.227.086-.105.27-.05.39-.094.102-.086.134-.191.286-.18.129.016.113-.078.168-.156.117-.078.254-.07.355-.172.274-.23.668-.128.809-.519.16-.031.312-.129.418.039Zm0 0" style="stroke:none;fill-rule:nonzero;fill:#61459b;fill-opacity:1"/>
  <path d="M13.316 22.61c0 .171-.246.16-.23.304.125-.027.23-.117.36-.14.05.015.1.062.156.054.359-.05.726-.02 1.097-.027 2.422.004 4.906-.012 7.32.008.231.148.465-.149.735-.004a3.612 3.612 0 0 1-.492.625l-.024-.196c-.117.078-.18.184-.336.168-3.234 0-6.488-.007-9.722 0-.164-.011-.078.063-.09.172a1.827 1.827 0 0 1-.254.004c.082-.133.16-.262.281-.363.406-.188.805-.395 1.2-.606Zm0 0" style="stroke:none;fill-rule:nonzero;fill:#4d1882;fill-opacity:1"/>
  <path d="M7.215 22.766c.098.007.215.164.23-.012.563.336 1.098.652 1.742.808.473.102.977.106 1.454.047.523-.05.988-.238 1.476-.394-.12.101-.199.23-.281.363.086.004.172.004.254-.004.012-.11-.074-.183.09-.172 3.234-.007 6.488 0 9.722 0 .157.016.22-.09.336-.168l.024.196c-.16.242-.38.5-.59.703-.106-.149-.137-.051-.277-.078-3.91.011-7.985.004-11.915.004-.964-.012-1.972.023-2.93-.016-.132-.172-.292.133-.398.207-.285-.355-.566-.734-.773-1.14.027-.079.059-.153.094-.227.117.05.16.117.289.047.09-.004-.035-.094-.043-.125.398-.008.797-.016 1.195.011.11-.015.184-.097.3-.05Zm0 0" style="stroke:none;fill-rule:nonzero;fill:#4d177f;fill-opacity:1"/>
  <path d="M25.57 23.707c.14.031.051.203.059.3-.781.888-1.734 1.575-2.75 2.173-.266.133-.527.261-.781.414-.54.23-1.09.484-1.66.625-.266.074-.481.195-.762.203.637-.328 1.215-.781 1.734-1.27.34-.25.617-.59.926-.875.238-.215.379-.492.64-.683-.003.093-.199.293.004.246.352-.004.582-.266.95-.184.183-.191.402-.324.636-.445.153-.05.38-.047.489-.176.11-.152.25.008.422-.05.03-.098.03-.192.093-.278Zm0 0" style="stroke:none;fill-rule:nonzero;fill:#5a3f92;fill-opacity:1"/>
  <path d="M6.55 24.043c.958.039 1.966.004 2.93.016 3.93 0 8.004.007 11.915-.004.14.027.171-.07.277.078-.258.265-.52.527-.785.789-.04-.074-.075-.145-.114-.215-.136-.047-.293-.043-.433-.047h-4.078c-.32-.008-.602.027-.91-.043-.172-.043-.305.031-.47.043-.132-.02-.214-.133-.362-.12H8.94c-.285-.005-.586.026-.863-.036-.246-.05-.5 0-.746-.04-.191-.171-.531-.093-.777-.097v.047c.215.016.43-.004.644.016-.082.16-.254.09-.402.12-.035.118.48-.019.445.098-.207.036-.472-.039-.48.258-.207-.21-.453-.406-.61-.656.106-.074.266-.379.399-.207Zm0 0" style="stroke:none;fill-rule:nonzero;fill:#4b147a;fill-opacity:1"/>
  <path d="M6.555 24.367c.246.004.586-.074.777.098.246.039.5-.012.746.039.277.062.578.031.863.035h5.579c.148-.012.23.102.363.121.164-.012.297-.086.469-.043.308.07.59.035.91.043h4.078c.14.004.297 0 .433.047.04.07.075.14.114.215-.125.14-.278.238-.422.355-.024-.062-.043-.125-.07-.183-.079.07-.114.168-.235.164-1.637.008-3.285-.004-4.922.008-.418.086-.832.047-1.258.054-1.32-.004-2.644.004-3.96-.004-.547-.105-1.122-.039-1.68-.054-.238.004-.477-.016-.711.008-.082.015-.129.144-.172.21.156.106.363.082.344.325-.414-.239-.719-.559-1.04-.899.009-.297.274-.222.481-.258.035-.117-.48.02-.445-.097.148-.031.32.039.402-.121-.215-.02-.43 0-.644-.016Zm0 0" style="stroke:none;fill-rule:nonzero;fill:#4a1378;fill-opacity:1"/>
  <path d="M20.395 25.094c.027.058.046.12.07.183-.063.059-.121.118-.188.172-.187.11-.355.242-.527.371-.164.035-.29-.047-.434.032-.25.093-.57.062-.836.07-.988-.012-2.007.02-2.988-.016-.187-.156-.387-.101-.613-.105-.152-.012-.207.133-.36.117-2.023.012-4.074-.012-6.097.012-.04.28.226.254.332.48a4.424 4.424 0 0 1-.953-.605c.02-.242-.188-.22-.344-.325.043-.066.09-.195.172-.21.234-.024.473-.004.71-.008.56.015 1.134-.051 1.68.054 1.317.008 2.641 0 3.961.004.426-.008.84.032 1.258-.054 1.637-.012 3.285 0 4.922-.008.121.004.156-.094.235-.164Zm0 0" style="stroke:none;fill-rule:nonzero;fill:#491174;fill-opacity:1"/>
  <path d="m20.277 25.45.07.066c-.187.156-.39.3-.617.394l.02-.09c.172-.129.34-.261.527-.37Zm0 0" style="stroke:none;fill-rule:nonzero;fill:#270f44;fill-opacity:1"/>
  <path d="M14.879 25.8c.226.005.426-.05.613.106.98.035 2 .004 2.988.016.266-.008.586.023.836-.07.145-.079.27.003.434-.032l-.02.09c-.34.172-.64.399-.996.535-.203-.101-.238.028-.394.114-.281.062-.586-.028-.88.02-2.456.007-4.92 0-7.382 0-.113-.005-.191.054-.289.1l.024-.163c-.114.011-.106.148-.133.234.133.164.304.188.496.23l.015.094c-.363-.066-.644-.277-.988-.398a1.865 1.865 0 0 1-.45-.266c-.105-.226-.37-.2-.331-.48 2.023-.024 4.074 0 6.098-.012.152.016.207-.129.359-.117Zm0 0" style="stroke:none;fill-rule:nonzero;fill:#470f70;fill-opacity:1"/>
  <path d="M18.734 26.445c-.797.457-1.718.742-2.601.961-.406.098-.774.219-1.195.196-.165 0-.336-.028-.485.05l-.047.016c-.504-.008-1.015-.023-1.52.012a2.786 2.786 0 0 0-.644-.09c-.703-.11-1.39-.238-2.05-.516l-.016-.094c-.192-.043-.364-.066-.496-.23.027-.086.02-.223.133-.234l-.024.164c.098-.047.176-.106.29-.102 2.46 0 4.925.008 7.382 0 .293-.047.598.043.879-.02.156-.085.191-.214.394-.113Zm0 0" style="stroke:none;fill-rule:nonzero;fill:#450e6b;fill-opacity:1"/>
  <path d="m14.938 27.602.003.054c-.164.004-.324 0-.488-.004.149-.078.32-.05.485-.05Zm0 0" style="stroke:none;fill-rule:nonzero;fill:#82629a;fill-opacity:1"/>
  <path d="M12.887 27.68c.504-.035 1.015-.02 1.52-.012-.145.078-.325.05-.485.055-.34-.02-.707.039-1.035-.043Zm0 0" style="stroke:none;fill-rule:nonzero;fill:#d0c1d9;fill-opacity:1"/>
  <path d="M15.766 27.734a27.64 27.64 0 0 1 2.129.004c-.141.04-.282.047-.422.059a9.885 9.885 0 0 0-1.227 0c-.164-.016-.32-.012-.48-.063Zm0 0" style="stroke:none;fill-rule:nonzero;fill:#6c5f91;fill-opacity:1"/>
  <path d="M16.246 27.797a9.885 9.885 0 0 1 1.227 0c-.207.066-.399.039-.614.043-.214-.004-.41.023-.613-.043Zm0 0" style="stroke:none;fill-rule:nonzero;fill:#dad7e4;fill-opacity:1"/>
</svg>
